<svg width="20" height="21" viewBox="0 0 20 21" fill="none" xmlns="http://www.w3.org/2000/svg">
<g clip-path="url(#clip0_240_8481)">
<path d="M4.02341 18L4.00675 18.0167L3.98925 18H2.49341C2.27409 17.9998 2.06383 17.9125 1.90882 17.7573C1.75382 17.6022 1.66675 17.3918 1.66675 17.1725V3.8275C1.66827 3.60865 1.75583 3.39918 1.91051 3.24435C2.06519 3.08951 2.27456 3.00175 2.49341 3H17.5067C17.9634 3 18.3334 3.37083 18.3334 3.8275V17.1725C18.3319 17.3914 18.2443 17.6008 18.0897 17.7557C17.935 17.9105 17.7256 17.9983 17.5067 18H4.02341V18ZM16.6667 13V4.66667H3.33341V16.3333L11.6667 8L16.6667 13ZM16.6667 15.3567L11.6667 10.3567L5.69008 16.3333H16.6667V15.3567ZM6.66675 9.66667C6.22472 9.66667 5.8008 9.49107 5.48824 9.17851C5.17568 8.86595 5.00008 8.44203 5.00008 8C5.00008 7.55797 5.17568 7.13405 5.48824 6.82149C5.8008 6.50893 6.22472 6.33333 6.66675 6.33333C7.10878 6.33333 7.5327 6.50893 7.84526 6.82149C8.15782 7.13405 8.33342 7.55797 8.33342 8C8.33342 8.44203 8.15782 8.86595 7.84526 9.17851C7.5327 9.49107 7.10878 9.66667 6.66675 9.66667Z" fill="#919191"/>
</g>
<defs>
<clipPath id="clip0_240_8481">
<rect width="20" height="20" fill="white" transform="translate(0 0.5)"/>
</clipPath>
</defs>
</svg>
