<svg width="100" height="100" viewBox="0 0 100 100" fill="none" xmlns="http://www.w3.org/2000/svg">
<g clip-path="url(#clip0_276_8836)">
<path d="M64.9455 41.4399H61.1223V33.3234C61.1223 27.201 56.1315 22.2202 49.9975 22.2202C43.8626 22.2202 38.8718 27.201 38.8718 33.3234V41.4399H35.0494V33.3234C35.0494 25.0935 41.7551 18.397 49.9975 18.397C58.2398 18.397 64.9455 25.0927 64.9455 33.3234V41.4399Z" fill="#2A9D8F"/>
<path d="M48.5642 64.8643L40.6343 56.9336L43.3368 54.2311L48.5617 59.4544L56.8141 51.187L59.5199 53.8878L48.5642 64.8643Z" fill="#2A9D8F"/>
<path d="M65.8197 75.1592H34.1753C30.8995 75.1592 28.2354 72.4951 28.2354 69.2193V45.6422C28.2354 42.3672 30.8995 39.7031 34.1753 39.7031H65.8197C69.0947 39.7031 71.7588 42.3672 71.7588 45.6422V69.2185C71.7588 72.4951 69.0947 75.1592 65.8197 75.1592ZM34.1753 43.5264C33.0078 43.5264 32.0586 44.4764 32.0586 45.643V69.2193C32.0586 70.3868 33.0078 71.3359 34.1753 71.3359H65.8197C66.9864 71.3359 67.9364 70.386 67.9364 69.2193V45.6422C67.9364 44.4755 66.9864 43.5256 65.8197 43.5256H34.1753V43.5264Z" fill="#2A9D8F"/>
<path d="M49.9125 99.9985C41.4935 99.9985 33.0261 97.8885 25.3588 93.5519C24.7271 93.1911 24.1029 92.8169 23.4888 92.4336C20.2738 90.4103 17.2964 88.0345 14.6306 85.3679C14.0498 84.7879 13.4873 84.1896 12.934 83.5821L15.7589 81.0063C16.2731 81.5704 16.7956 82.1263 17.3339 82.6654C19.7988 85.1304 22.553 87.327 25.5188 89.1945C26.0854 89.547 26.6671 89.8961 27.2496 90.2295C45.2434 100.408 68.0339 97.2977 82.667 82.6663C97.3 68.034 100.408 45.2419 90.226 27.2405L93.5535 25.3589C104.578 44.8502 101.212 69.5273 85.3694 85.3695C75.7587 94.9794 62.8948 99.9985 49.9125 99.9985Z" fill="#2A9D8F"/>
<path d="M6.44656 74.6404C-4.57826 55.1499 -1.21248 30.4728 14.6306 14.6297C30.4778 -1.21752 55.1524 -4.57913 74.6338 6.45485C75.2562 6.79735 75.8912 7.17734 76.5262 7.5765C79.732 9.5948 82.7069 11.9681 85.3694 14.6297C85.9502 15.2105 86.5227 15.818 87.0685 16.4172L84.2394 18.9896C83.7344 18.4338 83.2036 17.8705 82.6661 17.3322C80.2053 14.8714 77.4545 12.6781 74.4904 10.8123C73.9204 10.454 73.3496 10.1106 72.7713 9.79313C54.7574 -0.410032 31.9695 2.69658 17.3339 17.333C2.70079 31.9661 -0.407493 54.7574 9.774 72.7579L6.44656 74.6404Z" fill="#2A9D8F"/>
<path d="M16.1306 92.1786H12.3073V80.3496H24.1363V84.1729H16.1306V92.1786Z" fill="#2A9D8F"/>
<path d="M87.6919 19.6621H75.8629V15.8397H83.8686V7.83398H87.6919V19.6621Z" fill="#2A9D8F"/>
</g>
<defs>
<clipPath id="clip0_276_8836">
<rect width="100" height="99.9983" fill="white"/>
</clipPath>
</defs>
</svg>
