<svg width="80" height="80" viewBox="0 0 80 80" fill="none" xmlns="http://www.w3.org/2000/svg">
<path d="M52.0383 55.8052C51.8451 55.2113 51.3315 54.7785 50.7136 54.6886L44.3272 53.7606L41.4712 47.9736C41.1947 47.4136 40.6245 47.0591 40 47.0591C39.3755 47.0591 38.8053 47.4136 38.5287 47.9736L35.6728 53.7606L29.2864 54.6886C28.6684 54.7785 28.155 55.2113 27.9619 55.8052C27.7691 56.3991 27.9298 57.0511 28.377 57.487L32.9983 61.9916L31.9073 68.3522C31.8017 68.9677 32.0547 69.5899 32.56 69.9569C33.0653 70.3239 33.7351 70.3725 34.2878 70.0817L40 67.0786L45.7123 70.0817C45.9523 70.208 46.2145 70.2702 46.4756 70.2702C46.8158 70.2702 47.1544 70.1645 47.4401 69.9569C47.9453 69.5899 48.1984 68.9677 48.0928 68.3522L47.0019 61.9916L51.6231 57.487C52.0703 57.0511 52.2312 56.3992 52.0383 55.8052Z" fill="#2A9D8F"/>
<path d="M25.506 55.8053C25.3125 55.2113 24.7991 54.7785 24.1811 54.6886L17.7947 53.7606L14.9388 47.9736C14.6622 47.4136 14.0921 47.0591 13.4675 47.0591C12.843 47.0591 12.2728 47.4136 11.9963 47.9736L9.14033 53.7606L2.75392 54.6886C2.13596 54.7785 1.62252 55.2113 1.42939 55.8052C1.23658 56.3991 1.39736 57.0511 1.84455 57.4871L6.4658 61.9917L5.37502 68.3524C5.26939 68.9678 5.52236 69.5899 6.02767 69.9571C6.53267 70.3241 7.20267 70.3724 7.75549 70.0819L13.4677 67.0788L19.18 70.0819C19.42 70.2081 19.6822 70.2703 19.9433 70.2703C20.2835 70.2703 20.622 70.1647 20.9078 69.9571C21.413 69.59 21.6661 68.9678 21.5605 68.3524L20.4696 61.9917L25.0908 57.4872C25.538 57.0513 25.6989 56.3994 25.506 55.8053Z" fill="#2A9D8F"/>
<path d="M78.5711 55.805C78.3777 55.2113 77.8643 54.7785 77.2463 54.6886L70.8599 53.7606L68.004 47.9736C67.7274 47.4136 67.1572 47.0591 66.5327 47.0591C65.9082 47.0591 65.338 47.4136 65.0615 47.9736L62.2055 53.7606L55.8191 54.6886C55.2011 54.7785 54.6877 55.2113 54.4946 55.8052C54.3018 56.3991 54.4625 57.0511 54.9097 57.4871L59.531 61.9916L58.44 68.3522C58.3344 68.9677 58.5874 69.5899 59.0927 69.9569C59.3785 70.1646 59.7169 70.2702 60.0572 70.2702C60.3183 70.2702 60.5805 70.208 60.8205 70.0817L66.5329 67.0786L72.245 70.0817C72.7975 70.3722 73.4674 70.3241 73.9729 69.9569C74.478 69.5899 74.7311 68.9677 74.6255 68.3522L73.5347 61.9916L78.156 57.4869C78.6032 57.051 78.7641 56.3991 78.5711 55.805Z" fill="#2A9D8F"/>
<path d="M68.7325 9.72949H11.2675C5.05469 9.72949 0 14.784 0 20.997V28.6C0 34.4007 4.40563 39.1917 10.047 39.8017L12.4833 43.0475C13.2864 44.1175 14.5141 44.7431 15.8516 44.7639C15.8745 44.7642 15.8977 44.7643 15.9205 44.7643C17.2319 44.7643 18.45 44.1798 19.2716 43.1536L21.903 39.8673H68.7325C74.9455 39.8673 80 34.8128 80 28.5998V20.9968C80 14.784 74.9453 9.72949 68.7325 9.72949ZM34.9738 31.7587H13.64C12.3456 31.7587 11.2962 30.7093 11.2962 29.415C11.2962 28.1206 12.3456 27.0712 13.64 27.0712H34.9738C36.2681 27.0712 37.3175 28.1206 37.3175 29.415C37.3175 30.7093 36.2681 31.7587 34.9738 31.7587ZM66.36 22.335H13.64C12.3456 22.335 11.2962 21.2856 11.2962 19.9912C11.2962 18.6968 12.3456 17.6475 13.64 17.6475H66.36C67.6544 17.6475 68.7038 18.6968 68.7038 19.9912C68.7038 21.2856 67.6544 22.335 66.36 22.335Z" fill="#2A9D8F"/>
</svg>
