<svg width="135" height="144" viewBox="0 0 135 144" fill="none" xmlns="http://www.w3.org/2000/svg">
<g clip-path="url(#clip0_189_4674)">
<g opacity="0.2">
<path d="M61.4302 55.4695C61.4209 58.2695 63.4187 61.6816 65.8939 63.0884L130.356 99.7621C132.831 101.169 134.842 100.045 134.847 97.2408L134.981 50.2396L134.995 45.6582C135 42.8582 133.007 39.4462 130.532 38.0394L66.0747 1.36106C63.5995 -0.0457766 61.5878 1.08244 61.5832 3.88698L61.5693 8.47291L61.4302 55.4695Z" fill="#BFBEED"/>
</g>
<g opacity="0.2">
<path d="M56.3872 60.7133C56.378 63.5133 58.3757 66.9253 60.8509 68.3322L125.313 105.006C127.788 106.413 129.799 105.289 129.804 102.485L129.938 55.4834L129.952 50.902C129.957 48.102 127.964 44.69 125.489 43.2831L61.0271 6.60484C58.5519 5.198 56.5402 6.32621 56.5356 9.13075L56.5217 13.7167L56.3872 60.7133Z" fill="#BFBEED"/>
</g>
<path d="M54.2462 9.90268L53.1199 10.5467C53.9218 10.0854 55.0342 10.1539 56.2625 10.8482L57.3889 10.2041C56.1606 9.50986 55.0481 9.44592 54.2462 9.90268Z" fill="#F4F4FA"/>
<path d="M56.2574 10.8531L57.3838 10.2091C56.1554 9.51022 55.0476 9.44627 54.2411 9.90761L53.1147 10.5516C53.9213 10.0903 55.0337 10.1543 56.2574 10.8531Z" fill="#FE8786"/>
<path d="M122.754 108.13L123.88 107.486C124.673 107.034 125.164 106.07 125.169 104.7L124.042 105.344C124.038 106.714 123.547 107.678 122.754 108.13Z" fill="#F4F4FA"/>
<path d="M122.754 108.13L123.88 107.486C124.673 107.034 125.164 106.07 125.169 104.7L124.042 105.344C124.038 106.714 123.547 107.678 122.754 108.13Z" fill="#D3D3F5"/>
<path d="M124.186 54.5059L125.312 53.8618L125.298 58.3792L124.177 59.0187L124.186 54.5059Z" fill="#264653"/>
<path d="M125.299 58.3792L125.169 104.695L124.042 105.344L124.177 59.0186L125.299 58.3792Z" fill="#D3D3F5"/>
<path d="M119.787 46.9965L120.914 46.3479L57.3837 10.2086L56.2573 10.8527L119.787 46.9965Z" fill="#46B7A9"/>
<path d="M124.186 54.5058L125.313 53.8618C125.322 51.1029 123.352 47.7365 120.914 46.3525L119.787 46.9966C122.225 48.3806 124.195 51.7469 124.186 54.5058Z" fill="#F4F4FA"/>
<path d="M124.186 54.5058L125.313 53.8618C125.322 51.1029 123.352 47.7365 120.914 46.3525L119.787 46.9966C122.225 48.3806 124.195 51.7469 124.186 54.5058Z" fill="#264653"/>
<path d="M51.687 64.1755C51.6778 66.9344 53.6477 70.2962 56.0858 71.6848L119.616 107.829C122.054 109.217 124.038 108.107 124.042 105.344L124.177 59.0232L124.191 54.5104C124.195 51.7469 122.23 48.3852 119.792 47.0012L56.262 10.8527C53.8239 9.4687 51.84 10.5786 51.8354 13.3421L51.8215 17.8595L51.687 64.1755Z" fill="#F4F4FA"/>
<path d="M51.8215 17.8549L124.177 59.0187L124.191 54.5058C124.195 51.7424 122.23 48.3806 119.792 46.9966L56.262 10.8527C53.8239 9.4687 51.8401 10.5786 51.8354 13.3421L51.8215 17.8549Z" fill="#2A9D8F"/>
<path d="M114.985 49.2758C114.985 49.8651 114.563 50.1071 114.044 49.8102C113.525 49.5133 113.103 48.7962 113.103 48.2024C113.103 47.6132 113.525 47.3711 114.044 47.668C114.563 47.9649 114.985 48.6866 114.985 49.2758Z" fill="#F4F4FA"/>
<path d="M117.952 50.9612C117.952 51.5505 117.53 51.7926 117.011 51.4957C116.492 51.1988 116.07 50.4816 116.07 49.8879C116.07 49.2986 116.492 49.0565 117.011 49.3534C117.53 49.6549 117.952 50.372 117.952 50.9612Z" fill="#F4F4FA"/>
<path d="M120.914 52.6513C120.914 53.2405 120.492 53.4826 119.973 53.1857C119.454 52.8888 119.032 52.1717 119.032 51.5779C119.032 50.9887 119.454 50.7466 119.973 51.0435C120.492 51.3404 120.914 52.0575 120.914 52.6513Z" fill="#F4F4FA"/>
<g opacity="0.9">
<path d="M120.923 60.293L88.3191 41.7483V86.3012L120.923 104.85V60.293Z" fill="white"/>
<path opacity="0.9" d="M120.923 60.293L88.3191 41.7483V58.5847L120.923 77.1339V60.293Z" fill="#2E2823"/>
<path opacity="0.9" d="M119.152 79.7649L96.4353 66.8384V71.1046L119.152 84.031V79.7649Z" fill="#2E2823"/>
<path opacity="0.9" d="M119.152 85.6891L96.4353 72.7672V77.0334L119.152 89.9599V85.6891Z" fill="#2E2823"/>
<path opacity="0.9" d="M119.152 91.618L96.4353 78.696V82.9622L119.152 95.8841V91.618Z" fill="#2E2823"/>
<path opacity="0.9" d="M119.152 97.5468L96.4353 84.6204V88.8911L119.152 101.813V97.5468Z" fill="#2E2823"/>
<path opacity="0.9" d="M94.1732 67.6881C94.1732 66.5096 93.3389 65.0799 92.3099 64.4953C91.2809 63.9106 90.4465 64.3902 90.4465 65.5641C90.4465 66.7425 91.2809 68.1722 92.3099 68.7569C93.3389 69.3415 94.1732 68.8619 94.1732 67.6881Z" fill="#3A2C99"/>
<path opacity="0.9" d="M94.1732 85.4699C94.1732 84.2915 93.3389 82.8618 92.3099 82.2771C91.2809 81.6925 90.4465 82.1721 90.4465 83.346C90.4465 84.5244 91.2809 85.9541 92.3099 86.5387C93.3389 87.1234 94.1732 86.6484 94.1732 85.4699Z" fill="#3A2C99"/>
<path opacity="0.9" d="M94.1732 79.5411C94.1732 78.3626 93.3389 76.9329 92.3099 76.3483C91.2809 75.7636 90.4465 76.2432 90.4465 77.4171C90.4465 78.5956 91.2809 80.0253 92.3099 80.6099C93.3389 81.1991 94.1732 80.7195 94.1732 79.5411Z" fill="#3A2C99"/>
<path opacity="0.9" d="M94.1732 73.6122C94.1732 72.4338 93.3389 71.0041 92.3099 70.4195C91.2809 69.8348 90.4465 70.3144 90.4465 71.4883C90.4465 72.6667 91.2809 74.0964 92.3099 74.6811C93.3389 75.2703 94.1732 74.7907 94.1732 73.6122Z" fill="#3A2C99"/>
<path d="M85.473 84.0585L54.0742 66.1944V45.5577L85.473 63.4219V84.0585Z" fill="white"/>
<path opacity="0.9" d="M68.8699 65.7605L56.5356 58.7446C56.1509 58.5253 55.8403 57.9909 55.8403 57.5524V49.6549C55.8403 49.2164 56.1509 49.0383 56.5356 49.2575L68.8699 56.2734C69.2546 56.4927 69.5651 57.0271 69.5651 57.4656V65.3631C69.5651 65.797 69.2546 65.9752 68.8699 65.7605Z" fill="#FE4340"/>
<path d="M68.6197 61.4851L56.6284 54.661V52.9573L68.6197 59.7814V61.4851Z" fill="#F7B637"/>
<path d="M68.6194 57.7762L66.4316 56.5292V55.675L68.6194 56.922V57.7762Z" fill="#F7B637"/>
<path d="M58.8904 58.7994L56.6284 57.5159V56.6617L58.8904 57.9498V58.7994Z" fill="#F7B637"/>
<g opacity="0.9">
<path d="M72.6614 63.4583C72.6614 62.7915 73.0276 62.7732 73.4772 63.0061V62.6088L73.9129 62.8554V63.2528C74.2095 63.4355 74.3764 63.5817 74.5943 63.7918V64.4906C74.3347 64.3125 74.0102 64.1115 73.746 63.9608C73.5282 63.8375 73.4447 63.8009 73.4447 63.9928V64.043C73.4447 64.1846 73.4679 64.276 73.6858 64.4039L73.9453 64.55C74.5618 64.9017 74.7009 65.5914 74.7009 65.9614V66.1122C74.7009 66.948 74.3022 66.9115 73.9129 66.6968V67.0759L73.4772 66.8293V66.4502C73.1203 66.2446 73.0693 66.1807 72.7541 65.8838V65.1849C72.9163 65.2945 73.3057 65.5503 73.6811 65.7604C73.8573 65.8609 73.9175 65.8472 73.9175 65.7056V65.6326C73.9175 65.5001 73.8804 65.4087 73.7043 65.3082L73.4633 65.1712C72.6938 64.7327 72.6614 63.9516 72.6614 63.737V63.4583Z" fill="#FE4340"/>
<path d="M74.8955 63.9608C75.2524 64.0202 75.7484 64.308 76.2212 64.5866C76.6662 64.8469 76.986 65.3265 76.986 65.8747V66.0574C76.986 66.3954 76.8933 66.5781 76.6476 66.537C76.9025 66.7745 76.986 67.0897 76.986 67.4414V67.5738C76.986 68.1311 76.6847 68.2727 76.1934 67.9941C75.7345 67.7337 75.2756 67.4871 74.9187 67.1399L74.9233 66.4639L75.804 66.9663C76.1192 67.1445 76.198 67.1856 76.198 66.9709V66.9298C76.198 66.7197 76.0867 66.642 75.8272 66.4822L75.169 66.0756V65.3448L75.8272 65.6737C76.1053 65.8199 76.2073 65.8747 76.2073 65.6646V65.6234C76.2073 65.3859 76.0358 65.29 75.8272 65.1712L74.8955 64.6414V63.9608Z" fill="#FE4340"/>
<path d="M77.3245 67.7976L78.3906 68.4051C78.6409 68.5467 78.627 68.3868 78.627 68.2955V68.1539C78.627 68.0031 78.5852 67.8844 78.4323 67.7976L78.2561 67.6971C78.1263 67.624 78.08 67.6606 78.08 67.8022L77.3291 67.3728L77.4172 65.2762L79.2898 66.3405V67.1444L78.182 66.5141L78.1681 66.9754C78.2747 66.9617 78.3767 67.0074 78.4323 67.0302C78.5389 67.0805 78.6872 67.1718 78.7382 67.2038C79.2063 67.5144 79.4149 68.0077 79.4149 68.4964V68.9304C79.4149 69.5653 78.9885 69.5653 78.5945 69.3415C78.0939 69.0583 77.8668 68.9212 77.3245 68.5101V67.7976Z" fill="#FE4340"/>
<path d="M79.7021 67.5053C79.7021 66.9024 79.9803 66.7288 80.4855 67.0166L81.1483 67.3957C81.7324 67.7291 81.8946 68.227 81.8946 68.7066V70.3144C81.8946 70.8626 81.6304 71.0498 81.1437 70.7758L80.4809 70.3967C79.9571 70.0998 79.7021 69.6202 79.7021 69.0675V67.5053ZM80.7173 69.7298L80.8888 69.8257C81.0232 69.9033 81.1159 69.9353 81.1159 69.6887V68.4508C81.1159 68.2362 81.0325 68.1357 80.9212 68.0717L80.6894 67.9393C80.4809 67.8205 80.4855 68.0306 80.4855 68.09V69.3233C80.4855 69.5836 80.6292 69.6795 80.7173 69.7298Z" fill="#FE4340"/>
</g>
<path d="M72.499 59.5759L73.3426 60.0555V60.3524L73.0599 60.1926V61.1381L72.7725 60.9736V60.0281L72.499 59.8728V59.5759Z" fill="#BFBEED"/>
<path d="M73.542 60.4986C73.8154 60.6539 73.9128 60.8229 73.9128 61.1792C73.9128 61.5126 73.8247 61.5766 73.542 61.4167C73.2638 61.2568 73.1711 61.0833 73.1711 60.759C73.1758 60.3936 73.2731 60.3433 73.542 60.4986ZM73.542 61.1746C73.6254 61.2203 73.6254 61.2066 73.6254 61.0193C73.6254 60.8229 73.6254 60.7909 73.542 60.7453C73.4539 60.695 73.4585 60.7316 73.4585 60.928C73.4632 61.1015 73.4678 61.1289 73.542 61.1746Z" fill="#BFBEED"/>
<path d="M73.9729 60.8137H74.0841L74.1259 60.5853L74.3715 60.7269V60.9781L74.506 61.0512V61.2796L74.3715 61.2065V61.4897C74.3715 61.6085 74.3901 61.645 74.4272 61.6861C74.4272 61.6861 74.4874 61.7592 74.5013 61.7638V61.9556L74.2788 61.8277C74.1583 61.7592 74.0888 61.6359 74.0888 61.3938V61.0421L73.9775 60.9781V60.8137H73.9729Z" fill="#BFBEED"/>
<path d="M74.5571 61.6725C74.5571 61.5446 74.6081 61.4395 74.8167 61.5537L74.9697 61.6405C74.9697 61.6405 74.9697 61.6314 74.9697 61.6268C74.9697 61.5355 74.9372 61.5218 74.877 61.4852C74.8399 61.4624 74.5849 61.3391 74.5849 61.3391V61.1472C74.6869 61.1518 74.775 61.1883 74.9233 61.2705C75.1319 61.3893 75.257 61.5172 75.257 61.773V62.3759L75.0253 62.2435L74.9697 62.1201C74.9558 62.1475 74.9094 62.1932 74.8028 62.1293C74.6174 62.0151 74.5618 61.8324 74.5618 61.7364V61.6725H74.5571ZM74.9094 61.9511C74.9697 61.9877 74.9697 61.9283 74.9697 61.9283V61.8278L74.8909 61.7913C74.8445 61.7684 74.8445 61.8141 74.8445 61.8415C74.8445 61.9146 74.8816 61.9329 74.9094 61.9511Z" fill="#BFBEED"/>
<path d="M75.345 61.1061L75.6324 61.2705V62.2115C75.6324 62.3302 75.6555 62.3668 75.688 62.4033C75.688 62.4033 75.7482 62.4718 75.7621 62.4809V62.6728L75.5582 62.554C75.4191 62.4718 75.3496 62.3531 75.3496 62.1155V61.1061H75.345Z" fill="#BFBEED"/>
<path d="M76.2166 61.6862L76.6893 61.9556C76.9211 62.0881 77.0138 62.2708 77.0138 62.4809C77.0138 62.586 76.9628 62.7002 76.8562 62.6499C76.9675 62.7322 77.0416 62.892 77.0416 63.0199C77.0416 63.2985 76.9257 63.3305 76.694 63.2026L76.2166 62.9286V61.6862ZM76.6662 62.4033C76.7125 62.4307 76.7311 62.4033 76.7311 62.353C76.7311 62.2799 76.6986 62.2388 76.6662 62.216L76.5039 62.1246V62.3074L76.6662 62.4033ZM76.6801 62.9149C76.7357 62.9468 76.7542 62.9103 76.7542 62.8372C76.7542 62.7733 76.7403 62.7047 76.6801 62.6728L76.5039 62.5723V62.8144L76.6801 62.9149Z" fill="#BFBEED"/>
<path d="M77.0879 63.1113C77.0879 62.9834 77.1389 62.8784 77.3475 62.9926L77.5004 63.0794V63.0657C77.5004 62.9743 77.468 62.9606 77.4077 62.9241C77.3706 62.9012 77.1157 62.7779 77.1157 62.7779V62.5861C77.2177 62.5906 77.3057 62.6272 77.4541 62.7094C77.6627 62.8281 77.7878 62.956 77.7878 63.2118V63.8148L77.556 63.6823L77.5004 63.559C77.4865 63.5864 77.4448 63.6321 77.3336 63.5681C77.1481 63.4539 77.0879 63.2712 77.0879 63.1753V63.1113ZM77.4355 63.39C77.4958 63.4265 77.4958 63.3671 77.4958 63.3671V63.2666L77.417 63.2301C77.3706 63.2073 77.3706 63.2529 77.3706 63.2803V63.2895C77.3753 63.3626 77.4077 63.3717 77.4355 63.39Z" fill="#BFBEED"/>
<path d="M77.8757 62.5449L78.1631 62.7094V63.6503C78.1631 63.7691 78.1863 63.8056 78.2187 63.8421C78.2187 63.8421 78.279 63.9107 78.2929 63.9198V64.1116L78.089 63.9974C77.9499 63.9152 77.8804 63.7965 77.8804 63.5589V62.5449H77.8757Z" fill="#BFBEED"/>
<path d="M78.3394 63.8239C78.3394 63.696 78.3903 63.5863 78.5989 63.7051L78.7519 63.7919V63.7782C78.7519 63.6868 78.7194 63.6731 78.6592 63.6366C78.6221 63.6138 78.3672 63.4904 78.3672 63.4904V63.2986C78.4691 63.2986 78.5572 63.3397 78.7055 63.4219C78.9141 63.5407 79.0393 63.6686 79.0393 63.9244V64.5273L78.8075 64.3948L78.7519 64.2715C78.738 64.2989 78.6963 64.3446 78.585 64.2806C78.3996 64.1664 78.344 63.9837 78.344 63.8924V63.8239H78.3394ZM78.687 64.1025C78.7473 64.139 78.7473 64.0796 78.7473 64.0796V63.9792L78.6685 63.9426C78.6221 63.9198 78.6221 63.9655 78.6221 63.9929V64.002C78.6267 64.0705 78.6592 64.0842 78.687 64.1025Z" fill="#BFBEED"/>
<path d="M79.1274 63.6823L79.3685 63.8193L79.4148 63.9335C79.4658 63.9106 79.5122 63.8832 79.6327 63.9517C79.8366 64.0659 79.8598 64.2304 79.8598 64.4222V64.9977L79.5724 64.8333V64.2486C79.5724 64.1756 79.5539 64.1527 79.5214 64.1345C79.4658 64.1025 79.4287 64.0979 79.4148 64.1345V64.742L79.1274 64.5775V63.6823Z" fill="#BFBEED"/>
<path d="M80.198 64.2852C80.2768 64.3309 80.4298 64.4086 80.5828 64.5639V64.7557C80.5828 64.7557 80.4947 64.6963 80.3603 64.6187C80.2583 64.5593 80.2259 64.5364 80.2259 64.7603C80.2259 64.9658 80.2537 64.9886 80.3603 65.048C80.4947 65.1257 80.592 65.1668 80.592 65.1668V65.3586C80.4808 65.386 80.3232 65.2673 80.198 65.1988C80.0497 65.1165 79.9385 64.943 79.9385 64.5913C79.9385 64.2441 80.0497 64.1984 80.198 64.2852Z" fill="#BFBEED"/>
<path d="M80.9814 64.7328C81.2456 64.8836 81.343 64.9749 81.343 65.2718C81.343 65.4545 81.2503 65.4591 81.1112 65.3814L80.9258 65.2764C80.9258 65.3997 80.9953 65.4134 81.1066 65.4774C81.2132 65.5367 81.2178 65.5413 81.3291 65.587V65.8017C81.2271 65.7971 81.0231 65.6738 80.898 65.6053C80.6987 65.4911 80.6384 65.3084 80.6384 64.9932C80.6384 64.6141 80.7265 64.5867 80.9814 64.7328ZM81.0092 65.1165C81.0324 65.1302 81.051 65.1211 81.051 65.0845C81.051 65.0252 81.051 64.9978 81 64.9704C80.9397 64.9338 80.9212 64.9384 80.9212 65.0663L81.0092 65.1165Z" fill="#BFBEED"/>
<path d="M60.5126 65.2489C60.5126 63.7736 59.4651 61.983 58.1765 61.2522C56.8879 60.5168 55.8403 61.1198 55.8403 62.5951C55.8403 64.0705 56.8879 65.861 58.1765 66.5918C59.4651 67.3226 60.5126 66.7243 60.5126 65.2489Z" fill="#BFBEED"/>
<path d="M68.2441 69.6476C68.2441 68.1722 67.1965 66.3817 65.9079 65.6509C64.6193 64.9155 63.5718 65.5184 63.5718 66.9938C63.5718 68.4691 64.6193 70.2597 65.9079 70.9905C67.1965 71.7213 68.2441 71.123 68.2441 69.6476Z" fill="#BFBEED"/>
<path d="M75.9755 74.0463C75.9755 72.5709 74.9279 70.7804 73.6394 70.0496C72.3508 69.3142 71.3032 69.9171 71.3032 71.3925C71.3032 72.8678 72.3508 74.6583 73.6394 75.3892C74.9279 76.12 75.9755 75.5216 75.9755 74.0463Z" fill="#BFBEED"/>
<path d="M83.7072 78.4448C83.7072 76.9695 82.6596 75.179 81.3711 74.4481C80.0825 73.7127 79.0349 74.3157 79.0349 75.791C79.0349 77.2664 80.0825 79.0569 81.3711 79.7923C82.6596 80.5231 83.7072 79.9202 83.7072 78.4448Z" fill="#BFBEED"/>
</g>
<path d="M24.3162 41.9905L41.6332 32.0741C42.055 31.8321 42.6437 31.8686 43.288 32.234L25.9756 42.1504C25.3266 41.7804 24.7426 41.7439 24.3162 41.9905Z" fill="#FE4340"/>
<path d="M24.3162 41.9904L41.6332 32.074C42.0504 31.8365 42.6252 31.8639 43.2602 32.2156L25.9431 42.132C25.3081 41.7803 24.7333 41.7483 24.3162 41.9904Z" fill="#264653"/>
<path d="M25.9431 42.132L43.2602 32.2156C43.2695 32.2201 43.2787 32.2293 43.2926 32.2338L25.9756 42.1502C25.9617 42.1411 25.9524 42.1365 25.9431 42.132Z" fill="#FE4340"/>
<path d="M90.8637 109.528L73.5466 119.445C76.7681 117.599 78.7751 113.689 78.789 108.144L96.1061 98.2279C96.0922 103.768 94.0852 107.683 90.8637 109.528Z" fill="#E26803"/>
<path d="M78.7942 108.139L96.1112 98.2229C96.0973 103.768 94.0903 107.678 90.8688 109.523L73.5518 119.44C76.7732 117.599 78.7756 113.684 78.7942 108.139Z" fill="#264653"/>
<path d="M78.8864 74.8912L96.2035 64.9749L96.1061 98.2274L78.7937 108.139L78.8864 74.8912Z" fill="#264653"/>
<path d="M25.9756 42.1503L43.288 32.2339L93.8858 61.0193L76.5687 70.9357L25.9756 42.1503Z" fill="#2A9D8F"/>
<path d="M76.5688 70.9357L93.8859 61.0193C95.1699 61.7501 96.2082 63.5224 96.2035 64.9794L78.8864 74.8958C78.8911 73.4342 77.8574 71.6665 76.5688 70.9357Z" fill="#FF7A00"/>
<path d="M76.5688 70.9357L93.8859 61.0193C94.164 61.1792 94.4282 61.3847 94.6785 61.6268L77.3661 71.5432C77.1158 71.3011 76.847 71.091 76.5688 70.9357Z" fill="#2A9D8F"/>
<path d="M77.3616 71.5432L94.674 61.6268C95.5686 62.5038 96.2036 63.8376 96.2036 64.9795L78.8866 74.8959C78.8912 73.7494 78.2562 72.4156 77.3616 71.5432Z" fill="#2A9D8F"/>
<path d="M76.5687 70.9357C77.8527 71.6665 78.8909 73.4388 78.8863 74.8959L78.789 108.144C78.7565 119.303 70.6635 123.847 60.809 118.243L41.4061 107.203C31.5517 101.594 23.5096 87.8726 23.5421 76.7092L23.6394 43.4612C23.6441 42.0042 24.687 41.4195 25.9756 42.1503L76.5687 70.9357Z" fill="#2A9D8F"/>
<path d="M41.8464 41.6708C39.6725 42.9086 36.122 42.9086 33.9481 41.6708C31.7742 40.4329 31.7742 38.414 33.9481 37.1762C36.122 35.9383 39.6725 35.9383 41.8464 37.1762C44.0157 38.4094 44.0157 40.4329 41.8464 41.6708Z" fill="#E5322B"/>
<path d="M84.2353 65.6646C82.0614 66.9025 78.5109 66.9025 76.337 65.6646C74.1631 64.4268 74.1631 62.4079 76.337 61.1701C78.5109 59.9322 82.0614 59.9322 84.2353 61.1701C86.4092 62.4033 86.4092 64.4268 84.2353 65.6646Z" fill="#264653"/>
<path d="M32.7568 17.9598L32.8356 39.1446C32.8402 39.88 33.3316 40.6154 34.3096 41.1727C36.2703 42.2918 39.4408 42.278 41.3922 41.1453C42.3702 40.5789 42.8569 39.8344 42.8523 39.0944L42.7688 17.9187C42.7549 14.2235 43.8071 11.4966 45.6566 10.4323C47.506 9.36807 50.4354 9.8157 53.6894 11.6519L59.2238 14.7716C67.8916 19.659 75.243 32.1059 75.2801 41.9446L75.3589 63.1294C75.3635 63.8648 75.8548 64.6002 76.8375 65.1574C78.0936 65.8746 79.8504 66.1258 81.4634 65.9157C82.3627 65.7969 83.2202 65.5366 83.9201 65.13C84.1843 64.9747 84.4114 64.8149 84.6015 64.6367C85.1252 64.1617 85.3848 63.6181 85.3755 63.0792L85.2967 41.8989C85.2736 35.4585 83.0811 28.2279 79.1227 21.5317C75.1688 14.8401 69.8662 9.39091 64.1927 6.19355L58.6583 3.07383C55.5342 1.31072 52.4193 0.292131 49.4064 0.0454774C46.2128 -0.214879 43.1675 0.424593 40.6042 1.89538C38.0409 3.36616 35.9783 5.65913 34.6294 8.52305C33.3779 11.2408 32.7429 14.4108 32.7568 17.9598Z" fill="#DADAF9"/>
<path d="M42.8987 11.6018C43.4642 11.2775 44.127 11.0947 44.8687 11.0491C43.5152 12.3691 42.7597 14.7991 42.7736 17.9234L42.8524 39.0991C42.857 39.839 42.3749 40.579 41.3923 41.1499C41.0029 41.3783 40.5626 41.5565 40.0898 41.6935L40.0017 19.0882C39.9971 15.3883 41.0493 12.6615 42.8987 11.6018Z" fill="#BFBEED"/>
<path d="M39.9507 3.15615C41.6982 2.66741 43.5754 2.49841 45.5083 2.65371C48.5212 2.90036 51.6314 3.91895 54.7601 5.68207L60.2945 8.80178C65.968 11.9991 71.266 17.4484 75.2245 24.1445C79.1783 30.8362 81.3708 38.0713 81.3939 44.5117L81.4774 65.9249C82.3766 65.8062 83.2341 65.5458 83.934 65.1393C84.1982 64.984 84.4254 64.8241 84.6154 64.646L84.532 43.2191C84.5088 36.7787 82.3163 29.5481 78.3625 22.8519C74.4041 16.1603 69.1014 10.7111 63.4326 7.5137L57.8935 4.39399C54.7694 2.63087 51.6545 1.61228 48.6417 1.36563C45.4944 1.10984 42.4908 1.73104 39.9507 3.15615Z" fill="#F4F4FA"/>
<path d="M44.5442 77.8603C44.535 75.0238 46.5466 73.8681 49.045 75.275C51.5434 76.6818 53.5736 80.1258 53.5875 82.9578C53.5921 84.8259 52.7207 85.9587 51.4089 86.114L51.4414 94.1851L46.7923 91.5632L46.7598 83.4922C45.4388 81.857 44.5489 79.7284 44.5442 77.8603Z" fill="#19121B"/>
<path d="M14.3367 138.628C14.5267 138.204 16.0841 137.793 16.5384 137.646C17.7018 137.267 18.8884 137.19 20.0843 136.975C20.3253 136.929 20.5803 136.893 20.812 136.966C21.4053 137.149 21.6324 138.163 21.498 138.67C21.4007 139.03 21.1226 139.314 20.8027 139.515C20.3253 139.812 19.6764 140.031 19.1109 140.054C18.5083 140.081 17.9428 140.209 17.4237 140.533C16.7516 140.949 16.2603 141.41 15.4306 141.387C14.6009 141.365 13.9658 140.798 14.0215 139.958C14.04 139.656 14.1281 139.359 14.2115 139.072C14.2671 138.88 14.2903 138.734 14.3367 138.628Z" fill="#19121B"/>
<path d="M11.5973 138.628C11.6344 138.574 11.6715 138.523 11.7039 138.464C12.0562 137.893 12.5939 137.582 13.1547 137.217C13.3633 137.08 13.5858 136.938 13.8361 136.925C14.4062 136.888 14.8049 137.541 14.7539 138.099C14.7307 138.359 14.6426 138.606 14.6009 138.866C14.5268 139.355 14.587 140.04 15.0181 140.369C15.5975 140.807 16.4086 141.068 17.039 141.447C17.2847 141.593 17.535 141.753 17.6926 141.995C18.0634 142.557 17.6277 143.479 17.1225 143.808C16.8073 144.014 16.404 144.041 16.0332 143.977C15.477 143.886 14.8466 143.621 14.4062 143.269C13.9381 142.89 13.4282 142.616 12.8256 142.516C11.7874 142.342 10.5127 142.237 10.2299 140.99C10.1511 140.656 10.2531 140.305 10.4246 140.008C10.7352 139.473 11.245 139.113 11.5973 138.628Z" fill="#262028"/>
<path d="M15.4027 112.693C15.8616 113.15 17.5906 112.31 17.6137 112.086C19.6671 110.514 19.4261 116.786 18.8328 119.275C18.5176 120.618 18.601 122.016 18.411 123.382C18.2024 124.903 17.8733 126.405 17.4376 127.881C17.3449 128.2 17.2383 128.529 17.0065 128.767C16.5291 129.265 15.7272 129.219 15.0412 129.105C14.4479 129.009 13.7851 128.844 13.493 128.328C13.3123 128.009 13.3169 127.625 13.3215 127.259C13.3262 126.296 13.3354 125.305 13.1408 124.359C12.9322 123.35 12.7236 122.345 12.5197 121.335C12.3389 120.454 12.1581 119.568 12.0654 118.672C11.9032 117.055 12.0422 115.42 12.2925 113.817C12.4269 112.976 12.1396 111.401 13.354 111.227C14.4479 111.076 15.1015 112.387 15.4027 112.693Z" fill="#19121B"/>
<path d="M17.8501 125.186L18.1885 123.779C18.054 124.24 17.9428 124.711 17.8501 125.186Z" fill="#F7736A"/>
<path d="M17.1966 127.346C16.8443 126.867 15.9729 126.889 15.6809 127.017C15.4538 127.118 13.7851 126.172 13.2938 125.812C13.3308 125.839 13.2659 126.236 13.2613 126.296C13.252 126.46 13.2381 126.629 13.2335 126.798C13.215 127.127 13.201 127.456 13.1871 127.789C13.164 128.433 13.1501 129.082 13.1547 129.726C13.1593 130.384 13.1825 131.041 13.2196 131.699C13.2567 132.288 13.3586 132.878 13.3077 133.462C13.2845 133.759 13.3633 134.084 13.4004 134.38C13.4421 134.714 13.4838 135.047 13.5255 135.385C13.6089 136.052 13.697 136.724 13.7804 137.391C13.7944 137.486 13.8036 137.578 13.8175 137.669C13.8824 138.181 13.9056 139.007 14.3042 139.387C14.7121 139.779 15.4028 139.921 15.9497 139.825C16.4132 139.743 16.8397 139.496 17.141 139.14C17.484 138.738 17.4376 138.135 17.4423 137.633C17.4562 135.522 17.3078 133.412 17.3078 131.302C17.3078 129.676 17.3959 128.036 17.7065 126.442L17.1966 127.346Z" fill="#19121B"/>
<path d="M18.5779 113.132C18.7726 113.031 19.783 112.533 19.7784 112.264C19.7738 112.081 20.2697 111.93 20.3995 111.935C20.6313 111.94 20.863 112.086 21.0531 112.218C21.512 112.542 21.855 113.04 22.0636 113.575C22.3509 114.306 22.4205 115.114 22.4668 115.904C22.6012 118.261 22.5363 120.632 22.2814 122.984C22.1516 124.172 21.9755 125.35 21.7484 126.519C21.6371 127.104 21.512 127.689 21.3729 128.264C21.2431 128.822 21.1226 128.995 20.6498 129.287C19.6301 129.918 17.7992 129.836 17.0715 128.698C16.2881 127.479 16.6126 125.574 16.3623 124.199C16.0007 122.203 14.6519 120.737 14.0308 118.841C13.5765 117.448 13.6368 116.137 13.8778 114.717C13.989 114.045 14.2023 112.442 14.8929 112.049C15.0783 111.944 16.3252 111.665 17.3357 112.652C17.9197 113.228 17.8502 113.502 18.5779 113.132Z" fill="#262028"/>
<path d="M11.7363 106.362C11.727 106.015 11.7039 105.668 11.639 105.307C11.3423 103.631 10.8325 101.996 10.6192 100.306C10.4524 98.9948 10.3319 97.3596 11.3887 96.3456C11.5602 96.1811 11.7595 96.0441 11.9681 95.9254C14.0215 94.7834 15.9822 96.172 17.9058 96.8572C19.1712 97.3048 20.381 97.894 21.5119 98.6066C21.9059 98.8532 22.3092 99.0268 22.5734 99.4105C22.9025 99.8947 22.8654 100.242 22.8144 100.79C22.7542 101.429 22.6985 102.073 22.6522 102.713C22.5595 103.996 22.49 105.284 22.4529 106.573C22.3741 109.149 22.4019 111.725 22.5363 114.296C22.578 115.11 22.6846 115.927 22.6939 116.74C22.7032 117.32 22.3046 117.594 21.753 117.736C20.2048 118.138 18.411 118.266 16.8165 118.234C15.1571 118.202 13.4699 117.846 12.0793 116.959C11.7224 116.731 11.8985 116.37 11.9264 115.991C11.9634 115.53 11.9959 115.073 12.0144 114.612C12.0515 113.716 12.0561 112.821 12.0191 111.921C11.9913 111.245 11.8337 110.597 11.8012 109.939C11.7641 109.144 11.7873 108.345 11.7549 107.55C11.741 107.144 11.7456 106.751 11.7363 106.362Z" fill="#35353F"/>
<path d="M20.3532 130.091C19.7923 130.959 19.2407 131.827 18.6984 132.704C18.2674 133.398 17.8409 134.093 17.4238 134.792C17.1039 135.331 16.7841 135.87 16.4735 136.413C16.0703 137.112 15.6716 137.815 15.2591 138.501C14.9532 139.012 14.7214 139.743 14.1189 139.999C13.5858 140.223 12.7839 139.857 12.3575 139.56C12.0238 139.327 11.3887 138.875 11.2404 138.487C11.0874 138.094 11.3238 137.496 11.4583 137.126C11.8152 136.153 12.2694 135.216 12.7422 134.294C13.5348 132.741 14.3784 131.211 15.2684 129.708C16.1166 128.274 16.7934 126.789 17.5628 125.314C17.6462 125.154 17.8409 125.035 18.0171 125.021C18.2442 124.999 21.0485 128.246 21.1922 128.803C21.1829 128.799 21.0438 129.023 20.3532 130.091Z" fill="#262028"/>
<path d="M18.4203 95.2128C18.4945 94.7103 18.8792 94.8291 18.6845 94.3723C18.5176 93.9886 18.2673 93.6323 17.9336 93.3766C17.5999 93.1208 17.1734 92.97 16.7516 92.9929C16.6033 93.002 16.506 93.0842 16.3623 93.0842C15.9636 93.0842 15.5604 93.0111 15.1617 93.066C14.7631 93.1208 14.3969 93.1527 14.3969 93.5912C14.3969 94.1805 14.4248 94.7469 14.2347 95.3269C14.1327 95.6375 13.9798 95.9345 13.952 96.2588C13.8963 96.8982 14.3691 97.492 14.9578 97.7706C15.6763 98.1132 16.4874 98.0812 17.2522 97.9716C17.6369 97.9168 18.1746 97.8392 18.4017 97.4829C18.5733 97.2134 18.4991 96.8571 18.462 96.5602C18.3971 96.108 18.3508 95.665 18.4203 95.2128Z" fill="#F9D5C3"/>
<path d="M16.3485 88.6765L18.0126 87.7218C17.8318 87.6214 17.6696 87.6122 17.5537 87.6762L15.885 88.6308C16.0102 88.5669 16.1724 88.576 16.3485 88.6765Z" fill="#7F89A6"/>
<path d="M20.1355 88.8044C20.3765 89.0921 20.5665 89.421 20.6222 89.8047C20.7519 90.6588 20.4043 91.5313 20.5897 92.3763C20.7705 93.1939 20.4136 95.0529 18.7773 95.5325C17.9476 95.7746 16.3114 95.4914 15.7876 95.2448C15.0831 94.9113 14.6149 94.2353 14.1978 93.5821C10.777 88.2243 17.8132 86.0227 20.1355 88.8044Z" fill="#F9D5C3"/>
<path d="M12.6589 91.1796C12.7655 92.0566 12.9601 92.9199 13.0436 93.7968C13.1873 95.2768 13.025 96.8161 13.5581 98.2046C13.8686 99.0131 14.4156 99.7302 15.1109 100.26C15.1109 100.329 15.6995 100.799 15.7644 100.858C16.0704 101.133 16.3716 101.411 16.6776 101.685C16.7564 101.758 16.8491 101.836 16.9603 101.836C17.0716 101.836 17.1689 101.754 17.2477 101.671C18.0496 100.868 18.6243 99.8581 19.0461 98.8076C19.0461 98.7528 19.1018 98.6614 19.1249 98.6066C19.1481 98.5381 19.1759 98.4741 19.1991 98.4056C19.2501 98.2686 19.2964 98.1315 19.3428 97.99C19.5792 97.2774 19.7692 96.5466 19.95 95.8203C20.1354 95.0758 20.3672 94.3358 20.5758 93.5959C20.6314 93.404 20.687 93.2122 20.7055 93.0112C20.7148 92.9016 20.7148 92.7874 20.6963 92.6778C20.687 92.623 20.6731 92.5681 20.6546 92.5179C20.6407 92.4859 20.6128 92.4448 20.6268 92.4128C20.4367 92.527 20.2513 92.6504 20.0659 92.7737C19.7229 92.9975 19.213 92.9427 18.9303 92.6458C18.1701 91.8556 19.1991 91.0014 19.9871 90.9284C20.2559 90.9055 20.5572 90.9146 20.7519 90.7319C20.8956 90.5995 20.9419 90.3894 20.9651 90.1975C21.1134 88.9323 20.7195 87.868 19.7785 87.0139C19.4819 86.7444 19.1574 86.5023 18.7866 86.347C18.4621 86.21 18.1098 86.1414 17.7622 86.0912C15.8571 85.8263 13.6183 86.4201 12.8813 88.3705C12.5569 89.2246 12.5522 90.1656 12.6542 91.0745C12.6496 91.1156 12.6542 91.1476 12.6589 91.1796Z" fill="#35353F"/>
<path d="M20.214 97.8575C19.5141 98.127 18.879 98.4787 18.6473 99.2049C18.4294 99.8764 18.4109 100.562 18.7724 101.192C19.1479 101.85 19.8756 102.297 20.6404 102.347C21.3542 102.393 22.0402 102.11 22.6984 101.836C24.5432 101.064 26.3927 100.42 28.0845 99.342C28.7891 98.8898 29.5029 98.296 29.6605 97.4829C29.7671 96.9302 29.5817 96.3365 29.1831 95.9345C28.2143 94.9662 27.3846 95.6102 27.2224 95.665C22.0495 97.3642 20.1027 97.8986 20.214 97.8575Z" fill="#35353F"/>
<path d="M43.9927 81.3728L45.7309 80.3771L45.717 86.0364L43.9741 87.0321L43.9927 81.3728Z" fill="#FFD15B"/>
<path d="M42.4546 80.5004L44.1928 79.5046L45.7317 80.3771L43.9935 81.3728L42.4546 80.5004Z" fill="#F7B637"/>
<path d="M43.9927 81.3728L43.9742 87.0321L42.4399 86.1597L42.4538 80.5004L43.9927 81.3728Z" fill="#CB8B2B"/>
<path d="M41.332 84.7025L43.0702 83.7068L43.0563 89.3661L41.3135 90.3619L41.332 84.7025Z" fill="#FFD15B"/>
<path d="M39.7939 83.8256L41.5321 82.8298L43.071 83.7068L41.3328 84.7026L39.7939 83.8256Z" fill="#F7B637"/>
<path d="M41.3321 84.7026L41.3135 90.3619L39.7793 89.4849L39.7932 83.8256L41.3321 84.7026Z" fill="#CB8B2B"/>
<path d="M44.9337 80.2903L11.2405 99.5841C11.5186 99.4242 11.8987 99.447 12.3205 99.6891L46.0137 80.3953C45.5873 80.1532 45.2072 80.1304 44.9337 80.2903Z" fill="#CB8B2B"/>
<path d="M12.3159 99.6891L46.0091 80.3953C46.0045 80.3953 46.0045 80.3907 45.9999 80.3907L12.3066 99.6845C12.3113 99.6845 12.3113 99.6891 12.3159 99.6891Z" fill="#CB8B2B"/>
<path d="M12.3066 99.6849L46.0044 80.3911C45.5873 80.1536 45.2072 80.1353 44.9337 80.2906L11.2405 99.5844C11.5093 99.4291 11.8894 99.452 12.3066 99.6849Z" fill="#CB8B2B"/>
<path d="M13.3864 103.229L47.0796 83.9352C47.3531 83.7799 47.52 83.4465 47.52 82.976C47.5246 82.026 46.8479 80.8704 46.0089 80.3907L12.3157 99.6845C13.1546 100.16 13.8314 101.32 13.8267 102.265C13.8267 102.745 13.6599 103.074 13.3864 103.229Z" fill="#FFD15B"/>
<path d="M13.3865 103.229L47.0797 83.9352C47.2419 83.8439 47.3624 83.6886 47.4412 83.483L13.748 102.777C13.6692 102.987 13.5487 103.138 13.3865 103.229Z" fill="#FFD15B"/>
<path d="M13.748 102.781L47.4413 83.4877C47.4923 83.3461 47.5247 83.1725 47.5247 82.9807C47.5247 82.9715 47.5247 82.9624 47.5247 82.9532L13.8315 102.247C13.8315 102.256 13.8315 102.265 13.8315 102.274C13.8268 102.466 13.799 102.635 13.748 102.781Z" fill="#FFD15B"/>
<path d="M13.8268 102.242L47.52 82.9487C47.5154 82.7112 47.4737 82.4554 47.3902 82.2087L13.697 101.503C13.7805 101.754 13.8268 102.005 13.8268 102.242Z" fill="#FFD15B"/>
<path d="M13.7016 101.503L47.3948 82.2087C47.2928 81.889 47.1352 81.5738 46.9405 81.2906L13.2473 100.584C13.442 100.868 13.5996 101.183 13.7016 101.503Z" fill="#CB8B2B"/>
<path d="M13.2472 100.584L46.9404 81.2906C46.8107 81.1033 46.667 80.9297 46.5094 80.7744L12.8162 100.068C12.9738 100.224 13.1174 100.397 13.2472 100.584Z" fill="#F7B637"/>
<path d="M12.8163 100.069L46.5095 80.7749C46.3519 80.6241 46.185 80.4917 46.0089 80.3958L12.3157 99.6895C12.4918 99.79 12.6587 99.9179 12.8163 100.069Z" fill="#F7B637"/>
<path d="M12.3158 99.6891C11.4768 99.2141 10.7954 99.5977 10.7954 100.543C10.7908 101.489 11.4722 102.649 12.3065 103.124C13.1455 103.599 13.8268 103.22 13.8315 102.27C13.8315 101.324 13.1547 100.164 12.3158 99.6891Z" fill="#8A781E"/>
<path d="M7.23564 108.505L4.26911 106.806C4.57504 106.979 4.76508 107.354 4.76508 107.884C4.76972 108.952 4.00491 110.25 3.06396 110.789L6.03049 112.488C6.97143 111.953 7.73624 110.652 7.7316 109.583C7.7316 109.053 7.54156 108.678 7.23564 108.505Z" fill="#F7B637"/>
<path d="M7.23559 108.505L4.26906 106.806C4.57498 106.979 4.76503 107.354 4.76503 107.884C4.76966 108.719 4.30151 109.701 3.64331 110.345L6.60983 112.045C7.26803 111.401 7.73619 110.423 7.73155 109.583C7.73155 109.053 7.54151 108.678 7.23559 108.505Z" fill="#F7B637"/>
<path d="M6.60989 112.04L3.64336 110.341C3.46259 110.519 3.26791 110.67 3.06396 110.784L6.03049 112.483C6.23444 112.369 6.42911 112.218 6.60989 112.04Z" fill="#CB8B2B"/>
<path d="M1.84937 110.907L4.81589 112.606C5.12645 112.785 5.55752 112.757 6.03031 112.488L3.06379 110.788C2.591 111.058 2.15992 111.085 1.84937 110.907Z" fill="#F7B637"/>
<path d="M6.03023 112.488L3.0637 110.788C3.05443 110.793 3.0498 110.798 3.04053 110.802L6.00705 112.501C6.01632 112.497 6.02096 112.492 6.03023 112.488Z" fill="#CB8B2B"/>
<path d="M6.00713 112.497L3.04061 110.798C2.57246 111.058 2.15065 111.077 1.84937 110.903L4.81589 112.602C5.12181 112.78 5.54361 112.758 6.00713 112.497Z" fill="#CB8B2B"/>
<path d="M14.0121 95.4183L11.0456 93.7192C10.2669 93.2807 9.8312 93.034 9.04785 92.6001L12.0144 94.2993C12.7977 94.7378 13.2334 94.9798 14.0121 95.4183Z" fill="#F7B637"/>
<path d="M14.0121 95.4183L11.0456 93.7192C10.2669 93.2807 9.8312 93.034 9.04785 92.6001L12.0144 94.2993C12.7977 94.7378 13.2334 94.9798 14.0121 95.4183Z" fill="#F7B637"/>
<path d="M2.96652 101.703L0 100.004L0.0324464 111.675L2.99897 113.374L2.96652 101.703Z" fill="#CB8B2B"/>
<path d="M12.0144 94.2993L9.05256 92.6001L1.98389 96.6196L4.95041 98.3188L12.0144 94.2993Z" fill="#F7B637"/>
<path d="M4.95039 98.3188L1.98386 96.6196C1.20979 97.9442 0.774077 98.6842 0 100.004L2.96652 101.703C3.7406 100.383 4.17631 99.6434 4.95039 98.3188Z" fill="#F7B637"/>
<path d="M4.95039 98.3188L1.98386 96.6196C1.20979 97.9442 0.774077 98.6842 0 100.004L2.96652 101.703C3.7406 100.383 4.17631 99.6434 4.95039 98.3188Z" fill="#CB8B2B"/>
<path d="M12.0145 94.2992C12.7932 94.7377 13.2289 94.9843 14.0122 95.4183L14.0447 107.089L12.0608 110.478L4.99213 114.497L2.99436 113.374L2.96655 101.703C3.74063 100.379 4.17634 99.6388 4.95042 98.3187L12.0145 94.2992ZM6.03042 112.488C6.97136 111.953 7.73617 110.651 7.73153 109.583C7.7269 108.514 6.96209 108.084 6.02115 108.619C5.07557 109.158 4.31539 110.455 4.32003 111.524C4.32003 112.593 5.08484 113.022 6.03042 112.488Z" fill="#FFD15B"/>
<path d="M45.7218 79.2168L43.8584 78.1479L42.5837 78.8742L44.4517 79.943L45.7218 79.2168Z" fill="#F7B637"/>
<path d="M43.5662 77.3715L41.6982 76.3073L41.7029 77.134L43.5662 78.2028V77.3715Z" fill="#CB8B2B"/>
<path d="M44.4423 76.8736L42.5789 75.8048L41.6982 76.3072L43.5662 77.3715L44.4423 76.8736Z" fill="#F7B637"/>
<path d="M43.5662 78.2029L41.7029 77.134L40.697 77.705L42.5604 78.7738L43.5662 78.2029Z" fill="#F7B637"/>
<path d="M40.5813 79.902L38.7134 78.8331L37.7075 79.4087L39.5709 80.4775L40.5813 79.902Z" fill="#F7B637"/>
<path d="M42.5557 77.2939L40.6924 76.2296L38.7085 77.3578L40.5765 78.4221L42.5557 77.2939Z" fill="#F7B637"/>
<path d="M40.5765 78.4221L38.7085 77.3578L38.7131 78.8331L40.5811 79.902L40.5765 78.4221Z" fill="#CB8B2B"/>
<path d="M39.5707 79.6462L37.7074 78.5774L36.8962 79.0387L38.7596 80.1076L39.5707 79.6462Z" fill="#F7B637"/>
<path d="M40.5765 78.4221L40.5812 79.902L39.5707 80.4775V79.6462L38.7595 80.1076L38.7781 85.9359L45.7309 81.9803L45.7216 79.2169L44.4515 79.9431L44.4423 76.8737L43.5662 77.3715V78.2028L42.5604 78.7738L42.5557 77.2939L40.5765 78.4221Z" fill="#FFD15B"/>
<path d="M38.7596 80.1075L36.8962 79.0387L36.9101 84.8716L38.7781 85.9359L38.7596 80.1075Z" fill="#CB8B2B"/>
<path d="M34.5183 82.6243L36.2565 81.6285L36.2426 87.2879L34.4998 88.2836L34.5183 82.6243Z" fill="#FFD15B"/>
<path d="M32.9802 81.7518L34.7184 80.7561L36.2573 81.6285L34.5191 82.6243L32.9802 81.7518Z" fill="#F7B637"/>
<path d="M34.5184 82.6243L34.4998 88.2836L32.9656 87.4112L32.9795 81.7518L34.5184 82.6243Z" fill="#CB8B2B"/>
<path d="M32.7524 89.1149C32.655 89.2063 32.4511 89.3068 32.3908 89.1286C32.2935 88.8317 32.3955 88.4846 32.261 88.2014C32.2147 88.1009 32.1127 88.005 32.0015 88.0278C31.8717 88.0552 31.8253 88.2151 31.8114 88.3476C31.7743 88.6627 31.7465 88.987 31.6353 89.2839C31.5519 89.5077 31.4267 89.7133 31.3155 89.9234C31.181 90.1792 31.0698 90.4624 31.0513 90.7501C31.0327 91.0973 30.9678 91.4399 30.8519 91.7687C30.7824 91.9651 30.6943 92.1707 30.7407 92.3762C30.7871 92.5909 30.9725 92.7462 31.1532 92.8695C31.3016 92.9746 31.4638 93.0705 31.6446 93.0705C31.8068 93.0659 31.9551 92.9837 32.0664 92.8741C32.1776 92.7645 32.261 92.6229 32.3445 92.4904C32.516 92.2027 32.6782 91.9012 32.8636 91.6226C33.049 91.3485 33.2762 91.1064 33.4801 90.8461C33.7953 90.4487 34.1244 89.9188 33.9761 89.3981C33.888 89.0875 33.7304 88.7998 33.5265 88.5485C33.3457 88.3247 33.1649 88.0872 32.8543 88.0552C32.7755 88.0461 32.6828 88.0644 32.6504 88.1329C32.618 88.206 32.6736 88.2836 32.7199 88.3476C32.8775 88.5714 32.9656 88.9002 32.7524 89.1149Z" fill="#19121B"/>
<path d="M32.0709 91.2571C32.0941 91.2708 32.1219 91.2845 32.1451 91.2983C32.3583 91.4216 32.5715 91.586 32.6411 91.8235C32.7106 92.0565 32.6225 92.2894 32.5252 92.4995C32.4232 92.7142 32.349 92.9426 32.2517 93.1619C32.0385 93.6323 31.8206 94.0982 31.6028 94.5641C31.4591 94.8702 31.3154 95.1762 31.1624 95.4777C30.7128 96.3592 30.1798 97.1905 29.5726 97.9625C29.3362 98.2594 28.9561 98.7618 28.5899 98.908C28.2283 99.0496 27.8575 98.8897 27.5238 98.6567C26.9305 98.2457 26.4762 97.6108 26.555 96.8936C26.6385 96.1719 27.0649 95.6375 27.4635 95.0894C27.9224 94.4636 28.3999 93.8516 28.8958 93.2578C29.1461 92.9609 29.3964 92.6685 29.656 92.3762C29.897 92.1067 30.1241 91.819 30.3698 91.5586C30.4996 91.4216 30.6294 91.2891 30.7638 91.1521C30.8426 91.0699 30.9353 90.9694 31.0419 90.9237C31.1485 90.878 31.2551 90.9237 31.3617 90.9557C31.6028 91.0288 31.8438 91.1292 32.0709 91.2571Z" fill="#35353F"/>
<path d="M59.553 46.654L60.4661 46.1333L60.4383 57.6392L59.5298 58.1599L59.553 46.654Z" fill="#E5E3E8"/>
<path d="M17.8501 22.925L18.7586 22.4043L60.4661 46.1333L59.5529 46.654L17.8501 22.925Z" fill="#E5E3E8"/>
<path d="M59.5529 46.654L59.5297 58.16L17.8223 34.431L17.8501 22.925L59.5529 46.654Z" fill="#F9F7FC"/>
<path d="M24.191 32.412L22.6243 31.5213C23.5328 31.7999 24.2141 31.2564 24.2141 30.1464C24.2141 28.8538 23.2917 27.2825 22.1561 26.6385C21.0205 25.9944 20.0981 26.5151 20.0981 27.8078C20.0981 28.9177 20.7748 30.2286 21.688 30.9914L20.1213 30.1007C19.5233 29.7627 19.0366 30.0368 19.0366 30.7174V33.627L25.2802 37.1806V34.271C25.2802 33.5859 24.7889 32.7546 24.191 32.412Z" fill="#2E2823"/>
<path d="M46.1111 60.6859L47.0242 60.1652L46.9964 71.6711L46.0879 72.1918L46.1111 60.6859Z" fill="#E5E3E8"/>
<path d="M4.4082 36.9614L5.3167 36.4362L47.0242 60.1651L46.111 60.6859L4.4082 36.9614Z" fill="#E5E3E8"/>
<path d="M46.111 60.6858L46.0878 72.1918L4.38037 48.4628L4.40818 36.9614L46.111 60.6858Z" fill="#F9F7FC"/>
<path d="M7.05957 43.1917L8.77922 43.9042L8.83948 45.2654L7.05493 44.1829V43.1917H7.05957ZM7.96343 44.836L9.08978 45.8135L8.48257 47.3711L7.65287 46.6037L7.96343 44.836ZM9.48841 43.0546L10.2439 45.2608L9.15467 45.1192L8.65871 42.8948L9.48841 43.0546ZM9.52549 45.9734L10.9346 48.0288L10.4154 48.5221L8.8951 46.727L9.52549 45.9734ZM11.0366 45.2288L11.5418 46.3205L10.2903 46.9737L9.55794 45.5303L11.0366 45.2288Z" fill="#2E2823"/>
<path d="M12.2371 46.1378L13.9567 46.8503L14.017 48.2115L12.2324 47.1244V46.1378H12.2371ZM13.1409 47.7776L14.2673 48.755L13.6601 50.3126L12.8304 49.5452L13.1409 47.7776ZM14.6613 45.9962L15.4168 48.2024L14.3275 48.0608L13.8316 45.8363L14.6613 45.9962ZM14.6983 48.9195L16.1074 50.9749L15.5883 51.4682L14.0633 49.6731L14.6983 48.9195ZM16.2094 48.1749L16.7147 49.2666L15.4632 49.9198L14.7308 48.4764L16.2094 48.1749Z" fill="#2E2823"/>
<path d="M17.4099 49.0794L19.1296 49.7919L19.1898 51.1531L17.4053 50.0706V49.0794H17.4099ZM18.3138 50.7237L19.4401 51.7012L18.8329 53.2588L18.0032 52.4914L18.3138 50.7237ZM19.8387 48.9423L20.5943 51.1485L19.505 51.0069L19.009 48.7825L19.8387 48.9423ZM19.8758 51.8656L21.2849 53.9211L20.7658 54.4144L19.2408 52.6193L19.8758 51.8656ZM21.3869 51.1165L21.8921 52.2082L20.6406 52.8614L19.9083 51.418L21.3869 51.1165Z" fill="#2E2823"/>
<path d="M22.5874 52.0255L24.3071 52.738L24.3673 54.0992L22.5828 53.0166V52.0255H22.5874ZM23.4913 53.6653L24.6176 54.6427L24.0104 56.2003L23.1807 55.4329L23.4913 53.6653ZM25.0116 51.8839L25.7671 54.09L24.6779 53.9484L24.1819 51.724L25.0116 51.8839ZM25.0487 54.8072L26.4578 56.8626L25.9386 57.3559L24.4137 55.5608L25.0487 54.8072ZM26.5598 54.0626L27.065 55.1543L25.8135 55.8075L25.0811 54.3641L26.5598 54.0626Z" fill="#2E2823"/>
<path d="M27.7602 54.9716L29.4799 55.6842L29.5402 57.0453L27.7556 55.9628V54.9716H27.7602ZM28.6641 56.6114L29.7905 57.5889L29.1833 59.1465L28.3536 58.3791L28.6641 56.6114ZM30.1891 54.83L30.9446 57.0362L29.8554 56.8946L29.3594 54.6702L30.1891 54.83ZM30.2262 57.7533L31.6353 59.8088L31.1161 60.3021L29.5912 58.507L30.2262 57.7533ZM31.7326 57.0042L32.2378 58.0959L30.9863 58.7491L30.254 57.3057L31.7326 57.0042Z" fill="#2E2823"/>
<path d="M32.9377 57.9133L34.6574 58.6258L34.7177 59.987L32.9331 58.9045V57.9133H32.9377ZM33.8416 59.5531L34.968 60.5306L34.3607 62.0881L33.531 61.3208L33.8416 59.5531ZM35.3619 57.7717L36.1175 59.9779L35.0282 59.8363L34.5322 57.6118L35.3619 57.7717ZM35.399 60.695L36.8081 62.7504L36.289 63.2437L34.764 61.4487L35.399 60.695ZM36.9101 59.9505L37.4153 61.0421L36.1638 61.6953L35.4361 60.2519L36.9101 59.9505Z" fill="#2E2823"/>
</g>
<defs>
<clipPath id="clip0_189_4674">
<rect width="135" height="144" fill="white"/>
</clipPath>
</defs>
</svg>
