<svg width="40" height="40" viewBox="0 0 40 40" fill="none" xmlns="http://www.w3.org/2000/svg">
<g clip-path="url(#clip0_189_5101)">
<path d="M31.7663 20.2764C31.7663 19.4607 31.7001 18.6406 31.559 17.8381H20.2402V22.4591H26.722C26.453 23.9494 25.5888 25.2678 24.3233 26.1056V29.1039H28.1903C30.4611 27.0139 31.7663 23.9274 31.7663 20.2764Z" fill="#4285F4"/>
<path d="M20.2401 32.0008C23.4766 32.0008 26.2059 30.9382 28.1945 29.1039L24.3276 26.1055C23.2517 26.8375 21.8627 27.252 20.2445 27.252C17.1139 27.252 14.4595 25.1399 13.507 22.3003H9.5166V25.3912C11.5537 29.4434 15.7029 32.0008 20.2401 32.0008Z" fill="#34A853"/>
<path d="M13.5028 22.3003C13.0001 20.8099 13.0001 19.1961 13.5028 17.7057V14.6148H9.51674C7.81473 18.0056 7.81473 22.0004 9.51674 25.3912L13.5028 22.3003Z" fill="#FBBC04"/>
<path d="M20.2401 12.7497C21.9509 12.7232 23.6044 13.367 24.8434 14.5487L28.2695 11.1226C26.1001 9.0855 23.2208 7.96553 20.2401 8.00081C15.7029 8.00081 11.5537 10.5582 9.5166 14.6148L13.5026 17.7058C14.4506 14.8617 17.1095 12.7497 20.2401 12.7497Z" fill="#EA4335"/>
</g>
<rect x="0.5" y="0.5" width="39" height="39" rx="7.5" stroke="#E9F1F4"/>
<defs>
<clipPath id="clip0_189_5101">
<rect width="24" height="24" fill="white" transform="translate(8 8)"/>
</clipPath>
</defs>
</svg>
