<svg width="122" height="125" viewBox="0 0 122 125" fill="none" xmlns="http://www.w3.org/2000/svg">
<g clip-path="url(#clip0_189_5086)">
<path fill-rule="evenodd" clip-rule="evenodd" d="M118.822 28.0091H88.7454C88.7454 21.943 86.8286 16.3218 83.5734 11.7319C78.5363 4.63159 70.2963 0 60.9988 0C51.6929 0 43.4557 4.62881 38.4241 11.7319C35.1689 16.319 33.2548 21.9403 33.2521 28.0091H3.17826C1.44874 28.0091 -0.198156 29.4576 0.0194107 31.1979L7.00083 87.3691C7.03113 87.3524 7.06417 87.3357 7.09447 87.319C15.1913 83.1044 19.0056 79.4153 24.6403 68.2672L33.3733 50.9919L33.6349 42.8436C34.5465 38.2342 39.3908 37.1111 42.5166 41.4813C45.0998 41.7983 48.0108 44.5672 49.1262 50.3747C49.6219 52.9519 49.3933 56.3491 48.826 59.46C54.838 57.2165 60.9161 55.2955 67.0796 53.8192C70.4808 53.0075 72.987 55.7653 73.5929 59.0291C78.0681 60.3385 79.9739 68.0782 75.8043 71.2892C79.5911 71.4087 81.6566 82.7875 75.562 84.8976C79.6792 84.6502 80.6817 95.8899 74.722 97.7415C77.7734 104.928 74.2841 107.322 64.9315 110.435C64.8516 110.463 64.769 110.488 64.6864 110.516C64.5459 110.563 64.4027 110.61 64.2568 110.658C64.232 110.666 64.2072 110.672 64.1824 110.68C64.0089 110.735 63.8326 110.791 63.6509 110.849C63.1083 111.022 62.5327 111.197 61.9213 111.38C61.7203 111.442 61.511 111.503 61.3017 111.564C61.0373 111.642 60.7702 111.72 60.4948 111.797C60.3571 111.839 60.2166 111.878 60.0734 111.92C59.4455 112.1 58.7873 112.287 58.107 112.473C57.9115 112.529 57.716 112.581 57.5149 112.637C56.7713 112.843 56.0002 113.051 55.2043 113.263C54.9399 113.332 54.6728 113.404 54.4001 113.477C54.1275 113.549 53.8521 113.621 53.5767 113.693C53.2985 113.766 53.0204 113.838 52.7367 113.913C52.7147 113.919 52.6927 113.924 52.6679 113.93C52.4255 113.994 52.1804 114.058 51.9325 114.122C51.4368 114.249 50.9356 114.38 50.4261 114.508C50.0295 114.611 49.6302 114.711 49.2254 114.814C48.4708 115.006 47.6996 115.197 46.9175 115.392C46.609 115.47 46.2978 115.548 45.9839 115.626C44.7804 115.923 43.5493 116.223 42.2907 116.529C42.0484 116.588 41.806 116.646 41.5637 116.704C40.0793 117.063 38.5618 117.424 37.0168 117.791C36.1273 118 35.2267 118.211 34.3179 118.425C32.8996 118.756 31.4647 119.09 30.0161 119.42C29.6553 119.507 29.2918 119.59 28.9283 119.671C28.8622 119.687 28.7961 119.701 28.7272 119.718C28.0993 119.862 27.4714 120.004 26.8407 120.149C26.4139 120.246 25.987 120.343 25.5601 120.438C24.8523 120.599 24.1418 120.76 23.4313 120.919C22.6932 121.086 21.9524 121.252 21.2143 121.416C20.8425 121.5 20.4707 121.581 20.0989 121.667C19.4875 121.803 18.8761 121.936 18.2647 122.073C17.9453 122.142 17.6286 122.212 17.3091 122.284C16.392 122.487 15.4749 122.687 14.5578 122.887C14.522 122.893 14.4835 122.901 14.4477 122.912H107.817C109.555 122.912 110.761 121.453 110.979 119.721L121.981 31.1979C122.196 29.4659 120.546 28.0091 118.822 28.0091ZM41.1533 28.0091C41.1533 21.3008 44.4141 15.3654 49.4264 11.7319C52.6844 9.36603 56.6805 7.976 60.9988 7.976C65.3253 7.976 69.3241 9.36603 72.5821 11.7319C77.5917 15.3654 80.8469 21.2981 80.8469 28.0091H41.1533Z" fill="#2A9D8F"/>
<path d="M74.7221 97.7415C77.7735 104.928 74.2842 107.322 64.9316 110.435C64.8517 110.463 64.7691 110.488 64.6865 110.516C64.546 110.563 64.4028 110.61 64.2568 110.658C64.2321 110.666 64.2073 110.672 64.1825 110.68C64.009 110.735 63.8327 110.791 63.651 110.849C63.1084 111.022 62.5328 111.197 61.9214 111.38C61.7204 111.442 61.5111 111.503 61.3018 111.564C61.0374 111.642 60.7703 111.72 60.4949 111.797C60.3572 111.839 60.2167 111.878 60.0735 111.92C59.4456 112.101 58.7874 112.287 58.1071 112.473C57.9116 112.529 57.7161 112.581 57.515 112.637C56.7714 112.843 56.0003 113.051 55.2044 113.263C54.94 113.332 54.6729 113.404 54.4002 113.477C54.1276 113.549 53.8522 113.621 53.5768 113.693C53.2986 113.766 53.0205 113.838 52.7368 113.913C52.7148 113.919 52.6927 113.924 52.668 113.93C52.4256 113.994 52.1805 114.058 51.9326 114.122C51.4369 114.249 50.9357 114.38 50.4262 114.508C50.0296 114.611 49.6303 114.711 49.2254 114.814C48.4708 115.006 47.6997 115.198 46.9176 115.392C46.6091 115.47 46.2979 115.548 45.984 115.626C44.7805 115.923 43.5494 116.223 42.2908 116.529C42.0485 116.588 41.8061 116.646 41.5638 116.704C40.0794 117.063 38.5619 117.424 37.0169 117.791C36.1274 118 35.2268 118.211 34.318 118.425C32.8997 118.756 31.4648 119.09 30.0162 119.42C29.6554 119.507 29.2919 119.59 28.9284 119.671C28.8623 119.687 28.7962 119.701 28.7273 119.718C28.0994 119.862 27.4715 120.004 26.8408 120.149C26.414 120.246 25.9871 120.343 25.5602 120.438C24.8524 120.599 24.1419 120.76 23.4314 120.919C22.6933 121.086 21.9525 121.252 21.2144 121.416C20.8426 121.5 20.4708 121.581 20.099 121.667C19.4876 121.803 18.8762 121.936 18.2648 122.073C17.9454 122.142 17.6287 122.212 17.3092 122.284C16.3921 122.487 15.475 122.687 14.5579 122.887C14.5221 122.893 14.4836 122.901 14.4478 122.912C11.2669 123.604 8.10804 124.286 5.02905 124.939C4.92991 124.958 4.83352 124.981 4.73438 125C4.83352 124.969 4.92991 124.936 5.02905 124.905L7.09456 87.319C15.1914 83.1044 19.0057 79.4153 24.6404 68.2673L33.3733 50.9919L33.635 42.8436C34.5466 38.2342 39.3909 37.1111 42.5167 41.4813C45.0999 41.7983 48.0109 44.5672 49.1263 50.3748C49.622 52.9519 49.3934 56.3491 48.8261 59.46C54.8381 57.2165 60.9162 55.2955 67.0797 53.8193C70.4809 53.0075 72.9871 55.7653 73.5929 59.0291C78.0682 60.3385 79.974 68.0782 75.8044 71.2892C79.5912 71.4087 81.6567 82.7875 75.5621 84.8976C79.6793 84.6502 80.6818 95.89 74.7221 97.7415Z" fill="#156C62"/>
<path fill-rule="evenodd" clip-rule="evenodd" d="M75.5621 84.8976C81.6567 82.7875 79.5912 71.4087 75.8044 71.2892C79.974 68.0782 78.0682 60.3385 73.593 59.0291C74.0419 61.4394 73.4525 64.1277 71.42 65.8569C75.2068 65.6734 77.2751 76.8827 71.1777 79.4848C75.2949 78.9038 76.3001 90.0629 70.3377 92.3982C73.3892 99.3344 69.8998 102.012 60.5472 105.881C50.9632 109.846 26.3809 118 5.02905 124.905C4.92991 124.936 4.83352 124.969 4.73438 125C4.83352 124.981 4.92991 124.958 5.02905 124.939C8.10804 124.286 11.2669 123.604 14.4478 122.912C14.4836 122.901 14.5221 122.893 14.5579 122.887C15.4723 122.687 16.3894 122.484 17.3092 122.284C17.6287 122.212 17.9454 122.142 18.2648 122.073C18.8762 121.936 19.4876 121.8 20.099 121.667C20.4708 121.581 20.8426 121.5 21.2144 121.416C21.9552 121.25 22.6933 121.086 23.4314 120.919C24.1419 120.758 24.8524 120.599 25.5602 120.438C25.9871 120.343 26.414 120.246 26.8408 120.149C27.4715 120.004 28.1022 119.86 28.7273 119.718C28.7962 119.701 28.8623 119.687 28.9284 119.671C29.2919 119.587 29.6554 119.504 30.0162 119.42C31.4648 119.09 32.8997 118.756 34.318 118.425C35.2268 118.211 36.1274 118 37.0169 117.791C38.5619 117.424 40.0794 117.063 41.5638 116.704C41.8061 116.646 42.0485 116.588 42.2908 116.529C43.5494 116.223 44.7805 115.923 45.984 115.626C46.2979 115.548 46.6091 115.47 46.9176 115.392C47.6997 115.197 48.4709 115.006 49.2255 114.814C49.6303 114.711 50.0296 114.611 50.4262 114.508C50.9357 114.38 51.4369 114.249 51.9326 114.122C52.1805 114.058 52.4256 113.994 52.668 113.93C52.6928 113.924 52.7148 113.919 52.7368 113.913C53.0205 113.838 53.2986 113.766 53.5768 113.693C53.8522 113.621 54.1276 113.549 54.4002 113.477C54.6729 113.404 54.94 113.332 55.2044 113.263C56.0003 113.051 56.7714 112.843 57.515 112.637C57.7161 112.581 57.9116 112.529 58.1071 112.473C58.7874 112.287 59.4456 112.1 60.0735 111.92C60.2167 111.878 60.3572 111.839 60.4949 111.797C60.7703 111.72 61.0374 111.642 61.3018 111.564C61.5111 111.503 61.7204 111.442 61.9215 111.38C62.5328 111.197 63.1084 111.022 63.651 110.849C63.8327 110.794 64.009 110.735 64.1825 110.68C64.2073 110.672 64.2321 110.666 64.2569 110.658C64.4028 110.61 64.546 110.563 64.6865 110.516C64.7691 110.488 64.8517 110.463 64.9316 110.435C74.2842 107.322 77.7736 104.928 74.7221 97.7415C80.6818 95.8899 79.6793 84.6501 75.5621 84.8976ZM49.1263 50.3747C48.0109 44.5672 45.0999 41.7983 42.5167 41.4813C43.4751 42.8185 44.2682 44.6701 44.7419 47.0943C45.5626 51.281 44.4032 57.8698 43.0152 61.7313C44.9457 60.9418 46.8818 60.1856 48.8261 59.46C49.3934 56.3491 49.622 52.9519 49.1263 50.3747Z" fill="#C8FFF8"/>
</g>
<defs>
<clipPath id="clip0_189_5086">
<rect width="122" height="125" fill="white"/>
</clipPath>
</defs>
</svg>
