<svg width="256" height="245" viewBox="0 0 256 245" fill="none" xmlns="http://www.w3.org/2000/svg">
<g clip-path="url(#clip0_189_5307)">
<path d="M101.362 192.596C102.192 192.366 63.5477 182.689 32.3777 174.953L34.8864 172.201C87.8109 180.795 174.141 194.315 182.172 192.415C190.515 190.442 95.1812 172.162 36.9395 161.103L0 122.029L14.5635 86.615L72.5378 117.079L21.9962 68.5423L26.5235 57.5329L95.2402 98.2456L36.231 33.9276L47.1706 7.32584L120.556 31.6652V58.8256L154.129 16.9487L253.234 87.7322L218.217 164.017L233.441 212.682L0 210.467L18.4358 190.245C54.7348 191.41 100.526 192.829 101.362 192.596Z" fill="#C8FFF8"/>
<path d="M3.58147 126.38L87.4788 124.859L87.461 124.276L84.178 19.3922L83.0328 19.4279L86.298 123.731L3.5603 125.232L3.58147 126.38Z" fill="black"/>
<path d="M84.3564 55.0861L85.0593 54.18L68.113 40.9473V14.0818H66.9678V41.5082L84.3564 55.0861Z" fill="black"/>
<path d="M55.0824 52.4803L54.5491 53.4968L84.8971 69.5128L85.4304 68.4963L55.0824 52.4803Z" fill="black"/>
<path d="M86.316 170.678H87.4612V137.309L17.5447 140.036L17.5892 141.184L86.316 138.502V170.678Z" fill="black"/>
<path d="M49.7307 124.585L50.6631 123.918L41.7443 111.369L10.1309 97.43L9.66968 98.4813L40.9957 112.293L49.7307 124.585Z" fill="black"/>
<path d="M55.1235 164.795L64.5926 158.614V138.798H63.4474V157.992L54.4985 163.833L55.1235 164.795Z" fill="black"/>
<path d="M7.28015 104.326L32.5426 113.272L34.8219 120.758L2.17798 116.734L7.28015 104.326Z" fill="#40C4B3"/>
<path d="M80.0117 19.41V46.1235L70.3655 38.9195V16.3599L80.0117 19.41Z" fill="#40C4B3"/>
<path d="M22.6936 146.034C27.231 145.157 58.2005 146.034 58.2005 146.034L57.3628 156.65C57.3628 156.65 49.6015 163.511 48.4886 163.299C47.3757 163.086 36.9396 161.103 36.9396 161.103L22.6936 146.034Z" fill="#40C4B3"/>
<path d="M81.8197 142.807V169.694L64.02 165.773L69.9844 160.385L71.3926 142.807H81.8197Z" fill="#40C4B3"/>
<path d="M25.3772 26.4923C25.3772 35.351 41.37 62.5985 41.37 62.5985C41.37 62.5985 57.3627 35.3499 57.3627 26.4923C57.3627 17.6336 50.203 10.453 41.37 10.453C32.537 10.453 25.3772 17.6347 25.3772 26.4923ZM32.5425 26.2152C32.5425 21.3261 36.495 17.3621 41.37 17.3621C46.2449 17.3621 50.1974 21.3261 50.1974 26.2152C50.1974 31.1043 46.2449 35.0683 41.37 35.0683C36.495 35.0683 32.5425 31.1054 32.5425 26.2152Z" fill="#2A9D8F"/>
<path d="M100.192 221.371H186.771C195.178 221.371 202.915 214.536 204.053 206.104L229.792 15.2673C230.93 6.83535 225.036 0 216.63 0H130.05C121.642 0 113.906 6.83535 112.768 15.2673L87.0289 206.104C85.8915 214.536 91.7857 221.371 100.192 221.371Z" fill="black"/>
<path d="M104.047 214.044H184.895C192.745 214.044 199.971 207.661 201.033 199.788L225.068 21.5831C226.13 13.7098 220.627 7.32693 212.776 7.32693H131.928C124.078 7.32693 116.852 13.7098 115.791 21.5831L91.7546 199.788C90.6919 207.661 96.1951 214.044 104.047 214.044Z" fill="white"/>
<path d="M129.031 226.921C128.764 221.857 128.517 216.913 128.555 216.909C124.36 217.375 120.163 217.842 115.968 218.308C116.112 221.966 116.195 225.627 116.215 229.288C116.223 230.682 113.904 232.256 112.979 233.214C111.454 234.793 109.93 236.371 108.405 237.951C108.338 238.021 108.268 238.097 108.258 238.193C108.234 238.427 108.549 238.521 108.785 238.529C115.746 238.764 122.783 238.981 129.608 237.584C129.56 236.796 129.287 231.802 129.031 226.921Z" fill="#FFA386"/>
<path d="M130.012 238.383C124.519 238.252 119.016 238.244 113.581 239.014C112.559 239.159 111.54 239.331 110.513 239.442C108.79 239.628 107.053 239.642 105.319 239.656C103.124 239.673 100.928 239.691 98.7338 239.708C98.7004 241.3 98.6926 242.892 98.7115 244.483C98.7115 244.737 106.706 244.973 107.347 244.983C110.489 245.036 113.633 244.955 116.77 244.791C118.924 244.678 121.078 244.437 123.226 244.25C124.806 244.113 126.387 243.974 127.967 243.838C129.899 243.67 131.773 243.942 133.735 243.703C133.775 241.937 133.556 240.166 133.083 238.463C132.061 238.436 131.036 238.407 130.012 238.383Z" fill="white"/>
<path d="M130.127 230.419C129.222 230.725 127.951 231.452 127.479 231.632C122.707 233.457 117.856 235.069 112.942 236.462C112.946 236.461 111.842 234.363 111.703 234.176C110.781 232.942 110.587 232.987 109.202 233.516C106.775 234.441 104.353 235.394 101.942 236.361C101.081 236.707 100.18 237.081 99.5982 237.806C98.8161 238.781 98.7961 240.144 98.8128 241.395C104.775 242.036 110.786 242.025 116.768 241.713C118.177 241.639 133.555 240.238 133.569 240.312C133.086 237.891 132.56 235.479 131.989 233.077C131.814 232.338 131.744 230.575 130.934 230.305C130.762 230.247 130.471 230.303 130.127 230.419Z" fill="black"/>
<path d="M105.834 235.403C108.132 233.903 110.732 232.854 113.089 231.443C114.46 230.623 115.807 228.677 117.525 228.74C117.979 228.756 118.416 228.915 118.837 229.086C120.275 229.67 121.646 230.421 122.911 231.319C119.98 233.477 116.918 235.454 113.747 237.237C112.35 238.023 110.874 238.788 109.274 238.874C107.675 238.96 105.919 238.181 105.355 236.678C105.272 236.454 105.216 236.204 105.292 235.977C105.378 235.722 105.609 235.549 105.834 235.403Z" fill="black"/>
<path d="M101.831 244.831C104.224 244.831 106.609 244.772 108.935 244.715C110.283 244.682 111.678 244.647 113.058 244.625C115.522 244.584 118.01 244.473 120.416 244.364C124.72 244.171 129.171 243.972 133.575 244.179L133.599 243.656C129.172 243.448 124.709 243.648 120.392 243.841C117.99 243.949 115.505 244.06 113.049 244.101C111.666 244.123 110.271 244.158 108.921 244.191C105.778 244.268 102.526 244.349 99.2975 244.283L99.2864 244.807C100.134 244.823 100.983 244.831 101.831 244.831Z" fill="black"/>
<path d="M124.882 242.033C125.908 238.853 128.478 235.893 131.935 233.911L131.676 233.457C128.108 235.502 125.451 238.569 124.386 241.872L124.882 242.033Z" fill="white"/>
<path d="M107.566 241.957L108.087 241.938C108.006 239.68 106.566 237.787 104.969 235.889L104.57 236.226C106.106 238.052 107.491 239.864 107.566 241.957Z" fill="white"/>
<path d="M119.099 237.293L119.597 237.137C118.755 234.441 116.687 232.214 114.066 231.178L113.874 231.666C116.351 232.643 118.304 234.747 119.099 237.293Z" fill="white"/>
<path d="M122.043 236.39L122.488 236.117C120.954 233.616 118.76 231.599 116.144 230.281L115.91 230.749C118.404 232.004 120.582 234.007 122.043 236.39Z" fill="white"/>
<path d="M124.697 242.955C127.68 242.598 130.717 242.456 133.723 242.531L133.736 242.008C130.707 241.931 127.645 242.075 124.636 242.436L124.697 242.955Z" fill="black"/>
<path d="M111.356 32.2338C111.313 31.74 111.29 31.2361 111.409 30.7546C111.512 30.3423 111.718 29.9491 111.72 29.5245C111.725 28.5391 110.713 27.9235 110.012 27.2341C109.243 26.4777 108.764 25.432 108.695 24.3539C111.393 25.9705 114.538 26.8263 117.681 26.8018C116.307 31.2194 115.279 35.7454 114.611 40.3239C114.108 40.5585 113.618 39.9853 113.373 39.487C112.259 37.2224 111.571 34.7488 111.356 32.2338Z" fill="black"/>
<path d="M133.109 91.1019C133.122 97.6054 133.305 104.366 131.967 110.759C129.989 111.456 128.01 112.153 126.032 112.851C120.314 114.867 113.399 113.347 107.463 112.952C99.9915 112.454 92.5198 111.956 85.0482 111.458C85.0482 111.458 85.0437 101.469 85.0437 101.468C85.0437 100.451 97.7156 100.774 98.7628 100.78C101.245 100.793 103.727 100.833 106.209 100.862C109.984 100.906 112.852 99.8287 116.51 99.0768C116.81 99.0154 117.125 98.9472 117.356 98.7461C117.746 98.4076 117.773 97.8221 117.771 97.306C117.764 95.0759 118.383 72.8862 116.578 72.6583C120.596 73.1633 124.58 73.9487 128.489 75.0067C129.83 75.3698 131.256 75.8279 132.092 76.9407C132.917 78.0401 132.972 79.5182 132.993 80.8946C133.049 84.2956 133.101 87.6987 133.109 91.1019Z" fill="#FF8164"/>
<path d="M187.954 113.421C187.954 113.421 183.276 130.331 142.032 119.651C142.032 119.651 171.251 104.784 187.954 113.421Z" fill="black"/>
<path d="M119.448 68.8652C119.916 69.2641 120.233 69.8059 120.539 70.3389C124.348 76.9675 127.661 83.8822 130.443 91.0058C125.169 91.3331 119.894 91.6616 114.621 91.989C113.75 86.7457 113.239 81.4421 113.093 76.1285C113.037 74.0761 113.071 71.8907 114.184 70.1679C115.296 68.4462 117.888 67.5357 119.448 68.8652Z" fill="#2A9D8F"/>
<path d="M65.5217 93.7129L64.4177 88.7701L67.7052 89.7947L68.7145 94.7061L72.5088 100.744C70.9068 102.063 69.3417 103.382 67.7987 104.755C67.7119 104.832 67.6161 104.911 67.5002 104.918C65.8125 105.014 65.1797 99.9896 65.1753 98.7941C65.1708 97.2356 65.8626 95.229 65.5217 93.7129Z" fill="#FFA386"/>
<path d="M109.295 76.2067H68.4626V112.164H109.295V76.2067Z" fill="#2A9D8F"/>
<path d="M144.37 110.019V121.404L114.229 154.361V225.051L122.88 227.392L131.49 224.25L135.405 176.741L131.844 164.899L137.93 153.967L169.466 125.698L166.6 106.639L144.37 110.019Z" fill="black"/>
<path d="M109.295 76.2067L80.1709 78.2177L79.2574 112.164L78.2726 77.8256L68.4626 75.5631L91.1317 74.8481L109.295 76.2067Z" fill="#084941"/>
<path d="M139.196 133.226C136.36 134.301 134.124 136.51 131.978 138.659C130.764 139.875 129.549 141.092 128.334 142.309C125.37 145.282 122.417 148.214 119.55 151.27C118.02 152.903 118.971 155.298 119.27 157.259C119.643 159.71 120.032 162.158 120.437 164.604C120.465 164.775 120.494 164.948 120.561 165.109C121.017 166.206 122.219 166.163 123.185 166.166C125.172 166.17 127.159 166.082 129.137 165.9C129.27 165.887 129.419 165.866 129.5 165.76C129.58 165.654 129.562 165.506 129.541 165.376C128.847 161.007 129.405 156.397 130.48 152.143C131.658 147.476 133.625 143.028 136.042 138.879C136.428 138.216 136.826 137.561 137.236 136.913C137.98 135.732 138.768 134.555 139.196 133.226Z" fill="black"/>
<path d="M177.81 101.947L184.43 122.582L178.789 132.39L142.844 153.99L152.461 155.43L169.858 164.569L162.737 181.453L122.266 162.931L120.748 151.384L148.417 123.341V110.411L177.81 101.947Z" fill="black"/>
<path d="M117.1 65.1045C122.043 59.6456 128.365 56.305 134.55 52.5578C138.283 50.2953 142.619 49.1658 146.965 48.7871C153.418 48.2251 157.601 50.2104 160.94 55.7956C171.385 73.2672 180.796 94.6335 187.954 113.421C175.316 115.543 154.494 116.663 142.032 119.651C133.034 104.646 126.398 89.9913 116.267 75.7307C115.355 74.447 114.41 73.094 114.218 71.5298C113.924 69.1233 115.475 66.8999 117.1 65.1045Z" fill="#2A9D8F"/>
<path d="M86.7648 89.8103L89.4229 90.0617C88.4392 89.5142 87.4566 88.9668 86.473 88.4204C84.9122 87.5535 84.4878 85.7893 84.6805 84.1112C85.6141 84.2944 86.6167 85.243 87.4555 85.7279C88.1507 86.1301 88.8458 86.5323 89.541 86.9356L95.0965 88.2629L98.6135 90.9309L99.156 90.9823L131.206 89.5589L136.463 73.3152C136.463 73.3152 144.859 71.141 155.086 78.5842L143.155 103.481L99.2161 100.533L87.0077 101.948L78.0154 97.8355L78.4298 89.5913L86.7648 89.8103Z" fill="#FFA386"/>
<path d="M123.779 43.9225C125.033 42.2176 126.622 40.7585 128.325 39.5183C128.746 39.2111 129.255 38.9005 129.756 39.0446C130.108 39.1452 130.358 39.4479 130.586 39.7351C134.314 44.4432 137.849 49.3055 141.176 54.3063C139.122 57.6458 137.178 61.3092 134.569 64.2509C133.103 65.9045 131.26 67.2921 129.127 67.8597C128.483 68.0306 127.799 68.1256 127.154 67.9591C125.819 67.6172 124.997 66.2788 124.511 64.985C124.027 63.6979 123.735 62.3393 123.649 60.9673C124.323 60.5674 124.998 60.1674 125.672 59.7674C125.854 59.659 126.056 59.525 126.093 59.3149C126.119 59.1596 126.047 59.0066 125.977 58.8647C124.845 56.5955 123.642 54.3353 122.677 52.0036C122.081 50.5657 121.178 49.7412 121.632 48.1748C121.982 46.9715 122.517 45.8353 123.19 44.7806C123.377 44.4879 123.573 44.2019 123.779 43.9225Z" fill="#FFA386"/>
<path d="M123.19 44.7806C123.377 44.4879 123.573 44.2018 123.778 43.9225C124.708 42.6578 125.821 41.5305 127.029 40.525C127.38 40.6266 127.63 40.9283 127.857 41.2154C128.485 42.0076 129.104 42.8042 129.72 43.6052C129.768 43.7661 129.809 43.9259 129.844 44.0834C130.244 45.8922 129.947 47.8027 129.303 49.5401C128.373 52.0505 126.647 54.3152 124.382 55.6939C123.777 54.4761 123.192 53.2505 122.676 52.0036C122.08 50.5657 121.177 49.7412 121.631 48.1748C121.982 46.9715 122.517 45.8353 123.19 44.7806Z" fill="black"/>
<path d="M126.218 50.5188C123.897 51.7053 121.22 52.2617 118.657 51.5981C118.462 51.5478 118.262 51.4875 118.105 51.3601C117.965 51.2461 117.87 51.0875 117.778 50.9311C117.324 50.1646 116.87 49.3971 116.416 48.6306C116.023 47.9659 115.477 47.2687 115.257 46.5302C114.849 45.1638 114.486 43.7505 114.216 42.345C113.653 39.4077 113.501 36.3654 113.981 33.4047C114.35 31.1266 115.08 28.7089 116.369 26.7716C118.138 23.8477 121.173 21.5484 124.577 21.3272C127.02 21.1686 129.541 22.1395 131.149 23.9896C134.914 28.319 134.387 37.7676 132.912 42.9092C132.014 46.0353 129.294 48.9468 126.218 50.5188Z" fill="#FFA386"/>
<path d="M153.05 49.6384C153.951 49.8663 154.907 50.2797 155.962 50.692C158.621 51.7344 161.111 53.217 163.286 55.0716C163.527 55.2761 163.769 55.4928 163.918 55.771C164.135 56.1777 164.129 56.6626 164.115 57.1229C164.026 60.1841 163.792 63.0074 163.101 65.9872C161.862 71.3343 160.139 76.5698 157.965 81.6086C157.319 80.2813 156.112 79.3238 154.889 78.5004C149.143 74.6302 142.126 72.6929 135.214 73.0672C137.331 69.3467 139.448 65.6263 141.564 61.9069C143.688 58.1742 145.844 54.1823 148.74 50.969C150.158 49.3982 151.525 49.2529 153.05 49.6384Z" fill="#2A9D8F"/>
<path d="M136.379 31.1613C136.23 32.807 136.03 34.4359 135.604 36.0493C135.079 38.0413 134.661 40.0613 134.348 42.0969C134.196 43.0812 134.085 44.1504 134.573 45.0174C133.664 44.5806 132.624 44.4219 131.626 44.5649C131.701 42.0467 131.776 39.5273 131.851 37.009C131.867 36.4682 131.881 35.9118 131.702 35.4024C131.545 34.9566 131.251 34.5745 130.978 34.189C129.86 32.607 129.039 30.8138 128.572 28.9324C124.775 29.7077 120.809 29.0128 116.987 29.6519C115.815 29.8485 115.39 30.2965 114.831 31.2998C114.28 32.2897 113.798 33.3209 113.394 34.3801C113.283 32.9276 113.172 31.4752 113.061 30.0228C113.006 29.3156 112.927 28.5469 112.439 28.0341C112.253 27.8374 112.019 27.6944 111.804 27.5302C110.853 26.804 110.286 25.6934 109.749 24.6209C109.52 24.1617 109.284 23.6802 109.294 23.1662C111.093 23.9438 112.678 23.5997 114.529 23.479C116.494 23.3517 118.55 22.6311 120.473 22.1942C123.041 21.611 126.995 20.2859 129.595 21.1943C131.994 22.0322 134.491 24.7505 136.112 26.6196C136.315 26.8543 136.52 27.1023 136.605 27.4006C136.678 27.6598 136.654 27.9358 136.63 28.2039C136.54 29.1949 136.469 30.1814 136.379 31.1613Z" fill="black"/>
<path d="M116.607 22.3506C117.187 22.383 117.754 20.3899 117.947 20.0145C118.392 19.1486 119.047 18.4917 119.752 17.7844C121.402 16.1276 123.75 15.293 126.067 15.3175C129.016 15.3499 131.828 16.599 134.317 18.1844C136.186 19.3732 138.068 21.0055 138.317 23.2098C138.408 24.0198 138.264 24.8376 138.096 25.6354C137.661 27.69 137.051 29.7066 136.277 31.6585C136.813 30.3032 129.386 26.7437 128.464 26.2521C124.779 24.2857 120.828 22.583 116.607 22.3506Z" fill="#2A9D8F"/>
<path d="M117.913 24.2656C121.27 24.5304 125.052 25.1561 128.116 26.6319C129.531 27.3135 130.976 28.1022 132.348 28.8933C133.43 29.5167 135.788 30.5211 136.441 31.6071C132.925 25.7638 127.959 20.8267 121.945 17.6425C119.399 16.294 116.479 15.5265 113.623 15.8896C113.03 15.9644 112.414 16.1018 111.961 16.4929C110.873 17.4314 111.277 19.1877 111.838 20.5116C112.452 21.9585 113.147 23.3696 113.919 24.7371C115.139 24.1427 116.559 24.1595 117.913 24.2656Z" fill="#2A9D8F"/>
<path d="M127.846 70.9064C128.827 70.9064 129.851 70.7009 130.84 70.2886C132.838 69.454 134.431 67.9535 135.595 66.7391C139.661 62.4991 142.604 57.334 145.449 52.3377L144.995 52.0785C142.166 57.0458 139.24 62.1829 135.219 66.376C134.09 67.5535 132.548 69.0071 130.639 69.8048C128.74 70.5981 126.706 70.5746 125.198 69.7422C123.144 68.6082 122.174 66.1983 121.496 63.9906L120.997 64.1448C121.706 66.4519 122.73 68.9769 124.946 70.2014C125.798 70.6707 126.797 70.9064 127.846 70.9064Z" fill="black"/>
<path d="M156.726 80.5784C159.318 75.5307 161.574 70.2528 163.428 64.8878L162.934 64.7157C161.088 70.0562 158.842 75.3128 156.261 80.3371L156.726 80.5784Z" fill="black"/>
<path d="M155.451 79.4243L155.889 79.1394C155.008 77.7786 153.524 76.9373 152.19 76.2938C147.306 73.9409 141.863 72.7588 136.445 72.8772L136.456 73.4001C141.793 73.2839 147.154 74.4481 151.963 76.7653C153.232 77.3775 154.64 78.1719 155.451 79.4243Z" fill="black"/>
<path d="M138.913 66.5258L136.983 69.8317L137.433 70.0959L139.363 66.79L138.913 66.5258Z" fill="black"/>
<path d="M124.503 89.7086L124.969 89.4729C122.908 85.3704 121.252 81.0421 120.048 76.61L119.545 76.7474C120.758 81.2142 122.427 85.5748 124.503 89.7086Z" fill="black"/>
<path d="M133.912 105.084L133.462 105.348L141.583 119.254L142.033 118.99L133.912 105.084Z" fill="black"/>
<path d="M165.295 93.7576C166.882 89.8115 168.189 85.7145 169.182 81.5773L168.675 81.4544C167.689 85.5659 166.389 89.6394 164.812 93.561L165.295 93.7576Z" fill="black"/>
<path d="M163.136 89.5578C164.402 87.2384 165.603 84.8441 166.706 82.442C166.901 82.0186 167.122 81.5382 167.201 81.0097L166.685 80.9315C166.616 81.3862 166.412 81.8309 166.232 82.2231C165.134 84.614 163.938 86.9971 162.678 89.3064L163.136 89.5578Z" fill="black"/>
<path d="M123.263 87.2831L123.723 87.0362C123.407 86.4429 122.892 86.0228 122.394 85.6161C122.305 85.5435 122.216 85.4698 122.128 85.396C121.319 84.7168 120.605 83.9291 120.007 83.0565L119.577 83.3526C120.202 84.2643 120.947 85.0866 121.793 85.796C121.882 85.8709 121.973 85.9457 122.064 86.0206C122.545 86.4139 122.997 86.7837 123.263 87.2831Z" fill="black"/>
<path d="M119.894 41.4612L119.965 40.9428L118.146 40.6948C118.259 38.5441 119.022 36.4794 119.76 34.4806L119.271 34.2985C118.491 36.4101 117.684 38.5932 117.615 40.9138L117.608 41.1495L119.894 41.4612Z" fill="black"/>
<path d="M117.671 47.0263C118.348 47.777 119.306 48.2452 120.327 48.0139C121.816 47.6776 123.091 46.0408 123.153 44.5191C123.16 44.3683 123.147 44.2063 123.056 44.0868C122.941 43.9371 122.725 43.8968 122.541 43.9382C122.358 43.9795 122.197 44.089 122.04 44.194C121.471 44.5772 120.879 44.947 120.22 45.1347C119.222 45.4185 118.049 45.213 117.212 44.5985C117.155 44.556 117.096 44.5113 117.026 44.499C116.901 44.4767 116.777 44.5739 116.73 44.6912C116.682 44.8096 116.692 44.9426 116.712 45.0688C116.822 45.7649 117.171 46.4721 117.671 47.0263Z" fill="white"/>
<path d="M117.478 47.2017C116.945 46.6118 116.573 45.8498 116.456 45.1113C116.431 44.9571 116.417 44.7739 116.489 44.594C116.587 44.3527 116.829 44.1996 117.072 44.2421C117.199 44.2644 117.291 44.3326 117.366 44.3884C117.895 44.7772 118.598 44.9996 119.295 44.9996C119.591 44.9996 119.878 44.9605 120.147 44.8834C120.785 44.7024 121.359 44.3359 121.899 43.9739C122.065 43.8622 122.253 43.736 122.482 43.6834C122.547 43.6689 122.613 43.6611 122.678 43.6611C122.919 43.6611 123.132 43.7583 123.261 43.927C123.41 44.1214 123.419 44.3639 123.413 44.5303C123.345 46.2017 121.957 47.9134 120.382 48.2698C120.19 48.3133 119.994 48.3357 119.799 48.3357C118.963 48.3357 118.138 47.9324 117.478 47.2017ZM122.599 44.1951C122.465 44.2253 122.332 44.3147 122.186 44.413C121.642 44.7784 121.002 45.1862 120.291 45.3884C119.975 45.4778 119.639 45.5236 119.296 45.5236C118.479 45.5236 117.683 45.2711 117.05 44.8063C117.033 44.7929 117.008 44.775 116.992 44.7649C116.986 44.7717 116.977 44.7806 116.972 44.7929C116.948 44.8543 116.959 44.9526 116.971 45.0309C117.073 45.671 117.398 46.3347 117.865 46.8509C118.551 47.6117 119.432 47.9491 120.27 47.7592C121.609 47.4564 122.834 45.9381 122.893 44.5091C122.896 44.4611 122.901 44.3136 122.85 44.2477C122.821 44.2097 122.755 44.1851 122.681 44.1851C122.653 44.1851 122.626 44.1884 122.599 44.1951Z" fill="black"/>
<path d="M116.999 27.814C117.16 27.814 117.32 27.8006 117.482 27.7715C117.954 27.6855 118.377 27.4665 118.786 27.2565C119.121 27.0833 119.439 26.9202 119.78 26.8241C120.526 26.613 121.352 26.7481 122.13 26.9247C123.122 27.1492 124.109 27.4408 125.062 27.7917L125.197 27.423C124.227 27.0677 123.224 26.7705 122.217 26.5426C121.387 26.3538 120.505 26.2119 119.674 26.4465C119.295 26.5537 118.945 26.7336 118.607 26.9079C118.205 27.1146 117.826 27.3101 117.41 27.3861C116.607 27.5336 115.747 27.1962 115.056 26.9258L111.667 25.5996L111.525 25.9649L114.914 27.2911C115.521 27.528 116.251 27.814 116.999 27.814Z" fill="white"/>
<path d="M132.994 41.1361L133.381 41.0724C133.113 39.4301 133.107 37.7374 133.363 36.0448C133.374 35.971 133.385 35.8962 133.397 35.8225C133.494 35.2024 133.596 34.5622 133.441 33.9321C133.247 33.1433 132.691 32.521 132.153 31.9188C131.543 31.2339 130.966 30.5881 130.951 29.7591L130.56 29.7658C130.577 30.7401 131.231 31.4719 131.862 32.1802C132.368 32.7467 132.891 33.3321 133.062 34.0259C133.198 34.579 133.103 35.1789 133.013 35.7599C133.001 35.8347 132.99 35.9096 132.979 35.9845C132.713 37.7195 132.72 39.4524 132.994 41.1361Z" fill="white"/>
<path d="M113.986 29.6865L114.036 29.2966C113.115 29.177 112.246 28.605 111.77 27.8051L111.434 28.0062C111.969 28.9078 112.948 29.5513 113.986 29.6865Z" fill="white"/>
<path d="M134.714 28.6184L135.085 28.2497C134.119 27.2744 133.085 26.3705 132.084 25.4968C131.196 24.7214 130.277 23.9192 129.418 23.0746C127.46 21.1507 125.604 19.7195 123.578 18.5687C122.101 17.7297 120.429 17.0224 118.607 16.4661C116.622 15.8594 113.801 15.1756 112.217 16.2314C110.854 17.1386 110.834 19.2089 111.596 20.6077C111.843 21.0602 112.087 21.5183 112.331 21.9775C112.996 23.2254 113.684 24.5159 114.449 25.7292L114.89 25.4488C114.135 24.2522 113.452 22.9696 112.791 21.7305C112.546 21.2702 112.301 20.811 112.054 20.3563C111.486 19.3139 111.326 17.4526 112.505 16.6683C114.068 15.627 117.369 16.6359 118.454 16.9677C120.24 17.5129 121.876 18.2056 123.32 19.0257C125.305 20.153 127.127 21.5585 129.052 23.45C129.922 24.3047 130.846 25.1125 131.741 25.8934C132.734 26.7593 133.762 27.6553 134.714 28.6184Z" fill="black"/>
<path d="M133.132 26.6096C134.234 23.4198 134.228 21.1529 133.114 19.6815C131.085 16.999 127.032 15.6136 125.838 15.2538L125.687 15.7555C128.069 16.475 131.16 17.9665 132.698 19.9988C133.684 21.3026 133.664 23.469 132.639 26.4398L133.132 26.6096Z" fill="black"/>
<path d="M134.067 32.0495C134.124 32.0852 134.181 32.121 134.236 32.159C136.418 33.6617 136.373 35.9666 135.187 38.1586C134.914 38.6636 134.583 39.1373 134.203 39.5675C134.025 39.7697 133.832 39.9652 133.599 40.1015C133.38 40.23 133.131 40.3026 132.883 40.3585C128.827 41.2635 128.416 36.4425 129.091 33.674C129.599 31.5892 132.364 31.0026 134.067 32.0495Z" fill="#FFA386"/>
<path d="M124.157 39.9876C123.318 38.9765 125.444 35.6683 127.292 36.6548C128.072 37.0715 127.735 37.8022 127.422 38.3776C126.886 39.3653 125.968 40.3004 124.847 40.2713C124.523 40.2635 124.298 40.1585 124.157 39.9876Z" fill="#EC7070"/>
<path d="M115.611 40.1149C115.045 40.1831 114.62 39.6211 114.366 39.1083C114.163 38.6972 113.982 38.2525 114.018 37.7955C114.181 35.7543 116.576 37.7676 116.394 39.2156C116.342 39.6412 116.037 40.0636 115.611 40.1149Z" fill="#EC7070"/>
<path d="M130.931 37.8134L131.123 36.514C131.231 35.7834 131.352 34.9555 131.783 34.3242C132.162 33.7701 132.928 33.3522 133.556 33.6114L133.754 33.1277C132.848 32.7534 131.841 33.3131 131.352 34.0293C130.853 34.76 130.722 35.6515 130.606 36.4381L130.414 37.7374L130.931 37.8134Z" fill="black"/>
<path d="M131.612 34.0895L131.237 34.4548L133.467 36.7543L133.841 36.389L131.612 34.0895Z" fill="black"/>
<path d="M122.015 34.4036C122.168 34.0796 122.425 33.9008 122.785 34.0717C123.04 34.1935 123.191 34.4706 123.245 34.7488C123.348 35.2761 123.278 35.7007 122.96 36.1275C122.811 36.3275 122.567 36.5185 122.335 36.4269C121.818 36.2236 121.716 35.037 122.015 34.4036Z" fill="black"/>
<path d="M116.038 35.1521C116.05 35.3521 116.061 35.5577 116.005 35.751C115.951 35.9442 115.815 36.1264 115.623 36.1822C115.433 36.237 115.221 36.1554 115.079 36.0169C114.936 35.8783 114.85 35.6906 114.786 35.5029C114.689 35.2214 114.628 34.9275 114.608 34.6304C114.583 34.2527 114.656 33.8137 114.981 33.6204C115.179 33.5019 115.445 33.5109 115.636 33.6427C115.937 33.8516 115.988 34.2717 116.009 34.6404C116.018 34.8102 116.028 34.9812 116.038 35.1521Z" fill="black"/>
<path d="M126.229 33.4326C125.731 33.6103 125.181 33.5153 124.663 33.4081C123.86 33.2416 123.064 33.0494 122.274 32.8327C122.197 32.8115 122.117 32.788 122.057 32.7355C121.994 32.6796 121.961 32.5981 121.94 32.5165C121.851 32.1646 121.976 31.7668 122.248 31.5289C122.534 31.2797 122.944 31.216 123.318 31.273C123.692 31.33 124.041 31.492 124.384 31.6529C124.66 31.7825 124.937 31.9121 125.213 32.0417C125.645 32.245 126.09 32.4562 126.405 32.8148C126.484 32.9053 126.559 33.017 126.543 33.1366C126.523 33.2874 126.371 33.3813 126.229 33.4326Z" fill="black"/>
<path d="M118.323 32.4919C117.326 32.5545 115.759 32.2551 115.522 32.2048C115.375 32.1735 115.219 32.1355 115.117 32.0249C115.006 31.9065 114.982 31.73 115.007 31.5702C115.079 31.1345 115.487 30.8127 115.917 30.7189C116.31 30.6339 116.717 30.701 117.105 30.8038C117.806 30.9881 118.486 31.2909 119.039 31.7624C119.366 32.2618 118.961 32.4506 118.323 32.4919Z" fill="black"/>
<path d="M119.768 49.1111C120.2 49.0094 120.643 48.9692 121.087 48.9915L121.113 48.4686C120.621 48.4441 120.127 48.4876 119.647 48.6005L119.768 49.1111Z" fill="black"/>
<path d="M147.781 123.75L135.887 134.993L136.246 135.374L148.139 124.132L147.781 123.75Z" fill="black"/>
<path d="M157.059 123.729L157.198 123.225C153.964 122.326 150.689 121.386 147.465 120.433L147.318 120.935C150.544 121.889 153.822 122.83 157.059 123.729Z" fill="black"/>
<path d="M154.459 124.699L154.616 124.199C152.32 123.472 150.046 122.594 147.857 121.589L147.64 122.065C149.849 123.079 152.143 123.966 154.459 124.699Z" fill="black"/>
<path d="M139.297 150.884C148.472 144.174 157.668 137.229 166.632 130.241C170.239 127.429 173.501 124.897 176.875 122.386C177.11 122.212 177.188 121.859 176.077 116.655C175.995 116.267 175.929 115.961 175.914 115.868L175.399 115.957C175.417 116.06 175.477 116.339 175.567 116.764C175.817 117.93 176.56 121.413 176.503 122.012C173.146 124.511 169.9 127.032 166.312 129.828C157.353 136.812 148.161 143.753 138.991 150.46L139.297 150.884Z" fill="black"/>
<path d="M133.324 154.014C135.893 153.617 138.514 153.396 141.113 153.36L141.106 152.836C138.483 152.873 135.838 153.095 133.245 153.496L133.324 154.014Z" fill="black"/>
<path d="M140.62 153.884L134.203 156.711L134.413 157.19L140.83 154.364L140.62 153.884Z" fill="black"/>
<path d="M166.928 169.586L166.959 169.063C166.983 169.064 166.998 169.068 166.998 169.068C166.467 168.906 157.302 163.894 151.271 160.565L151.222 160.544L139.22 156.825L139.067 157.326L151.042 161.036C156.818 164.227 166.538 169.563 166.928 169.586Z" fill="black"/>
<path d="M129.406 224.01L132.611 177.496L132.581 177.433L127.121 166.052L126.651 166.278L132.081 177.597L128.886 223.974L129.406 224.01Z" fill="black"/>
<path d="M174.283 153.001L160.449 186.742L160.932 186.941L174.766 153.2L174.283 153.001Z" fill="black"/>
<path d="M119.821 232.133C119.438 232.043 119.233 231.651 119.228 231.309C119.224 230.996 119.354 230.713 119.459 230.486L121.541 225.946C121.639 225.732 121.736 225.511 121.833 225.285C122.431 223.909 123.108 222.349 124.613 221.682C124.903 221.553 125.225 221.486 125.546 221.486C126.129 221.486 126.653 221.712 126.981 222.106C127.924 223.243 127.026 224.546 126.371 225.499C126.279 225.634 126.191 225.762 126.112 225.883C126.002 226.053 125.89 226.227 125.774 226.407C124.425 228.51 122.745 231.128 120.429 232.048C120.301 232.099 120.147 232.151 119.985 232.151C119.928 232.152 119.873 232.145 119.821 232.133ZM124.824 222.161C123.505 222.745 122.898 224.143 122.311 225.495C122.211 225.723 122.113 225.949 122.014 226.165L119.932 230.705C119.841 230.904 119.747 231.108 119.749 231.304C119.752 231.456 119.836 231.6 119.938 231.623C120.015 231.641 120.135 231.602 120.236 231.562C122.398 230.704 124.026 228.165 125.335 226.124C125.451 225.944 125.564 225.769 125.674 225.598C125.755 225.473 125.845 225.341 125.941 225.202C126.693 224.109 127.219 223.211 126.58 222.442C126.351 222.167 125.975 222.009 125.546 222.009C125.297 222.01 125.048 222.063 124.824 222.161Z" fill="white"/>
<path d="M118.483 231.675C117.794 229.374 117.605 226.817 117.937 224.278C117.95 224.172 117.963 224.046 117.976 223.905C118.034 223.292 118.113 222.453 118.456 221.937C118.544 221.805 118.646 221.697 118.759 221.619C118.98 221.467 119.2 221.39 119.416 221.39C120.495 221.39 120.837 223.183 120.873 223.388C121.103 224.719 120.996 226.189 120.546 227.883C120.488 228.102 120.432 228.372 120.375 228.659C120.135 229.843 119.836 231.316 118.853 231.831L118.573 231.977L118.483 231.675ZM119.056 222.051C118.997 222.091 118.942 222.15 118.891 222.226C118.621 222.633 118.549 223.397 118.496 223.954C118.483 224.102 118.47 224.235 118.455 224.345C118.15 226.68 118.298 229.03 118.882 231.167C119.445 230.617 119.684 229.442 119.864 228.554C119.924 228.259 119.98 227.981 120.043 227.747C120.473 226.13 120.576 224.732 120.359 223.477C120.246 222.828 119.88 221.913 119.418 221.913C119.308 221.914 119.187 221.96 119.056 222.051Z" fill="white"/>
<path d="M89.3493 92.5666L89.4351 92.0504C88.9093 91.9621 79.663 91.7521 78.6114 91.7286L78.5991 92.2515C82.7176 92.3442 88.9795 92.504 89.3493 92.5666Z" fill="black"/>
<path d="M78.6333 94.4193L78.573 94.9387L88.9259 96.1481L88.9862 95.6288L78.6333 94.4193Z" fill="black"/>
<path d="M78.3162 96.8419L78.2251 97.3579L87.082 98.9302L87.1731 98.4142L78.3162 96.8419Z" fill="black"/>
<path d="M134.362 93.6972L134.862 93.5464C134.496 92.3308 133.727 91.256 132.696 90.5198L132.393 90.9466C133.329 91.6147 134.029 92.5923 134.362 93.6972Z" fill="#FF7252"/>
<path d="M78.0175 111.472L69.7727 112.978L65.6887 109.514L65.6865 100.239L69.6123 100.226L78.0153 101.468L78.0175 110.865V111.472Z" fill="#FFA386"/>
<path d="M70.6484 110.5C71.3112 110.378 77.1342 109.303 77.6711 109.05L77.4494 108.577C77.0918 108.745 73.0302 109.53 70.5537 109.986L70.6484 110.5Z" fill="black"/>
<path d="M77.9893 105.719L69.9658 106.34L70.006 106.862L78.0295 106.242L77.9893 105.719Z" fill="black"/>
<path d="M77.8582 103.218H69.9922V103.742H77.8582V103.218Z" fill="black"/>
<path d="M186.475 34.8035C203.667 34.8035 217.603 34.3243 217.603 33.7332C217.603 33.1421 203.667 32.6629 186.475 32.6629C169.283 32.6629 155.346 33.1421 155.346 33.7332C155.346 34.3243 169.283 34.8035 186.475 34.8035Z" fill="black"/>
<path d="M193.077 26.5113C206.622 26.5113 217.602 25.9981 217.602 25.365C217.602 24.7319 206.622 24.2187 193.077 24.2187C179.532 24.2187 168.552 24.7319 168.552 25.365C168.552 25.9981 179.532 26.5113 193.077 26.5113Z" fill="black"/>
<path d="M224.879 47.9692C222.726 50.3222 220.423 52.5388 217.987 54.5956C219.889 51.0942 221.354 47.3559 222.352 43.4957C217.871 36.4135 211.599 30.3356 204.442 27.4162C202.431 26.5951 200.343 26.1091 198.223 25.8878C198.168 31.7814 197.632 37.6291 196.026 43.2857C195.262 37.3564 193.689 31.5356 191.386 26.0208C186.545 26.6554 181.753 28.3212 177.483 30.3077C172.141 32.7936 167.253 36.7252 164.762 42.0779C179.252 45.6342 193.098 51.8193 205.427 60.2411C209.198 62.8175 212.635 65.1872 216.138 68.1043C219.722 71.0885 223.737 73.7465 228.357 74.7341C229.78 75.038 229.109 60.5886 228.863 59.344C228.121 55.5933 226.751 51.7098 224.879 47.9692Z" fill="#2A9D8F"/>
<path d="M226.287 140.775C222.93 139.27 219.573 137.765 216.215 136.26C221.07 137.182 226.006 137.044 230.903 136.316C234.171 132.868 237.194 129.202 239.7 125.338C239.934 124.976 240.626 123.928 241.555 122.503C236.327 120.28 230.672 119.063 224.994 119.004C229.596 117.97 234.285 117.145 238.998 117.281C240.843 117.335 242.697 117.546 244.506 117.938C247.741 112.877 251.303 107.079 250.81 106.786C247.752 104.973 244.352 103.759 240.846 103.184C237.072 102.564 233.176 102.683 229.458 103.587C228.071 98.0981 225.667 92.8693 222.406 88.2473C219.444 89.817 217.395 92.6682 215.61 95.5127C210.75 103.259 207.246 111.786 204.827 120.67C206.272 124.737 208.317 128.52 211.219 131.725C208.369 130.464 205.716 128.767 203.354 126.729C200.846 138.393 200.054 150.501 200.423 162.15C200.373 160.268 206.736 156.603 208.1 155.566C212.094 152.531 216.251 149.678 220.099 146.419C222.2 144.641 224.311 142.769 226.379 140.817C226.351 140.804 226.318 140.789 226.287 140.775Z" fill="#2A9D8F"/>
<path d="M181.816 207.579C181.685 207.579 181.557 207.513 181.483 207.394C181.368 207.21 181.424 206.968 181.607 206.853C217.586 184.321 237.314 159.704 241.921 131.598C244.713 114.565 238.89 99.2757 232.687 85.0754C230.817 80.7918 229.196 77.2602 226.821 74.0481C224.628 71.0829 221.66 68.2686 217.478 65.1894C204.476 55.6168 189.155 49.8205 174.337 44.2152C174.135 44.1381 174.032 43.9113 174.109 43.7091C174.185 43.5058 174.412 43.403 174.614 43.4801C189.48 49.1043 204.852 54.9207 217.941 64.5559C222.188 67.682 225.209 70.55 227.45 73.58C230.067 77.1183 231.917 81.3549 233.405 84.7603C239.655 99.069 245.521 114.481 242.694 131.725C240.127 147.389 232.746 162.248 220.756 175.889C211.054 186.926 198.384 197.273 182.023 207.521C181.958 207.56 181.886 207.579 181.816 207.579Z" fill="black"/>
<path d="M226.157 179.76C226.082 179.76 226.007 179.739 225.941 179.694C225.76 179.574 225.711 179.33 225.831 179.149C237.858 160.987 249.607 141.146 254.101 119.127C255.266 113.415 256.216 106.053 253.186 99.7796C252.439 98.2322 251.595 97.1138 250.607 96.3585C246.835 93.4805 241.234 95.8781 239 97.0423C231.522 100.942 225.381 107.555 219.675 117.851C216.439 123.692 213.467 129.854 210.588 136.688C209.151 140.1 207.918 143.645 206.726 147.074C205.742 149.904 204.724 152.83 203.596 155.67C203.516 155.872 203.287 155.97 203.087 155.89C202.886 155.81 202.788 155.582 202.867 155.38C203.989 152.555 205.004 149.637 205.985 146.816C207.182 143.376 208.418 139.819 209.865 136.383C212.754 129.523 215.739 123.337 218.989 117.47C224.773 107.032 231.016 100.319 238.637 96.3451C241.003 95.1117 246.952 92.5822 251.081 95.734C252.169 96.5652 253.088 97.7763 253.89 99.4377C257.023 105.923 256.058 113.451 254.867 119.285C250.346 141.434 238.553 161.356 226.483 179.584C226.409 179.699 226.284 179.76 226.157 179.76Z" fill="black"/>
<path d="M210.062 60.1908C209.872 60.1908 209.705 60.0523 209.675 59.859L207.082 43.3773L203.261 30.5781C203.198 30.3703 203.316 30.1513 203.523 30.0887C203.731 30.0262 203.949 30.1446 204.011 30.3524L207.84 43.1762C207.846 43.193 207.849 43.2097 207.853 43.2276L210.45 59.735C210.484 59.9495 210.338 60.1506 210.124 60.1841C210.103 60.1897 210.083 60.1908 210.062 60.1908Z" fill="black"/>
<path d="M207.465 43.6834C207.411 43.6834 207.357 43.6723 207.306 43.6488C207.108 43.5606 207.019 43.3282 207.108 43.1293L211.808 32.5858C211.896 32.388 212.128 32.2986 212.326 32.3869C212.524 32.4752 212.613 32.7076 212.524 32.9064L207.824 43.4499C207.758 43.5963 207.614 43.6834 207.465 43.6834Z" fill="black"/>
<path d="M224.22 70.807C224.205 70.807 224.19 70.8059 224.175 70.8048C223.96 70.7802 223.805 70.5858 223.83 70.3701L225.209 58.1306C225.233 57.915 225.429 57.7597 225.642 57.7843C225.857 57.8089 226.012 58.0033 225.988 58.2189L224.608 70.4584C224.586 70.6595 224.417 70.807 224.22 70.807Z" fill="black"/>
<path d="M234.97 125.591C234.963 125.591 234.957 125.591 234.951 125.591L215.615 124.65C215.399 124.64 215.232 124.455 215.243 124.238C215.253 124.022 215.427 123.852 215.654 123.865L234.99 124.807C235.206 124.817 235.373 125.002 235.362 125.218C235.351 125.428 235.178 125.591 234.97 125.591Z" fill="black"/>
<path d="M220.562 115.905C220.404 115.905 220.255 115.808 220.196 115.65L215.267 102.468C215.192 102.264 215.294 102.038 215.497 101.962C215.7 101.886 215.926 101.988 216.002 102.192L220.93 115.373C221.006 115.576 220.903 115.803 220.7 115.879C220.655 115.897 220.608 115.905 220.562 115.905Z" fill="black"/>
<path d="M116.783 40.8356L116.204 40.7886C116.4 38.3664 117.073 35.9353 118.149 33.7578L118.669 34.017C117.626 36.1286 116.973 38.486 116.783 40.8356Z" fill="black"/>
<path d="M119.751 33.2721L119.387 34.1609L119.87 34.36L120.234 33.4713L119.751 33.2721Z" fill="black"/>
</g>
<defs>
<clipPath id="clip0_189_5307">
<rect width="256" height="245" fill="white"/>
</clipPath>
</defs>
</svg>
