<svg width="256" height="245" viewBox="0 0 256 245" fill="none" xmlns="http://www.w3.org/2000/svg">
<path d="M155.494 204.451C154.679 204.212 192.609 194.184 223.203 186.169L220.741 183.319C168.794 192.224 84.0601 206.233 76.1774 204.265C67.9896 202.22 161.56 183.278 218.726 171.82L254.983 131.332L240.688 94.6371L183.785 126.202L233.393 75.9092L228.949 64.5017L161.503 106.687L219.421 40.0424L208.683 12.4785L136.653 37.6979V65.8411L103.701 22.4484L6.42773 95.7935L40.797 174.838L25.8539 225.265L254.983 222.968L236.886 202.014C201.26 203.222 156.314 204.692 155.494 204.451Z" fill="#C8FFF8"/>
<path d="M254.982 222.968L236.886 202.014C201.258 203.221 156.313 204.692 155.493 204.451C154.678 204.212 192.608 194.184 223.202 186.169L220.74 183.319C168.793 192.224 84.0588 206.233 76.1761 204.265C67.9883 202.221 161.559 183.278 218.725 171.82L229.382 159.919C205.159 147.38 177.232 143.18 150.058 141.495C144.655 141.159 139.055 140.858 134.248 138.226C130.554 136.206 127.616 132.96 124.676 129.849C108.843 113.094 89.6951 98.0511 67.4699 95.2187C51.5722 93.1938 35.394 97.684 21.0846 105.292C18.2238 106.814 15.4292 108.457 12.6899 110.196L40.7978 174.84L25.8548 225.266L254.982 222.968Z" fill="#40C4B3"/>
<path d="M27.6171 39.9101C29.7313 42.3483 31.9905 44.6443 34.3819 46.7765C32.5142 43.1479 31.0763 39.2743 30.0971 35.2753C34.4961 27.9368 40.6518 21.6396 47.6759 18.6141C49.6514 17.7637 51.6994 17.26 53.7804 17.0307C53.8338 23.1371 54.3596 29.1971 55.9362 35.0573C56.6861 28.9137 58.2295 22.8819 60.4898 17.1685C65.2418 17.8258 69.9448 19.5514 74.1358 21.6102C79.3795 24.1862 84.1774 28.2598 86.6211 33.806C72.3981 37.491 58.8087 43.8989 46.7073 52.6265C43.006 55.2951 39.6321 57.7514 36.1942 60.7747C32.6763 63.8668 28.7361 66.6202 24.2016 67.6445C22.8054 67.9596 23.4635 52.9879 23.7046 51.6982C24.4352 47.8098 25.7803 43.786 27.6171 39.9101Z" fill="#2A9D8F"/>
<path d="M69.885 205.293C70.013 205.293 70.1389 205.226 70.2114 205.101C70.3234 204.911 70.269 204.659 70.0888 204.54C34.7755 181.193 15.4122 155.687 10.8896 126.562C8.14927 108.914 13.8645 93.0717 19.9531 78.3575C21.7899 73.9192 23.3792 70.259 25.711 66.9319C27.8635 63.8601 30.7777 60.943 34.8812 57.7526C47.6428 47.8336 62.6807 41.8278 77.2237 36.0196C77.4221 35.9405 77.5235 35.7056 77.4477 35.4944C77.3731 35.2844 77.1501 35.1771 76.9517 35.2573C62.3597 41.0847 47.2716 47.1109 34.4257 57.0965C30.2571 60.3355 27.2918 63.3068 25.0923 66.4463C22.5238 70.1122 20.7072 74.5031 19.248 78.0311C13.1136 92.8571 7.35568 108.828 10.1301 126.696C12.6506 142.927 19.8944 158.323 31.663 172.457C41.1852 183.893 53.6215 194.614 69.6813 205.232C69.7453 205.274 69.8157 205.293 69.885 205.293Z" fill="black"/>
<path d="M42.1612 52.5735C42.3468 52.5735 42.511 52.43 42.5409 52.2301L45.086 35.1522L48.8364 21.8904C48.8972 21.6746 48.782 21.4477 48.5783 21.3833C48.3746 21.3189 48.1602 21.4409 48.0994 21.6566L44.3415 34.9444C44.3361 34.9614 44.3329 34.9794 44.3297 34.9975L41.7804 52.1025C41.7473 52.325 41.8903 52.5328 42.1004 52.5678C42.1207 52.5723 42.1409 52.5735 42.1612 52.5735Z" fill="black"/>
<path d="M44.7095 35.4685C44.7617 35.4685 44.8151 35.4572 44.8663 35.4323C45.0604 35.3409 45.1468 35.0992 45.0604 34.8948L40.447 23.9695C40.3606 23.764 40.1334 23.6714 39.9393 23.764C39.7452 23.8555 39.6588 24.0971 39.7452 24.3015L44.3585 35.2268C44.4225 35.3793 44.5633 35.4685 44.7095 35.4685Z" fill="black"/>
<path d="M28.2647 63.5744C28.2797 63.5744 28.2935 63.5733 28.3085 63.5722C28.5197 63.5473 28.6711 63.3452 28.6476 63.1215L27.294 50.439C27.2706 50.2154 27.0775 50.0551 26.8684 50.0799C26.6572 50.1047 26.5058 50.3069 26.5293 50.5305L27.8829 63.213C27.9053 63.4208 28.0717 63.5744 28.2647 63.5744Z" fill="black"/>
<path d="M147.978 83.0613L147.576 82.9867C147.598 82.762 147.62 82.5372 147.643 82.3125L148.045 82.3927C148.022 82.6152 148 82.8388 147.978 83.0613Z" fill="#1A2A43"/>
<path d="M230.935 145.612L230.891 145.051C231.21 145.002 231.532 144.945 231.849 144.879L231.907 145.437C231.586 145.504 231.259 145.562 230.935 145.612ZM232.875 145.216L232.801 144.66C233.116 144.58 233.435 144.491 233.748 144.395L233.836 144.946C233.518 145.043 233.195 145.134 232.875 145.216ZM234.789 144.63L234.688 144.083C234.998 143.972 235.311 143.852 235.619 143.725L235.734 144.266C235.421 144.395 235.103 144.517 234.789 144.63ZM236.669 143.858L236.541 143.323C236.845 143.183 237.151 143.033 237.452 142.877L237.594 143.405C237.287 143.564 236.977 143.716 236.669 143.858ZM238.506 142.911L238.351 142.389C238.647 142.22 238.946 142.041 239.238 141.858L239.406 142.373C239.109 142.557 238.806 142.739 238.506 142.911ZM240.292 141.79L240.113 141.285C240.4 141.088 240.69 140.881 240.973 140.671L241.165 141.169C240.877 141.382 240.584 141.592 240.292 141.79ZM242.02 140.506L241.817 140.019C242.094 139.796 242.372 139.562 242.644 139.326L242.86 139.805C242.584 140.043 242.301 140.281 242.02 140.506ZM243.681 139.062L243.454 138.594C243.72 138.345 243.986 138.086 244.245 137.825L244.483 138.283C244.222 138.547 243.951 138.809 243.681 139.062ZM245.268 137.464L245.019 137.019C245.272 136.746 245.525 136.462 245.771 136.176L246.031 136.61C245.781 136.899 245.525 137.187 245.268 137.464ZM246.772 135.719L246.501 135.299C246.74 135.002 246.978 134.695 247.21 134.386L247.491 134.793C247.257 135.106 247.014 135.418 246.772 135.719ZM248.186 133.832L247.894 133.439C248.117 133.12 248.339 132.791 248.555 132.459L248.857 132.837C248.637 133.174 248.412 133.509 248.186 133.832ZM249.5 131.81L249.188 131.448C249.395 131.106 249.599 130.755 249.795 130.404L250.115 130.751C249.917 131.107 249.709 131.463 249.5 131.81ZM250.704 129.66L250.375 129.33C250.561 128.97 250.747 128.599 250.925 128.228L251.263 128.541C251.083 128.918 250.895 129.294 250.704 129.66ZM251.792 127.395L251.446 127.099C251.614 126.721 251.779 126.332 251.938 125.944L252.291 126.222C252.131 126.617 251.963 127.011 251.792 127.395ZM252.761 125.026L252.4 124.766C252.548 124.37 252.693 123.966 252.832 123.565L253.199 123.808C253.058 124.214 252.911 124.624 252.761 125.026ZM253.605 122.569L253.233 122.343C253.361 121.934 253.486 121.518 253.603 121.103L253.981 121.311C253.863 121.731 253.736 122.155 253.605 122.569ZM254.327 120.037L253.944 119.847C254.05 119.429 254.155 119.001 254.252 118.576L254.639 118.747C254.54 119.179 254.435 119.612 254.327 120.037ZM254.921 117.442L254.529 117.289C254.616 116.861 254.699 116.424 254.775 115.991L255.169 116.125C255.092 116.564 255.008 117.008 254.921 117.442ZM255.387 114.797L254.989 114.681C255.055 114.246 255.116 113.803 255.171 113.363L255.571 113.46C255.516 113.907 255.453 114.356 255.387 114.797ZM255.724 112.115L255.322 112.037C255.367 111.596 255.406 111.148 255.439 110.704L255.843 110.763C255.808 111.213 255.769 111.667 255.724 112.115ZM255.929 109.407L255.523 109.367C255.546 108.922 255.564 108.47 255.576 108.026L255.981 108.047C255.969 108.497 255.952 108.955 255.929 109.407ZM256 106.686L255.594 106.684V106.598C255.594 106.181 255.588 105.759 255.579 105.342L255.985 105.324C255.995 105.746 256 106.174 256 106.598V106.686ZM255.532 104.002C255.511 103.557 255.483 103.107 255.45 102.664L255.854 102.607C255.887 103.056 255.915 103.513 255.937 103.964L255.532 104.002ZM255.333 101.333C255.29 100.891 255.239 100.445 255.183 100.007L255.583 99.9088C255.64 100.354 255.691 100.807 255.736 101.255L255.333 101.333ZM254.999 98.6902C254.943 98.3311 254.883 97.9652 254.819 97.6049C254.807 97.5315 254.793 97.4581 254.78 97.3847L255.173 97.2458C255.187 97.3203 255.2 97.396 255.214 97.4705C255.279 97.8364 255.34 98.208 255.396 98.5728L254.999 98.6902ZM254.527 96.0871C254.438 95.6625 254.344 95.2299 254.243 94.803L254.629 94.6291C254.731 95.0616 254.828 95.4998 254.917 95.9301L254.527 96.0871ZM253.93 93.5336C253.821 93.1158 253.707 92.6934 253.588 92.2767L253.966 92.0689C254.085 92.4913 254.202 92.9193 254.312 93.3417L253.93 93.5336ZM253.22 91.0333C253.094 90.6267 252.962 90.2134 252.827 89.8057L253.196 89.5685C253.333 89.9819 253.467 90.3997 253.594 90.8108L253.22 91.0333ZM252.409 88.5928C252.268 88.1964 252.12 87.7932 251.968 87.3945L252.328 87.1314C252.48 87.5346 252.629 87.9411 252.772 88.3421L252.409 88.5928ZM251.507 86.2121C251.352 85.8247 251.189 85.4317 251.025 85.0444L251.375 84.7586C251.54 85.1494 251.704 85.5458 251.861 85.9377L251.507 86.2121ZM250.524 83.8936C250.354 83.5141 250.178 83.1324 250.002 82.7597L250.341 82.4503C250.52 82.8275 250.698 83.2137 250.869 83.5966L250.524 83.8936ZM249.46 81.6439C249.278 81.278 249.088 80.9087 248.898 80.5473L249.226 80.2142C249.418 80.5789 249.609 80.9516 249.794 81.3221L249.46 81.6439ZM148.192 81.0623L147.791 80.9708C147.843 80.527 147.899 80.0775 147.958 79.6337L148.357 79.7365C148.299 80.1758 148.244 80.6219 148.192 81.0623ZM248.316 79.4711C248.12 79.1176 247.917 78.7618 247.715 78.4163L248.031 78.0605C248.236 78.4106 248.441 78.7697 248.638 79.1266L248.316 79.4711ZM148.544 78.414L148.146 78.3011C148.211 77.8606 148.28 77.4145 148.352 76.9741L148.747 77.0983C148.676 77.5342 148.608 77.9769 148.544 78.414ZM247.096 77.3818C246.888 77.043 246.672 76.703 246.457 76.371L246.758 75.9927C246.976 76.3281 247.194 76.6726 247.404 77.0147L247.096 77.3818ZM148.969 75.7871L148.575 75.6528C148.651 75.2168 148.733 74.7741 148.817 74.3382L149.209 74.4839C149.127 74.9153 149.046 75.3546 148.969 75.7871ZM245.8 75.3851C245.577 75.0587 245.349 74.7357 245.123 74.4229L245.41 74.0231C245.638 74.3393 245.868 74.6668 246.094 74.9955L245.8 75.3851ZM244.43 73.4867C244.196 73.1806 243.957 72.8746 243.718 72.5776L243.989 72.1563C244.232 72.4567 244.474 72.7662 244.709 73.0767L244.43 73.4867ZM149.468 73.184L149.078 73.0282C149.168 72.5956 149.261 72.1574 149.357 71.7272L149.746 71.8932C149.651 72.3212 149.558 72.7549 149.468 73.184ZM242.988 71.6955C242.742 71.4064 242.491 71.1207 242.24 70.844L242.493 70.4024C242.746 70.6825 243.001 70.9728 243.249 71.2653L242.988 71.6955ZM150.04 70.6114L149.654 70.4341C149.755 70.0072 149.862 69.5746 149.97 69.1489L150.353 69.3363C150.246 69.7598 150.141 70.1879 150.04 70.6114ZM241.476 70.023C241.218 69.7542 240.955 69.4888 240.694 69.2336L240.928 68.7717C241.192 69.0292 241.458 69.2979 241.72 69.5712L241.476 70.023ZM239.897 68.478C239.628 68.233 239.354 67.9902 239.082 67.7575L239.294 67.2764C239.57 67.5113 239.848 67.7575 240.12 68.006L239.897 68.478ZM150.683 68.0703L150.303 67.8727C150.416 67.4515 150.534 67.0246 150.653 66.6056L151.031 66.8134C150.914 67.2301 150.796 67.6525 150.683 68.0703ZM238.251 67.0754C237.97 66.854 237.685 66.6361 237.404 66.4305L237.593 65.9314C237.878 66.1403 238.167 66.3605 238.451 66.5853L238.251 67.0754ZM236.542 65.8252C236.253 65.631 235.957 65.4412 235.666 65.2628L235.83 64.7467C236.127 64.9285 236.426 65.1205 236.719 65.3181L236.542 65.8252ZM151.397 65.5666L151.023 65.3486C151.147 64.933 151.277 64.514 151.409 64.1018L151.78 64.33C151.651 64.7388 151.522 65.1544 151.397 65.5666ZM234.777 64.7433C234.478 64.5784 234.175 64.4181 233.874 64.269L234.011 63.7371C234.316 63.8884 234.625 64.0499 234.928 64.2182L234.777 64.7433ZM232.959 63.8432C232.652 63.7088 232.34 63.5823 232.033 63.466L232.14 62.9217C232.452 63.0403 232.769 63.169 233.081 63.3057L232.959 63.8432ZM231.097 63.1374C230.783 63.0369 230.465 62.9443 230.151 62.8618L230.227 62.3073C230.546 62.3909 230.869 62.4858 231.188 62.5874L231.097 63.1374ZM152.18 63.1035L151.812 62.8652C151.948 62.4575 152.089 62.0453 152.232 61.6399L152.597 61.8872C152.456 62.2892 152.315 62.6992 152.18 63.1035ZM229.199 62.6393C228.882 62.575 228.559 62.5174 228.241 62.4711L228.284 61.9098C228.608 61.9572 228.937 62.0148 229.259 62.0803L229.199 62.6393ZM227.278 62.3581C226.968 62.3299 226.653 62.3073 226.313 62.2915L226.327 61.728C226.672 61.7449 226.992 61.7675 227.306 61.7957L227.278 62.3581ZM221.454 62.2734C221.1 62.2723 220.78 62.2678 220.477 62.2587L220.485 61.6941C220.786 61.702 221.103 61.7065 221.455 61.7076L221.454 62.2734ZM222.429 62.27L222.426 61.7054C222.641 61.7031 222.856 61.7009 223.073 61.6986L223.398 61.6952L223.402 62.2599L223.076 62.2633C222.861 62.2655 222.644 62.2678 222.429 62.27ZM225.344 62.2587C225.079 62.2542 224.8 62.252 224.488 62.252H224.373V61.6873H224.488C224.802 61.6873 225.084 61.6896 225.349 61.6941L225.344 62.2587ZM219.5 62.2158C219.16 62.1944 218.832 62.1661 218.522 62.1323L218.554 61.5699C218.859 61.6037 219.184 61.6308 219.518 61.6523L219.5 62.2158ZM217.544 61.9967C217.212 61.9403 216.884 61.8725 216.572 61.7969L216.642 61.2412C216.948 61.3157 217.268 61.3813 217.595 61.4366L217.544 61.9967ZM215.606 61.5202C215.282 61.4129 214.962 61.2909 214.655 61.1576L214.775 60.6189C215.074 60.7477 215.386 60.8663 215.7 60.9713L215.606 61.5202ZM213.724 60.7014C213.423 60.5365 213.119 60.3513 212.819 60.1503L212.995 59.6421C213.286 59.8363 213.581 60.0159 213.872 60.1762L213.724 60.7014ZM153.031 60.6833L152.67 60.4258C152.817 60.026 152.969 59.6217 153.124 59.2242L153.481 59.4919C153.329 59.886 153.177 60.2869 153.031 60.6833ZM211.946 59.5167C211.667 59.2987 211.383 59.0605 211.103 58.8097L211.323 58.3354C211.597 58.5805 211.874 58.8131 212.145 59.0254L211.946 59.5167ZM153.948 58.3117L153.594 58.035C153.753 57.642 153.917 57.2456 154.082 56.8582L154.432 57.1451C154.27 57.5291 154.107 57.9209 153.948 58.3117ZM210.29 58.0418C210.034 57.7877 209.769 57.5133 209.504 57.2264L209.753 56.7814C210.015 57.0638 210.275 57.3337 210.527 57.5833L210.29 58.0418ZM208.74 56.3726C208.5 56.0948 208.256 55.8057 207.996 55.4895L208.263 55.0648C208.522 55.3777 208.761 55.6634 208.999 55.939L208.74 56.3726ZM154.933 55.9909L154.587 55.695C154.757 55.3133 154.932 54.9259 155.108 54.5465L155.449 54.8514C155.274 55.2286 155.1 55.6126 154.933 55.9909ZM207.266 54.586C207.025 54.2833 206.786 53.9773 206.546 53.6712L206.821 53.2568C207.059 53.5617 207.298 53.8666 207.538 54.1681L207.266 54.586ZM155.982 53.7266L155.644 53.4115C155.825 53.0377 156.011 52.6616 156.197 52.2923L156.53 52.6164C156.345 52.9823 156.161 53.3561 155.982 53.7266ZM205.832 52.7519C205.595 52.4459 205.357 52.1387 205.119 51.8349L205.394 51.4193C205.633 51.7242 205.871 52.0314 206.109 52.3386L205.832 52.7519ZM157.093 51.521L156.766 51.1878C156.961 50.8163 157.158 50.4503 157.351 50.1002L157.673 50.4436C157.482 50.7903 157.287 51.1528 157.093 51.521ZM204.401 50.9269C204.141 50.6028 203.903 50.3114 203.673 50.037L203.939 49.6101C204.169 49.8868 204.409 50.1804 204.672 50.5079L204.401 50.9269ZM158.273 49.3876L157.957 49.033C158.165 48.675 158.376 48.3227 158.583 47.9872L158.891 48.3543C158.687 48.6852 158.479 49.033 158.273 49.3876ZM202.933 49.1719C202.685 48.8896 202.431 48.6084 202.176 48.3351L202.424 47.889C202.681 48.1657 202.939 48.4503 203.19 48.736L202.933 49.1719ZM201.404 47.5253C201.144 47.2611 200.879 46.9991 200.615 46.745L200.847 46.2808C201.113 46.5372 201.381 46.8026 201.644 47.0702L201.404 47.5253ZM159.531 47.3492L159.232 46.9686C159.455 46.6298 159.682 46.2966 159.907 45.9804L160.196 46.3768C159.975 46.6874 159.752 47.0149 159.531 47.3492ZM199.813 45.9928C199.544 45.7478 199.269 45.505 198.997 45.27L199.211 44.7901C199.487 45.0272 199.764 45.2734 200.036 45.5208L199.813 45.9928ZM160.887 45.4372L160.609 45.0261C160.85 44.7122 161.095 44.405 161.338 44.1136L161.603 44.5416C161.365 44.8273 161.123 45.1289 160.887 45.4372ZM198.168 44.5778C197.89 44.3519 197.606 44.1283 197.327 43.9148L197.523 43.4202C197.807 43.637 198.093 43.8618 198.374 44.091L198.168 44.5778ZM162.348 43.6924L162.099 43.2474C162.359 42.9651 162.625 42.6906 162.888 42.4343L163.122 42.8962C162.864 43.148 162.603 43.4157 162.348 43.6924ZM196.472 43.2813C196.188 43.0757 195.896 42.8736 195.607 42.6782L195.784 42.1711C196.077 42.3688 196.371 42.5732 196.659 42.781L196.472 43.2813ZM163.924 42.1576L163.708 41.6787L163.784 41.6132C164.036 41.3975 164.296 41.1863 164.558 40.9865L164.754 41.4811C164.498 41.6765 164.243 41.8832 163.998 42.0932L163.924 42.1576ZM194.73 42.1056C194.437 41.9204 194.14 41.7386 193.844 41.5635L194.003 41.044C194.302 41.2202 194.602 41.4043 194.898 41.5918L194.73 42.1056ZM192.949 41.052C192.651 40.8871 192.346 40.7256 192.045 40.572L192.184 40.0423C192.488 40.1982 192.797 40.3608 193.099 40.5268L192.949 41.052ZM165.608 40.8679L165.431 40.3597C165.721 40.1643 166.022 39.9746 166.326 39.795L166.485 40.3145C166.187 40.4907 165.892 40.677 165.608 40.8679ZM191.133 40.1236C190.829 39.9802 190.518 39.8402 190.212 39.7069L190.334 39.1682C190.643 39.3026 190.957 39.4449 191.264 39.5895L191.133 40.1236ZM167.38 39.8176L167.238 39.2891C167.539 39.1332 167.851 38.9807 168.164 38.8384L168.29 39.3749C167.983 39.5149 167.676 39.664 167.38 39.8176ZM189.284 39.3207C188.975 39.1976 188.661 39.079 188.35 38.9672L188.452 38.4206C188.767 38.5335 189.084 38.6544 189.396 38.7775L189.284 39.3207ZM169.214 38.9819L169.103 38.4387C169.411 38.3167 169.73 38.1981 170.05 38.0886L170.147 38.6363C169.831 38.7458 169.518 38.8622 169.214 38.9819ZM187.41 38.6465C187.096 38.5448 186.778 38.4477 186.465 38.3573L186.547 37.8051C186.865 37.8966 187.186 37.9948 187.503 38.0965L187.41 38.6465ZM171.089 38.3348L171.003 37.7825C171.316 37.6899 171.639 37.6007 171.963 37.5171L172.037 38.0727C171.717 38.1552 171.397 38.2433 171.089 38.3348ZM185.514 38.101C185.198 38.0208 184.877 37.9463 184.56 37.8774L184.623 37.3195C184.943 37.3884 185.267 37.464 185.587 37.5453L185.514 38.101ZM172.992 37.848L172.929 37.2901C173.25 37.2201 173.575 37.1557 173.897 37.0981L173.95 37.6583C173.631 37.7159 173.309 37.7802 172.992 37.848ZM183.602 37.6876C183.282 37.63 182.959 37.577 182.641 37.5307L182.684 36.9694C183.006 37.0157 183.332 37.0699 183.655 37.1275L183.602 37.6876ZM174.911 37.5047L174.869 36.9434C175.191 36.8982 175.519 36.8576 175.844 36.8237L175.875 37.3861C175.554 37.42 175.23 37.4606 174.911 37.5047ZM181.677 37.4076C181.356 37.3726 181.031 37.3421 180.711 37.3183L180.734 36.7548C181.057 36.7785 181.385 36.809 181.71 36.8452L181.677 37.4076ZM176.84 37.3037L176.82 36.7401C177.143 36.7187 177.472 36.7017 177.798 36.6916L177.808 37.2562C177.486 37.2653 177.16 37.2822 176.84 37.3037ZM179.744 37.263C179.423 37.2506 179.097 37.2427 178.776 37.2416L178.777 36.6769C179.102 36.678 179.431 36.6848 179.755 36.6983L179.744 37.263Z" fill="black"/>
<path d="M229.454 145.782L229.431 145.218C229.592 145.206 229.754 145.192 229.915 145.175L229.944 145.738C229.78 145.754 229.617 145.769 229.454 145.782Z" fill="#1A2A43"/>
<path d="M94.9282 219.505C100.468 219.505 104.959 214.988 104.959 209.417C104.959 203.845 100.468 199.328 94.9282 199.328C89.3882 199.328 84.8972 203.845 84.8972 209.417C84.8972 214.988 89.3882 219.505 94.9282 219.505Z" fill="#188779"/>
<path d="M144.641 221.311C150.181 221.311 154.672 216.794 154.672 211.223C154.672 205.651 150.181 201.134 144.641 201.134C139.101 201.134 134.61 205.651 134.61 211.223C134.61 216.794 139.101 221.311 144.641 221.311Z" fill="#188779"/>
<path d="M25.3323 71.0553L25.3579 70.9853C26.0779 69.0451 28.2561 68.0942 30.1579 68.8904L66.5677 84.1579C68.2338 84.857 69.484 86.2935 69.9501 88.0474L98.2457 192.48H144.334H147.653C148.407 192.48 149.018 193.094 149.018 193.852V197.524V204.372H144.336V197.524H99.6143H96.442V205.275H91.7593V197.415L64.7245 93.1498C64.3224 91.5935 63.212 90.3196 61.7304 89.7154L27.3729 75.7138C25.5488 74.9741 24.6454 72.9086 25.3323 71.0553Z" fill="white"/>
<path d="M96.9027 205.742H91.2952V197.476L64.2754 93.2684C63.9116 91.8601 62.8951 90.6946 61.5543 90.148L27.1968 76.1465C25.1285 75.304 24.1184 72.9956 24.8992 70.8927L24.9248 70.8227C25.3173 69.7645 26.1003 68.9345 27.1307 68.485C28.1611 68.0355 29.2992 68.0276 30.335 68.4613L66.7447 83.7289C68.5303 84.4776 69.8957 86.0474 70.396 87.9266L98.5977 192.014H147.651C148.659 192.014 149.478 192.838 149.478 193.851V204.835H143.87V197.987H96.9017V205.742H96.9027ZM92.22 204.811H95.9779V197.06H144.796V203.907H148.554V193.852C148.554 193.352 148.149 192.944 147.652 192.944H97.8926L97.7998 192.601L69.5042 88.1706C69.0765 86.5658 67.9127 85.2275 66.3895 84.5883L29.9797 69.3207C29.1776 68.9842 28.2965 68.9909 27.4987 69.3388C26.7008 69.6866 26.0949 70.3292 25.7909 71.148L25.7653 71.218C25.1616 72.8454 25.9435 74.632 27.5445 75.2848L61.902 89.2864C63.5116 89.9425 64.7341 91.344 65.1703 93.0346L92.22 197.358V204.811V204.811Z" fill="#2A9D8F"/>
<path d="M154.673 230.883C160.213 230.883 164.704 226.367 164.704 220.795C164.704 215.223 160.213 210.706 154.673 210.706C149.133 210.706 144.642 215.223 144.642 220.795C144.642 226.367 149.133 230.883 154.673 230.883Z" fill="#106A5F"/>
<path d="M154.673 227.72C158.476 227.72 161.559 224.62 161.559 220.795C161.559 216.97 158.476 213.87 154.673 213.87C150.869 213.87 147.786 216.97 147.786 220.795C147.786 224.62 150.869 227.72 154.673 227.72Z" fill="white"/>
<path d="M84.3266 230.883C89.8666 230.883 94.3576 226.367 94.3576 220.795C94.3576 215.223 89.8666 210.706 84.3266 210.706C78.7867 210.706 74.2957 215.223 74.2957 220.795C74.2957 226.367 78.7867 230.883 84.3266 230.883Z" fill="#084941"/>
<path d="M84.3267 227.778C88.1612 227.778 91.2697 224.651 91.2697 220.795C91.2697 216.938 88.1612 213.812 84.3267 213.812C80.4922 213.812 77.3838 216.938 77.3838 220.795C77.3838 224.651 80.4922 227.778 84.3267 227.778Z" fill="white"/>
<path d="M172.061 125.684L156.01 174.613H75.7614L63.2227 125.684H172.061Z" fill="#AD6AD1"/>
<path d="M172.061 125.684L156.01 174.613H75.7614L63.2227 125.684H172.061Z" fill="#AD6AD1"/>
<path d="M13.7693 79.0002L13.7981 78.9324C14.5608 77.1074 16.6387 76.2367 18.4648 76.9764L54.6911 91.6737C56.5909 92.4439 58.0223 94.0645 58.5621 96.051L87.9414 204.371H156.123C156.615 204.371 157.014 204.881 157.014 205.51V205.522V210.79V218.325C157.014 219.612 155.976 220.656 154.696 220.656H154.649C153.369 220.656 152.331 219.612 152.331 218.325V210.79H87.039V218.325C87.039 219.612 86.0011 220.656 84.7211 220.656H84.6742C83.3942 220.656 82.3563 219.612 82.3563 218.325V210.79H82.2816V209.414L52.9759 99.613C52.7274 98.6812 52.0522 97.9246 51.1572 97.5756L15.7864 83.7762C13.8963 83.041 12.9842 80.8805 13.7693 79.0002Z" fill="white"/>
<path d="M154.696 221.123H154.649C153.116 221.123 151.868 219.869 151.868 218.327V211.256H87.501V218.327C87.501 219.869 86.254 221.123 84.7202 221.123H84.6732C83.1404 221.123 81.8924 219.869 81.8924 218.327V211.256H81.8177V209.477L52.528 99.7349C52.3179 98.9489 51.7429 98.304 50.9888 98.0104L15.618 84.211C14.5865 83.8089 13.7801 83.0229 13.3481 81.9986C12.9161 80.9743 12.9139 79.8449 13.3417 78.8195L13.3705 78.7517C14.2259 76.7042 16.5876 75.7138 18.6366 76.545L54.8629 91.2423C56.8843 92.0622 58.4331 93.8138 59.007 95.929L88.2935 203.907H156.122C156.868 203.907 157.475 204.626 157.475 205.511V218.327C157.476 219.87 156.229 221.123 154.696 221.123ZM86.5762 210.327H152.793V218.327C152.793 219.356 153.625 220.193 154.649 220.193H154.696C155.719 220.193 156.552 219.356 156.552 218.327V205.511C156.552 205.114 156.327 204.837 156.124 204.837H87.5884L58.1163 96.1741C57.6181 94.3378 56.2731 92.8177 54.5184 92.1051L18.2921 77.4078C16.7102 76.7663 14.8862 77.5309 14.2249 79.112L14.1961 79.1797C13.8654 79.9725 13.8665 80.8444 14.2003 81.6349C14.5342 82.4255 15.1571 83.0331 15.9539 83.3436L51.3248 97.1431C52.3531 97.544 53.1371 98.4226 53.4229 99.4932L82.7447 209.353V210.326H82.8193V218.326C82.8193 219.355 83.6513 220.192 84.6753 220.192H84.7223C85.7452 220.192 86.5783 219.355 86.5783 218.326V210.327H86.5762Z" fill="#2A9D8F"/>
<path d="M172.06 125.684L156.01 174.613H75.7611L63.2224 125.684H172.06Z" fill="white"/>
<path d="M156.345 175.077H75.4027L62.625 125.219H172.698L172.498 125.829L156.345 175.077ZM76.1195 174.147H155.675L171.42 126.15H63.8197L76.1195 174.147Z" fill="#2A9D8F"/>
<path d="M73.8274 130.274L76.0674 140.156L66.9132 140.085L67.0892 140.773L76.2231 140.844L78.1346 149.276L69.262 149.251L69.438 149.939L78.2903 149.964L80.1986 158.383L71.6076 158.405L71.7836 159.092L80.3543 159.07L82.2594 167.474L73.95 167.546L74.126 168.232L82.4151 168.16L83.8786 174.614H84.2295L84.5624 174.537L83.1149 168.153L91.9608 168.076L92.9976 174.613H93.3432L93.6803 174.558L92.652 168.069L101.517 167.992L102.114 174.613H102.458L102.797 174.582L102.202 167.987L111.083 167.91L111.23 174.613H111.574L111.913 174.605L111.766 167.903L120.659 167.826L120.344 174.596L120.684 174.612H121.027L121.342 167.82L130.245 167.743L129.459 174.572L129.798 174.612H130.142L130.934 167.737L139.843 167.66L138.578 174.551L138.914 174.613H139.261L140.539 167.655L149.451 167.578L147.697 174.529L148.027 174.614H148.379L150.156 167.572L158.344 167.501L158.57 166.812L150.33 166.883L152.35 158.878L161.18 158.854L161.405 158.166L152.523 158.19L154.546 150.177L164.018 150.204L164.243 149.518L154.718 149.49L156.742 141.472L166.855 141.551L167.08 140.866L156.915 140.787L159.349 131.141L170.234 131.252L170.458 130.567L159.522 130.456L160.65 125.984L159.988 125.815L158.819 130.45L147.391 130.333L148.2 125.931L147.528 125.807L146.698 130.327L135.25 130.21L135.748 125.878L135.069 125.799L134.563 130.204L123.097 130.087L123.295 125.824L122.613 125.792L122.413 130.08L110.933 129.964L110.841 125.77L110.158 125.784L110.25 129.956L98.7576 129.84L98.3853 125.716L97.7048 125.778L98.0707 129.833L86.5698 129.717L85.9309 125.686H85.7794L85.2525 125.771L85.8765 129.71L74.3703 129.594L73.4839 125.686H73.134L72.8012 125.763L73.6684 129.587L64.1953 129.491L64.3713 130.18L73.8274 130.274ZM99.02 140.335L88.2413 140.251L86.6808 130.405L98.1347 130.521L99.02 140.335ZM89.677 149.307L88.3501 140.938L99.0819 141.022L99.8318 149.336L89.677 149.307ZM99.8947 150.023L100.645 158.328L91.1117 158.352L89.7869 149.995L99.8947 150.023ZM110.48 140.424L99.707 140.341L98.8216 130.527L110.267 130.643L110.48 140.424ZM110.677 149.366L100.519 149.338L99.7688 141.027L110.495 141.111L110.677 149.366ZM110.872 158.3L101.329 158.325L100.581 150.026L110.692 150.054L110.872 158.3ZM122.581 141.206L133.289 141.289L132.352 149.427L122.2 149.399L122.581 141.206ZM143.059 150.144L141.576 158.218L132.025 158.243L132.96 150.115L143.059 150.144ZM133.039 149.429L133.976 141.295L144.669 141.378L143.186 149.459L133.039 149.429ZM131.338 158.245L121.787 158.27L122.168 150.084L132.274 150.113L131.338 158.245ZM134.486 130.888L133.368 140.603L122.613 140.519L123.066 130.773L134.486 130.888ZM146.573 131.011L144.795 140.692L134.055 140.608L135.173 130.896L146.573 131.011ZM156.212 140.781L145.489 140.697L147.267 131.018L158.647 131.133L156.212 140.781ZM154.014 149.488L143.879 149.46L145.363 141.383L156.039 141.466L154.014 149.488ZM151.818 158.191L142.271 158.216L143.754 150.145L153.842 150.174L151.818 158.191ZM140.664 166.966L142.144 158.904L151.644 158.879L149.623 166.889L140.664 166.966ZM131.012 167.049L131.946 158.931L141.449 158.906L139.967 166.973L131.012 167.049ZM121.374 167.133L121.755 158.958L131.259 158.933L130.325 167.056L121.374 167.133ZM111.569 158.985L121.07 158.96L120.689 167.14L111.75 167.218L111.569 158.985ZM111.374 150.055L121.484 150.083L121.103 158.272L111.556 158.297L111.374 150.055ZM111.179 141.116L121.898 141.2L121.516 149.397L111.359 149.368L111.179 141.116ZM110.95 130.65L122.383 130.766L121.93 140.514L111.164 140.431L110.95 130.65ZM101.391 159.012L110.887 158.987L111.067 167.223L102.139 167.3L101.391 159.012ZM91.2195 159.039L100.705 159.014L101.454 167.306L92.5421 167.383L91.2195 159.039ZM81.0551 159.066L90.5293 159.041L91.853 167.389L82.9602 167.466L81.0551 159.066ZM78.9911 149.965L89.0936 149.993L90.4194 158.355L80.8983 158.379L78.9911 149.965ZM76.925 140.85L87.6578 140.933L88.9848 149.306L78.8354 149.278L76.925 140.85ZM74.5292 130.28L85.9885 130.397L87.5501 140.246L76.7703 140.162L74.5292 130.28Z" fill="#40C4B3"/>
<path d="M61.057 126.487H173.264C175.453 126.487 177.228 124.703 177.228 122.5C177.228 120.298 175.453 118.514 173.264 118.514H61.057C58.8682 118.514 57.0933 120.298 57.0933 122.5C57.0922 124.703 58.8671 126.487 61.057 126.487Z" fill="white"/>
<path d="M173.265 126.952H61.0571C58.6165 126.952 56.6304 124.955 56.6304 122.5C56.6304 120.045 58.6165 118.048 61.0571 118.048H173.266C175.706 118.048 177.692 120.045 177.692 122.5C177.692 124.955 175.705 126.952 173.265 126.952ZM61.0571 118.979C59.1264 118.979 57.5552 120.559 57.5552 122.5C57.5552 124.442 59.1264 126.022 61.0571 126.022H173.266C175.196 126.022 176.767 124.442 176.767 122.5C176.767 120.559 175.196 118.979 173.266 118.979H61.0571Z" fill="#2A9D8F"/>
<path d="M28.2027 80.928L28.7456 81.1483C26.8512 82.6785 25.6704 84.9417 24.9365 87.3484L24.4597 87.162C25.1947 84.7125 26.3232 82.499 28.2027 80.928Z" fill="#D1ACE5"/>
<path d="M17.3898 84.3635C18.2581 82.0291 19.4346 79.8664 21.0176 78.0132L21.4997 78.2086C19.8912 80.0573 18.7093 82.2234 17.8293 84.5758L17.376 84.3985C17.3813 84.3872 17.3856 84.3748 17.3898 84.3635Z" fill="#D1ACE5"/>
<path d="M24.5195 79.4339L24.9942 79.627C23.4102 81.5187 22.239 83.6655 21.3302 85.9412L20.8779 85.765C21.7857 83.4871 22.9526 81.3368 24.5195 79.4339Z" fill="#D1ACE5"/>
<path d="M32.5878 77.4407C33.0476 76.195 33.5948 75.0171 34.3158 73.9024C34.8833 73.0261 35.5308 72.2028 36.2476 71.4461L36.7361 71.6505C35.9596 72.4546 35.263 73.3378 34.6508 74.2841C33.902 75.4406 33.4134 76.71 32.9334 77.9839L32.4587 77.7908C32.5025 77.6733 32.5452 77.557 32.5878 77.4407Z" fill="#D1ACE5"/>
<path d="M30.624 69.0869L31.088 69.2811C29.6043 71.2744 28.3872 73.4529 27.5755 75.7985L27.3717 75.7161C27.2875 75.6811 27.2053 75.6438 27.1243 75.6032C27.9381 73.2632 29.1499 71.0847 30.624 69.0869Z" fill="#D1ACE5"/>
<path d="M32.8641 70.0266L33.3153 70.2163C31.8657 72.1859 30.8161 74.4378 29.8827 76.7405L29.4358 76.5587C30.3745 74.2525 31.4273 72.0074 32.8641 70.0266Z" fill="#D1ACE5"/>
<path d="M88.9955 60.6597C90.6051 61.5304 92.3949 62.0928 94.2019 62.0273C96.0078 61.9618 97.8296 61.2221 99.0478 59.8093C100.267 58.3964 100.796 56.2812 100.185 54.481C99.8286 53.4307 99.1246 52.5465 98.331 51.8124C97.3624 50.9168 96.22 50.2031 94.9667 49.9004C93.1811 49.469 91.292 49.8993 89.6184 50.6876C85.6099 52.5736 84.7853 58.3818 88.9955 60.6597Z" fill="#146D60"/>
<path d="M114.679 30.8122C116.469 31.4819 118.392 32.1482 120.275 32.4418C122.17 32.7377 123.979 33.2019 125.928 33.081C126.19 31.6423 126.452 30.2046 126.714 28.7658C126.914 27.6692 127.115 26.5681 127.188 25.4535C127.251 24.4755 127.4 23.6465 127.541 22.6911C127.894 20.2878 128.138 17.7818 127.793 15.3628C127.415 12.719 126.306 10.2446 124.93 8.00173C124.25 6.89498 123.489 5.81984 122.489 5.03156C121.51 4.25909 120.333 3.7938 119.127 3.58826C116.324 3.11281 113.401 4.05129 111.091 5.79725C108.78 7.54322 107.044 10.0436 105.805 12.7484C104.883 14.7642 104.211 16.9461 104.157 19.1856C104.104 21.4804 104.781 23.5426 106.036 25.3925C107.188 27.091 109.419 28.3005 111.151 29.2266C112.293 29.8364 113.474 30.3605 114.679 30.8122Z" fill="black"/>
<path d="M127.267 18.7881C128.23 16.7169 128.782 14.3791 128.604 12.0628C128.454 10.1102 128.38 8.13048 127.08 6.60135C126.34 5.73062 125.41 5.06883 124.462 4.4635C123.7 3.97563 122.911 3.51598 122.06 3.23704C121.078 2.91517 120.038 2.8429 119.011 2.8429C116.789 2.84402 114.515 3.19751 112.567 4.32798C109.385 6.17559 108.634 9.44616 108.171 12.9934C107.732 16.3634 107.611 19.8 108.103 23.162C108.595 26.523 109.718 29.8139 111.608 32.5649C112.084 33.2584 112.625 33.9314 113.336 34.3414C114.047 34.7513 114.963 34.8541 115.655 34.4092C116.216 34.0489 116.544 33.4029 116.859 32.7931C117.44 31.6649 118.06 30.5558 118.799 29.5372C119.948 27.955 121.364 26.6167 122.692 25.2005C124.483 23.2919 126.144 21.2026 127.267 18.7881Z" fill="#EA5E5E"/>
<path d="M114.694 230.754L113.621 238.967L114.694 243.875H140.836L139.46 240.14L129.36 234.609L124.39 230.084L126.09 224.82L117.162 221.537L114.694 230.754Z" fill="#264653"/>
<path d="M126.369 238.724C126.775 238.782 127.192 238.834 127.592 238.738C128.471 238.528 129.057 237.675 129.561 236.885C129.9 236.351 130.242 235.815 130.564 235.268L129.361 234.609L124.39 230.084L126.09 224.82L121.809 223.245C119.962 222.614 117.151 221.606 117.162 221.538L117.155 221.564C117.138 221.633 117.119 221.701 117.099 221.769L114.693 230.756L114.063 235.574C117.725 237.476 122.417 238.166 126.369 238.724Z" fill="#FFA386"/>
<path d="M99.2324 229.246V242.822L106.158 245L118.875 243.324L117.162 240.476L114.694 237.123L110.432 227.403L99.2324 229.246Z" fill="#264653"/>
<path d="M99.4138 228.094C98.8474 231.39 101.047 234.464 102.637 237.066C102.986 237.637 103.356 238.216 103.888 238.595C105.194 239.524 106.825 238.511 108.247 238.3C109.187 238.16 110.136 238.086 111.084 238.078C111.689 238.074 113.142 238.469 113.496 237.848C113.826 237.267 112.96 235.839 112.757 235.3C112.416 234.4 112.087 233.492 111.86 232.551C111.426 230.754 111.275 228.921 110.628 227.179C109.763 224.852 107.747 222.413 105.213 222.819C103.187 223.143 101.328 224.028 100.185 225.882C99.8084 226.492 99.5567 227.265 99.4138 228.094Z" fill="#FFA386"/>
<path d="M138.352 90.6132C140.603 90.0147 142.856 89.4172 145.108 88.8187C146.2 88.5284 147.311 88.2303 148.275 87.6137C148.633 87.3844 148.966 87.1134 149.298 86.8435C150.828 85.6001 152.358 84.3567 153.889 83.1133C154.184 82.8727 154.514 82.5305 154.41 82.1522C154.313 81.7987 153.902 81.6779 153.555 81.6598C151.22 81.5378 149.267 83.3685 147.198 84.5204C144.514 86.0145 141.46 86.4008 138.596 87.3426C137.6 87.6702 135.868 88.0586 135.601 89.345C135.168 91.4297 137.216 90.9147 138.352 90.6132Z" fill="#FF8266"/>
<path d="M127.832 75.0531C127.913 77.9838 128.066 80.911 128.289 83.8326C128.332 84.4029 128.383 84.9879 128.625 85.4984C128.916 86.1116 129.451 86.5476 129.985 86.9383C131.152 87.7932 132.394 88.5318 133.69 89.1428C134.558 89.5516 135.459 89.9051 136.402 90.0192C139.302 90.3704 141.966 88.4505 144.32 86.6232C143.098 85.4815 141.877 84.3397 140.656 83.1979C138.18 80.8839 138.517 78.0255 138.488 74.7832C138.456 71.1614 138.465 67.6379 138.207 64.0262C137.93 60.1593 137.653 56.2936 137.377 52.4267C137.366 52.2822 137.352 52.1275 137.264 52.0179C137.142 51.8666 136.928 51.8564 136.74 51.8598C134.734 51.8993 132.71 52.2494 130.767 52.7271C128.449 53.2963 128.328 55.5539 128.187 57.6172C127.991 60.4914 127.863 63.3701 127.803 66.251C127.741 69.1851 127.751 72.1202 127.832 75.0531Z" fill="#FF8266"/>
<path d="M130.71 59.9572C132.852 59.213 135.352 58.6031 137.811 58.5015C137.666 56.4766 137.52 54.4516 137.376 52.4267C137.366 52.2822 137.352 52.1275 137.263 52.0179C137.142 51.8666 136.927 51.8564 136.74 51.8598C134.733 51.8993 132.71 52.2494 130.766 52.7271C128.448 53.2963 128.328 55.5539 128.187 57.6172C128.109 58.7522 128.043 59.8872 127.987 61.0233C128.899 60.6834 129.773 60.2824 130.71 59.9572Z" fill="#FF7252"/>
<path d="M137.438 56.6347C138.101 56.812 138.734 57.0853 139.308 57.4805C139.17 57.3846 139.373 55.2953 139.37 55.0141C139.358 54.0541 139.305 53.0953 139.21 52.1399C139.059 50.6153 139.191 49.0692 138.716 47.6101C138.035 45.5163 136.677 43.7252 135.082 42.292C132.067 39.5816 127.699 36.8294 123.593 37.7927C124.439 39.4054 125.285 41.0181 126.131 42.632C126.869 44.0391 127.842 45.4553 128.401 46.9336C129.556 49.9896 129.779 53.1292 130.143 56.3659C130.164 56.5455 130.2 56.7521 130.349 56.8391C130.45 56.8978 130.571 56.8843 130.684 56.8673C132.147 56.6606 133.604 56.3715 135.079 56.358C135.869 56.3512 136.673 56.4291 137.438 56.6347Z" fill="#2A9D8F"/>
<path d="M134.346 89.5279L155.665 82.2007L150.806 80.8478L136.181 85.905L134.346 89.5279Z" fill="#888582"/>
<path d="M94.0078 98.4576L85.8318 117.792L88.8601 129.803L95.5225 174.624L92.1913 186.927L98.2681 230.576L107.637 232.627L112.777 229.405L109.69 179.521L112.425 169.561L109.453 128.63L114.451 101.094L94.0078 98.4576Z" fill="#264653"/>
<path d="M104.766 128.213L121.648 170.801L116.575 182.946L113.411 231.094L117.533 233.36L127.993 231.964L135.042 179.164L139.46 170.542L125.249 114.716L126.732 99.5033L110.411 97.7246L104.766 128.213Z" fill="#264653"/>
<path d="M119.351 37.5239C115.685 37.5239 112.04 37.5386 108.417 37.2439C104.911 36.9593 100.73 38.1191 97.4094 39.0881C94.6809 39.8843 89.5779 40.8261 89.0552 44.0809C88.9987 44.4344 89.1619 44.9347 89.2067 45.2904C89.3336 46.3102 89.4595 47.3289 89.5864 48.3487C89.9224 51.0523 90.2584 53.7549 90.5934 56.4585C91.4755 63.5632 92.3587 70.6679 93.2408 77.7726C93.6974 81.4452 94.1529 85.1167 94.6094 88.7893L90.0248 104.023L104.391 109.59L128.232 106.368V78.85C129.693 76.5292 130.211 73.4856 131.475 71.0632C132.841 68.4431 133.746 65.8016 134.02 62.7998C134.325 59.4626 133.947 56.0903 133.286 52.8107C133.034 51.5605 132.739 50.2991 132.798 49.0229C132.903 46.7812 133.91 44.4107 133.054 42.1904C132.246 40.0932 129.733 38.8329 127.819 38.2795C125.113 37.4946 122.136 37.5239 119.351 37.5239Z" fill="#2A9D8F"/>
<path d="M108.915 27.2672C108.737 30.9771 109.024 34.7977 109.024 38.4251L105.981 39.8696C107.676 41.489 109.37 43.1074 111.065 44.7269C112.325 45.9308 113.584 47.1346 114.845 48.3385C115.328 48.8004 115.812 49.2612 116.295 49.7242C117.104 50.4989 118.13 50.5961 119.231 50.6119C120.672 50.6333 122.112 50.0359 123.157 48.9845C124.1 48.0347 124.186 46.7089 124.52 45.4361L122.583 38.9909C121.663 38.8023 120.743 38.5934 119.82 38.4319C119.675 33.8852 119.646 29.3509 119.186 24.8008C119.047 23.4331 118.878 22.035 118.288 20.8085C117.682 19.5471 116.365 18.0371 114.941 17.9773C113.544 17.9185 111.667 18.2732 110.687 19.4014C110.069 20.114 109.788 21.0773 109.576 22.0192C109.192 23.7211 109 25.4817 108.915 27.2672Z" fill="#FFA386"/>
<path d="M119.697 33.9947C119.61 30.9319 119.496 27.8703 119.186 24.8007C119.047 23.4331 118.879 22.035 118.289 20.8085C117.812 19.817 116.897 18.6729 115.836 18.1986C114.58 18.2009 113.335 18.5453 112.278 19.267C107.58 22.4788 110.994 29.6411 114.522 32.3809C116.003 33.5317 117.889 34.1743 119.697 33.9947Z" fill="black"/>
<path d="M128.234 105.769L127.994 79.6924C127.988 79.0058 127.981 78.2966 128.136 77.6009C128.289 76.9188 128.585 76.2976 128.873 75.6968L131.589 70.023C132.356 68.4216 133.148 66.7648 133.58 65.0053C134.437 61.5156 133.839 57.7403 133.311 54.4087L132.353 48.3656L132.796 48.2865L133.754 54.3296C134.29 57.7075 134.897 61.5371 134.017 65.125C133.573 66.9342 132.769 68.6136 131.991 70.2387L129.275 75.9125C129 76.4885 128.715 77.0836 128.575 77.7104C128.432 78.3496 128.438 79.0295 128.444 79.6879L128.684 105.764L128.234 105.769Z" fill="black"/>
<path d="M155.651 82.1815L134.333 89.5096L134.64 90.5085L155.958 83.1804L155.651 82.1815Z" fill="black"/>
<path d="M120.898 30.5276C122.768 29.2108 124.122 27.2322 125.139 25.083C126.765 21.643 127.743 17.8067 128.159 14.0008C128.462 11.2271 127.726 8.2818 125.942 6.22639C124.157 4.17099 121.292 3.13877 118.754 3.89882C110.525 6.36304 107.163 20.167 111.291 27.2254C111.839 28.1616 112.482 29.0448 113.274 29.7608C115.164 31.4695 117.552 32.3729 119.894 31.1442C120.244 30.959 120.578 30.7535 120.898 30.5276Z" fill="#FFA386"/>
<path d="M111.333 88.6391C111.829 88.5058 112.324 88.3692 112.818 88.2314C116.042 87.3381 119.267 86.4448 122.491 85.5515C125.451 84.7316 128.204 83.7377 131.05 82.6875C131.282 82.6016 131.522 82.5158 131.767 82.5316C132.109 82.5542 132.408 82.771 132.689 82.9777C134.299 84.1658 135.958 85.2804 137.657 86.3194C138.365 86.752 139.129 87.1845 139.946 87.1438C141.948 87.0422 143.291 84.508 144.182 82.9065C144.28 82.7304 144.376 82.5508 144.429 82.3543C144.699 81.3808 143.879 80.1397 143.445 79.3265C142.997 78.4886 142.404 78.3372 141.575 77.9476C139.712 77.1356 137.848 76.3236 135.985 75.5127C134.267 74.764 132.51 74.0062 130.657 73.8854C129.036 73.7792 127.428 74.1654 125.837 74.5144C119.73 75.8538 113.518 76.6692 107.286 76.9504C105.837 69.5284 105.735 61.8658 104.172 54.3805C103.996 53.5369 103.809 52.6831 103.436 51.9151C103.174 51.3764 102.871 50.9021 102.534 50.4854C99.7455 47.042 94.7204 47.4847 90.8825 47.8201C83.5224 48.4639 92.5411 72.0502 93.7486 75.4664C94.7161 78.2028 95.6878 80.9392 96.7972 83.6158C97.6676 85.7164 98.6425 88.3579 100.778 89.3178C101.973 89.8554 103.307 89.9322 104.604 89.8689C106.883 89.7571 109.118 89.2343 111.333 88.6391Z" fill="#FFA386"/>
<path d="M105.447 62.7173C105.127 59.929 104.749 57.1429 104.172 54.3816C103.996 53.538 103.809 52.6842 103.436 51.9163C103.174 51.3776 102.871 50.9033 102.534 50.4865C101.839 49.6294 101.006 49.0128 100.088 48.5757C97.5288 47.5243 94.5965 47.5254 91.7495 47.7468C91.7389 47.7479 91.7293 47.7479 91.7186 47.749C90.8589 47.8168 90.0962 48.0438 89.4189 48.395C87.0658 50.3375 88.0514 56.786 89.6877 62.9488C91.8754 62.3345 94.14 62.0002 96.4024 61.9144C99.4339 61.7992 102.464 62.1143 105.447 62.7173Z" fill="#FF7252"/>
<path d="M86.5881 57.8284C85.9726 56.7182 90.4345 55.9774 90.778 55.9164C92.6276 55.5878 94.0975 55.511 95.9876 55.8757C100.171 56.6832 104.186 58.4755 107.638 61.108C107.54 57.86 107.11 54.6233 106.357 51.4736C105.74 48.8919 105.005 46.0742 103.008 44.3666C99.5055 41.3727 94.3951 39.1818 90.2105 41.9487C85.6942 44.9335 83.8788 52.9451 86.5881 57.8284Z" fill="#2A9D8F"/>
<path d="M142.89 81.8145C144.72 82.4514 146.295 83.7988 148.294 83.9083C148.864 83.9399 149.49 83.8462 149.882 83.408C149.942 83.3414 149.998 83.2623 150.009 83.1708C150.038 82.9427 149.803 82.788 149.606 82.6909C146.446 81.1459 143.509 77.8042 139.938 77.5806C139.54 77.5557 139.128 77.5704 138.762 77.7387C138.396 77.907 138.085 78.2582 138.047 78.6783C137.89 80.3938 141.8 81.4362 142.89 81.8145Z" fill="#FFA386"/>
<path d="M121.321 22.3297C121.247 22.3297 121.176 22.3241 121.106 22.3173C120.479 22.2552 119.876 22.0745 119.312 21.7797L119.512 21.3528C120.026 21.6216 120.577 21.7865 121.147 21.843C121.278 21.8554 121.416 21.8622 121.527 21.8238C121.69 21.7673 121.834 21.599 121.912 21.372C121.992 21.1394 122.005 20.8695 122.017 20.6086C122.094 18.8807 122.173 17.1528 122.251 15.4249L122.701 15.4475C122.623 17.1754 122.546 18.9033 122.467 20.6312C122.454 20.9135 122.439 21.2343 122.335 21.5347C122.209 21.9028 121.964 22.1739 121.667 22.2767C121.55 22.3173 121.434 22.3297 121.321 22.3297Z" fill="black"/>
<path d="M120.594 26.698C118.973 26.698 117.461 25.379 116.562 23.8464L116.943 23.5946C117.94 25.2931 119.733 26.7138 121.491 26.0577L121.64 26.5072C121.29 26.6382 120.939 26.698 120.594 26.698Z" fill="black"/>
<path d="M118.898 0.772865C116.502 -0.155455 114.387 -0.148679 111.917 0.275954C110.562 0.508598 109.373 1.28107 108.398 2.27941C107.397 3.30485 106.358 4.38902 105.446 5.5161C103.456 7.97468 102.104 10.9369 101.007 13.9365C99.8617 17.067 98.9561 20.2969 98.3023 23.5822C98.2436 23.8747 98.1892 24.1875 98.2948 24.4653C98.3908 24.7161 98.6009 24.8945 98.8047 25.0582C104.043 29.2831 110.226 32.1855 116.7 33.4583C114.254 28.4587 112.667 22.9893 112.042 17.3968C116.559 14.5316 120.687 10.981 124.263 6.88826C124.898 6.16209 125.72 4.68491 124.629 4.0186C123.602 3.39181 122.51 2.88248 121.487 2.25456C120.604 1.71474 119.889 1.15684 118.898 0.772865Z" fill="black"/>
<path d="M130.783 18.7158C130.867 17.0343 130.867 15.3493 130.761 13.662C130.567 10.5371 129.874 7.28012 127.544 5.12985C126.5 4.16539 125.086 3.70236 123.819 3.16253C122.641 2.66111 121.407 2.30536 120.152 2.1066C120.195 3.35791 120.314 4.62277 120.554 5.84924C120.737 6.78434 121.323 7.57826 121.737 8.42301C122.78 10.5563 123.696 12.7676 124.378 15.0613C125.064 17.3685 125.456 19.7594 125.823 22.1468C126.43 26.1017 126.801 30.0454 127.159 34.0376C127.232 34.8553 127.308 35.6853 127.596 36.4477C129.122 30.644 130.486 24.7047 130.783 18.7158Z" fill="black"/>
<path d="M119.896 14.2199C118.951 13.7151 117.875 13.435 116.835 13.8495C116.788 14.1137 116.639 14.7609 116.782 15.0037C116.898 15.1979 117.293 15.2679 117.485 15.3357C118.107 15.5537 118.775 15.5819 119.422 15.6293C119.663 15.6474 119.913 15.653 120.137 15.557C120.361 15.4611 120.554 15.2408 120.554 14.9856C120.555 14.6208 120.203 14.3837 119.896 14.2199Z" fill="black"/>
<path d="M126.193 17.4928C126.388 17.4804 126.6 17.4352 126.725 17.2748C126.894 17.0557 126.825 16.7203 126.676 16.4843C126.3 15.8903 125.565 15.6881 124.891 15.6463C124.301 15.6102 123.322 15.9433 123.88 16.7113C124.332 17.3336 125.507 17.5357 126.193 17.4928Z" fill="black"/>
<path d="M119.033 17.9931C118.349 17.9129 117.662 17.7898 116.992 17.6272L117.094 17.163C117.748 17.3222 118.416 17.4419 119.083 17.5199L119.033 17.9931Z" fill="black"/>
<path d="M125.675 19.6272C125.083 19.5414 124.49 19.4171 123.912 19.259L124.025 18.7971C124.586 18.9507 125.162 19.0715 125.736 19.154L125.675 19.6272Z" fill="black"/>
<path d="M102.822 21.4387L102.661 20.9938C109.451 18.2314 116.174 13.2849 123.216 5.87186L123.534 6.20953C116.446 13.67 109.672 18.6515 102.822 21.4387Z" fill="#919191"/>
<path d="M103.629 18.1026L103.477 17.6543C107.736 16.0291 111.525 13.3402 115.352 10.4954C117.473 8.91767 119.364 7.46646 121.003 5.67645L121.326 6.00848C119.659 7.82898 117.751 9.29487 115.61 10.8861C111.756 13.7501 107.941 16.4572 103.629 18.1026Z" fill="#919191"/>
<path d="M105.09 14.343L104.89 13.9161C110.004 11.2407 114.912 8.04807 119.477 4.42627L119.747 4.80799C115.159 8.4456 110.228 11.6541 105.09 14.343Z" fill="#919191"/>
<path d="M111.788 29.4379C110.748 26.3322 110.069 23.0943 109.771 19.8147L110.219 19.7696C110.513 23.0108 111.184 26.2102 112.213 29.2798L111.788 29.4379Z" fill="#919191"/>
<path d="M109.137 29.4401C108.397 26.7534 107.885 23.9798 107.615 21.1971L108.063 21.1485C108.33 23.9041 108.837 26.6484 109.569 29.3069L109.137 29.4401Z" fill="#919191"/>
<path d="M107.104 27.9878C106.498 26.0871 106.073 24.1141 105.84 22.1231L106.287 22.0644C106.517 24.0238 106.935 25.9651 107.532 27.8353L107.104 27.9878Z" fill="#919191"/>
<path d="M128.145 33.0495L127.697 33.0054C127.888 30.8258 127.808 28.5761 127.736 26.5919C127.613 23.1666 127.337 19.7063 126.914 16.3081C126.471 12.7563 125.533 9.99733 124.049 7.87416L124.41 7.5907C125.942 9.78049 126.907 12.6118 127.36 16.246C127.785 19.6589 128.062 23.1338 128.185 26.575C128.258 28.5728 128.338 30.8393 128.145 33.0495Z" fill="#919191"/>
<path d="M119.087 53.1495C118.162 53.1495 117.177 52.9225 116.19 52.4764C113.907 51.4442 112.157 49.5853 110.466 47.7885C110.132 47.4328 109.785 47.0657 109.443 46.7134C107.251 44.4547 105.048 42.1396 102.896 39.8312L103.216 39.4969C105.366 41.803 107.565 44.1159 109.755 46.3723C110.101 46.7281 110.447 47.0962 110.782 47.4531C112.444 49.2183 114.162 51.0433 116.365 52.0394C117.647 52.6187 118.917 52.8062 120.037 52.5826C122.045 52.1794 123.446 51.4397 124.199 50.3826C124.551 49.888 124.759 49.2894 124.902 48.823C125.634 46.4254 125.674 43.7703 125.017 41.3479L125.45 41.2157C126.132 43.7274 126.089 46.4807 125.331 48.9687C125.177 49.4701 124.951 50.1172 124.558 50.6683C123.736 51.8237 122.243 52.6244 120.12 53.0501C119.787 53.1168 119.442 53.1495 119.087 53.1495Z" fill="black"/>
<path d="M106.36 61.0244C105.637 59.833 104.338 59.2017 103.071 58.6585C96.987 56.0485 92.1912 55.3653 87.9789 56.5071L87.8669 56.0452C92.1774 54.8763 97.0616 55.5663 103.24 58.2158C104.516 58.7635 105.944 59.4569 106.738 60.7658L106.36 61.0244Z" fill="black"/>
<path d="M87.9996 49.1255L87.5676 49.2594L88.9199 54.1475L89.3519 54.0135L87.9996 49.1255Z" fill="#36322C"/>
<path d="M90.7375 50.2816L90.2944 50.3654L90.8881 53.8851L91.3312 53.8013L90.7375 50.2816Z" fill="black"/>
<path d="M143.219 84.3476C142.589 83.8213 142.074 83.4294 141.549 83.0771L141.79 82.675C142.329 83.0364 142.856 83.4374 143.498 83.9738L143.219 84.3476Z" fill="black"/>
<path d="M142.076 86.1749C141.414 85.9502 140.627 85.6882 139.816 85.4442L139.939 84.9857C140.755 85.2308 141.546 85.4951 142.213 85.7209L142.076 86.1749Z" fill="black"/>
<path d="M143.092 81.0752L142.796 81.4338L144.428 82.9467L144.725 82.5881L143.092 81.0752Z" fill="black"/>
<path d="M145.396 86.0857L143.334 88.0938L143.639 88.4445L145.7 86.4364L145.396 86.0857Z" fill="black"/>
<path d="M112.477 229.425L109.387 179.486L109.402 179.432L112.122 169.525L110.457 139.07L110.461 139.038L113.064 119.846L113.658 119.937L111.06 139.097L112.728 169.597L109.993 179.556L113.076 229.383L112.477 229.425Z" fill="black"/>
<path d="M111.953 132.276L111.388 132.493L124.107 169.628L124.671 169.411L111.953 132.276Z" fill="black"/>
<path d="M117.462 231.985L116.862 231.954L119.079 183.88L119.1 183.827L123.283 173.471L123.835 173.722L119.673 184.025L117.462 231.985Z" fill="black"/>
<path d="M126.652 174.497C125.431 173.699 124.24 172.816 123.116 171.872L123.444 171.342C124.154 171.741 125.109 171.924 126.031 172.102C126.85 172.259 127.695 172.422 128.394 172.737L128.159 173.322C127.523 173.035 126.746 172.886 125.925 172.728C125.595 172.664 125.262 172.6 124.935 172.526C125.598 173.027 126.278 173.506 126.968 173.956L126.652 174.497Z" fill="black"/>
<path d="M102.292 176.819C101.232 175.873 100.236 174.829 99.3315 173.717L99.787 173.303C100.67 174.389 101.643 175.409 102.679 176.334L102.292 176.819Z" fill="black"/>
<path d="M97.5386 172.428L91.019 119.24L94.9945 108.168L95.5556 108.394L91.6334 119.317L98.1338 172.347L97.5386 172.428Z" fill="black"/>
<path d="M100.725 230.207L95.2078 187.082L97.5427 175.714L98.1294 175.849L95.8168 187.108L101.32 230.121L100.725 230.207Z" fill="black"/>
<path d="M106.408 244.147L100.039 241.137L100.243 240.652L106.487 243.604L118.281 242.122L118.34 242.648L106.408 244.147Z" fill="white"/>
<path d="M119.389 242.141L119.38 242.671L139.462 243.066L139.472 242.537L119.389 242.141Z" fill="white"/>
<path d="M119.626 243.875H119.126V241.641L114.527 237.322L114.859 236.925L119.626 241.404V243.875Z" fill="white"/>
<path d="M106.749 77.5925L104.73 80.1067L105.073 80.4154L107.092 77.9012L106.749 77.5925Z" fill="#FF7252"/>
<path d="M103.866 90.0315C101.717 90.0315 100.055 89.2941 98.9113 87.8304C98.0675 86.7497 97.5022 85.4283 96.955 84.1499C96.6713 83.487 96.4035 82.8613 96.0995 82.2639C95.1545 80.4095 94.4664 78.3677 93.8008 76.3925C93.708 76.1158 93.6142 75.8391 93.5214 75.5647C93.1598 74.5019 92.7715 73.4178 92.396 72.3697C90.9592 68.3606 89.4744 64.2159 88.988 59.9176L89.435 59.8611C89.9139 64.1018 91.3902 68.2194 92.8163 72.2015C93.1928 73.2518 93.5822 74.3382 93.9449 75.4043C94.0387 75.6798 94.1315 75.9554 94.2254 76.2332C94.8856 78.1915 95.5673 80.2164 96.4963 82.038C96.8089 82.6501 97.0915 83.3131 97.3657 83.9545C97.9001 85.2047 98.4526 86.4967 99.2579 87.5278C100.571 89.2094 102.652 89.8497 105.444 89.4319C109.617 88.8073 113.825 87.8192 117.777 86.8592C120.139 86.2866 122.466 85.513 124.629 84.762C125.177 84.5712 125.721 84.3747 126.246 84.1849C128.351 83.4237 130.341 82.7044 132.632 82.3622C132.866 82.3283 133.164 82.5869 134.008 83.4362C134.187 83.6169 134.357 83.7874 134.423 83.8393C135.036 84.3227 135.689 84.7248 136.246 85.0557C137.535 85.8202 138.803 86.5554 140.127 87.1404L139.954 87.5809C138.607 86.9857 137.327 86.2437 136.025 85.4724C135.455 85.1347 134.788 84.7225 134.153 84.2233C134.065 84.1533 133.902 83.9896 133.697 83.7829C133.417 83.5005 132.843 82.9223 132.662 82.8399C130.426 83.1764 128.466 83.8857 126.391 84.6367C125.864 84.8275 125.32 85.024 124.768 85.2149C122.596 85.9693 120.256 86.7463 117.878 87.3234C113.916 88.2844 109.697 89.276 105.507 89.9028C104.932 89.9886 104.384 90.0315 103.866 90.0315Z" fill="#FF7252"/>
<path d="M131.962 77.9804L131.552 77.7817C131.965 76.8274 132.534 75.9702 133.242 75.235L133.558 75.5749C132.889 76.2695 132.353 77.0792 131.962 77.9804Z" fill="#FF7252"/>
<path d="M110.639 39.7155L110.544 40.1814L116.175 41.4676L116.27 41.0017L110.639 39.7155Z" fill="#FF7252"/>
<path d="M121.633 39.9403L118.705 40.5266L118.789 40.9949L121.717 40.4086L121.633 39.9403Z" fill="#FF7252"/>
<path d="M135.839 51.4234L135.389 51.4374L135.469 54.2867L135.919 54.2727L135.839 51.4234Z" fill="black"/>
<path d="M136.777 52.2607H136.327V54.6075H136.777V52.2607Z" fill="black"/>
<path d="M29.1627 150.943C32.4576 149.383 35.7526 147.823 39.0475 146.265C34.2827 147.22 29.4379 147.078 24.6315 146.323C21.4229 142.75 18.4554 138.951 15.9968 134.948C15.7664 134.573 15.089 133.486 14.1759 132.01C19.3066 129.707 24.8576 128.446 30.4309 128.384C25.9147 127.312 21.312 126.459 16.6848 126.6C14.8735 126.655 13.0538 126.874 11.2789 127.28C8.10338 122.035 4.60683 116.027 5.0911 115.724C8.09165 113.845 11.4303 112.588 14.8703 111.993C18.5749 111.351 22.3989 111.474 26.0491 112.411C27.4101 106.723 29.7696 101.305 32.9707 96.5151C35.8784 98.1425 37.888 101.097 39.6406 104.043C44.4107 112.07 47.8508 120.904 50.2241 130.111C48.8065 134.324 46.799 138.244 43.9499 141.566C46.7478 140.259 49.3516 138.5 51.6695 136.389C54.1313 148.475 54.9079 161.021 54.5463 173.092C54.5964 171.142 48.35 167.345 47.0113 166.271C43.0913 163.126 39.0102 160.171 35.2331 156.793C33.1712 154.95 31.0987 153.011 29.0688 150.988C29.1008 150.971 29.1317 150.956 29.1627 150.943Z" fill="#2A9D8F"/>
<path d="M29.2907 191.338C29.3643 191.338 29.4379 191.317 29.5029 191.27C29.68 191.146 29.728 190.893 29.6107 190.706C17.8058 171.886 6.27511 151.328 1.86442 128.513C0.71988 122.594 -0.212401 114.966 2.76148 108.466C3.49535 106.862 4.32309 105.703 5.29269 104.922C8.99404 101.939 14.4927 104.424 16.6847 105.63C24.0256 109.671 30.0523 116.523 35.6523 127.191C38.8289 133.244 41.7462 139.628 44.5707 146.71C45.9809 150.246 47.1916 153.918 48.3617 157.471C49.3281 160.403 50.3265 163.435 51.4337 166.378C51.5127 166.587 51.7366 166.689 51.934 166.607C52.1313 166.523 52.2273 166.287 52.1484 166.077C51.0465 163.151 50.0513 160.128 49.0881 157.203C47.9137 153.638 46.6998 149.952 45.2801 146.393C42.4449 139.284 39.5158 132.874 36.3254 126.796C30.6485 115.98 24.5205 109.025 17.041 104.907C14.7189 103.629 8.87992 101.008 4.82764 104.274C3.75883 105.134 2.85748 106.39 2.07028 108.111C-1.00387 114.832 -0.0566634 122.631 1.11134 128.677C5.5487 151.628 17.1231 172.269 28.9707 191.157C29.0443 191.274 29.1669 191.338 29.2907 191.338Z" fill="black"/>
<path d="M20.64 135.21C20.6464 135.21 20.6528 135.21 20.6592 135.21L39.6385 134.234C39.8508 134.223 40.014 134.032 40.0044 133.807C39.9937 133.582 39.8231 133.407 39.6012 133.42L20.6219 134.396C20.4096 134.407 20.2464 134.598 20.256 134.822C20.2667 135.039 20.4363 135.21 20.64 135.21Z" fill="black"/>
<path d="M34.7819 125.172C34.9376 125.172 35.0837 125.072 35.1424 124.908L39.9797 111.25C40.0544 111.038 39.9542 110.805 39.7547 110.726C39.5563 110.647 39.3344 110.754 39.2597 110.964L34.4224 124.622C34.3477 124.833 34.448 125.067 34.6475 125.146C34.6912 125.164 34.7371 125.172 34.7819 125.172Z" fill="black"/>
<path d="M221.735 60.7162C227.638 54.4667 227.638 44.3345 221.735 38.085C215.833 31.8356 206.263 31.8356 200.36 38.085C194.457 44.3344 194.457 54.4668 200.36 60.7162C206.263 66.9656 215.833 66.9656 221.735 60.7162Z" fill="#2A9D8F"/>
<path d="M226.039 47.3199C225.696 47.6349 225.349 47.9478 224.989 48.238C224.36 48.744 223.632 48.9246 222.861 49.0331C221.448 49.2318 220.019 49.2759 218.599 49.3933C216.738 49.5469 214.602 49.8101 213.707 51.8045C213.044 53.2817 213.046 55.2173 213.312 56.7917C213.597 58.48 214.502 59.9651 215.658 61.1351C216.515 62.0013 217.498 62.7049 218.552 63.2933C218.789 63.1499 219.022 62.9997 219.25 62.8427C218.666 62.5366 218.098 62.1978 217.55 61.8195C216.425 61.0425 215.432 60.0498 214.738 58.8279C213.983 57.502 213.792 56.0079 213.848 54.4855C213.891 53.3359 214.084 52.0654 214.892 51.2274C215.586 50.5091 216.671 50.3228 217.591 50.1997C218.985 50.0145 220.398 49.9772 221.798 49.8518C222.726 49.7694 223.723 49.7028 224.589 49.3007C225.166 49.0319 225.65 48.5926 226.12 48.1488C226.1 47.871 226.073 47.5943 226.039 47.3199Z" fill="white"/>
<path d="M207.829 60.2373C207.263 58.6415 207.102 56.9283 207.17 55.2354C207.298 52.0145 208.371 48.8354 209.921 46.0843C211.374 43.5049 213.448 41.3976 215.724 39.6347C217.121 38.5539 218.6 37.5973 219.962 36.4725C219.779 36.3302 219.591 36.1924 219.401 36.058C217.425 37.6922 215.237 39 213.34 40.7538C208.674 45.0702 205.537 52.1004 206.74 58.7319C207.169 61.099 208.33 63.2391 209.47 65.3148C209.734 65.3442 210.001 65.3667 210.27 65.3803C210.137 65.1364 210.003 64.8936 209.87 64.6496C209.089 63.2289 208.376 61.7777 207.829 60.2373Z" fill="white"/>
<path d="M198.166 57.7674C198.297 57.9932 198.433 58.2146 198.575 58.4325C199.814 56.3015 200.437 53.7966 200.895 51.3674C201.313 49.1482 201.618 46.5507 203.286 44.9403C203.968 44.2819 204.819 43.8234 205.626 43.3649C206.876 42.6568 208.146 41.9791 209.351 41.1875C211.69 39.6516 213.515 37.3895 214.018 34.4724C214.06 34.224 214.091 33.9732 214.116 33.7237C213.893 33.6751 213.668 33.6322 213.441 33.5938C213.226 35.6266 212.43 37.481 210.958 38.9988C208.968 41.0508 206.264 42.048 203.936 43.5704C202.339 44.6139 201.468 46.0787 200.937 47.9601C200.136 50.7982 199.916 53.7503 198.78 56.4901C198.597 56.9328 198.392 57.3585 198.166 57.7674Z" fill="white"/>
<path d="M234.06 154.212C239.179 148.792 239.179 140.004 234.06 134.584C228.94 129.163 220.64 129.163 215.521 134.583C210.401 140.004 210.401 148.792 215.521 154.212C220.64 159.632 228.94 159.632 234.06 154.212Z" fill="#2A9D8F"/>
<path d="M226.783 158.116C225.828 155.954 225.021 153.716 224.121 151.529C223.204 149.295 222.172 147.083 220.573 145.301C218.89 143.425 216.642 142.193 214.382 141.287C213.668 141.001 212.939 140.75 212.203 140.52C212.15 140.714 212.101 140.911 212.055 141.11C214.371 141.836 216.637 142.79 218.61 144.291C220.493 145.722 221.772 147.728 222.787 149.9C224.055 152.613 225.053 155.46 226.242 158.192C226.424 158.168 226.605 158.145 226.783 158.116Z" fill="white"/>
<path d="M215.403 134.714C216.305 135.458 217.22 136.186 218.178 136.851C219.952 138.081 221.92 139.067 224.061 139.232C226.384 139.411 228.683 138.433 230.396 136.807C231.408 135.846 232.264 134.729 233.249 133.788C233.098 133.653 232.943 133.52 232.786 133.393C231.707 134.445 230.767 135.697 229.643 136.703C227.796 138.355 225.243 138.973 222.894 138.452C220.706 137.967 218.763 136.617 216.987 135.239C216.592 134.933 216.2 134.615 215.81 134.288C215.671 134.427 215.536 134.569 215.403 134.714Z" fill="white"/>
<path d="M230.051 141.917C228.644 143.411 227.703 145.786 228.629 147.801C229.499 149.688 231.584 150.81 233.139 151.959C233.724 152.392 234.284 152.854 234.8 153.362C234.924 153.208 235.043 153.051 235.161 152.892C234.063 151.842 232.784 150.993 231.57 150.087C230.743 149.469 229.908 148.788 229.338 147.888C228.759 146.974 228.703 145.931 228.997 144.897C229.837 141.952 232.571 140.5 235.164 139.718C235.763 139.538 236.369 139.389 236.978 139.258C236.901 139.055 236.822 138.854 236.736 138.657C234.243 139.181 231.854 140.002 230.051 141.917Z" fill="white"/>
<path d="M205.897 40.7781C206.589 36.2628 203.693 32.0083 199.428 31.2755C195.163 30.5426 191.145 33.609 190.453 38.1244C189.761 42.6397 192.657 46.8942 196.922 47.627C201.187 48.3598 205.205 45.2935 205.897 40.7781Z" fill="#40C4B3"/>
<path d="M199.352 47.645C198.783 46.3542 198.301 45.0193 197.764 43.7138C197.217 42.3811 196.6 41.0609 195.647 39.9971C194.643 38.8779 193.301 38.1427 191.953 37.6018C191.527 37.4312 191.092 37.2822 190.653 37.1444C190.621 37.2607 190.592 37.3782 190.564 37.4956C191.946 37.9293 193.298 38.4985 194.475 39.394C195.599 40.2478 196.362 41.4449 196.968 42.7414C197.725 44.3597 198.321 46.0594 199.03 47.6902C199.139 47.6766 199.247 47.6619 199.352 47.645Z" fill="white"/>
<path d="M192.561 33.6795C193.099 34.1234 193.646 34.5582 194.217 34.9546C195.275 35.6886 196.451 36.277 197.728 36.3753C199.114 36.4826 200.486 35.8987 201.508 34.9286C202.113 34.3549 202.624 33.6886 203.21 33.1273C203.12 33.046 203.028 32.9681 202.934 32.8913C202.29 33.5192 201.729 34.2657 201.058 34.8665C199.956 35.8524 198.432 36.2217 197.03 35.91C195.725 35.6209 194.565 34.8145 193.505 33.9924C193.269 33.8094 193.035 33.6197 192.803 33.4254C192.722 33.5079 192.641 33.5926 192.561 33.6795Z" fill="white"/>
<path d="M201.303 37.9778C200.464 38.87 199.902 40.2873 200.455 41.489C200.974 42.6149 202.218 43.2846 203.146 43.9701C203.495 44.2288 203.83 44.5043 204.137 44.807C204.211 44.7155 204.282 44.6218 204.353 44.5258C203.698 43.899 202.934 43.3919 202.21 42.851C201.716 42.4828 201.218 42.0762 200.878 41.5387C200.532 40.9932 200.499 40.3709 200.675 39.7543C201.176 37.997 202.807 37.1297 204.355 36.6633C204.712 36.556 205.074 36.4668 205.438 36.3889C205.392 36.268 205.344 36.1483 205.294 36.0309C203.805 36.3448 202.379 36.8349 201.303 37.9778Z" fill="white"/>
<path d="M245.071 231.463C245.071 234.111 232.968 236.258 218.036 236.258C203.106 236.258 191.001 234.111 191.001 231.463C191.001 230.801 190.483 226.641 191.851 226.068C195.955 224.347 206.837 226.667 218.035 226.667C229.033 226.667 239.997 224.696 244.22 226.368C245.732 226.966 245.071 230.766 245.071 231.463Z" fill="#FFAD5B"/>
<path d="M218.036 236.521C210.802 236.521 203.999 236.021 198.879 235.113C196.379 234.669 194.413 234.152 193.035 233.573C191.5 232.93 190.754 232.24 190.754 231.463C190.754 231.373 190.742 231.197 190.728 230.974C190.631 229.483 190.428 226.383 191.76 225.824C192.823 225.378 194.343 225.17 196.542 225.17C198.93 225.17 201.915 225.423 205.075 225.689C209.036 226.025 213.525 226.404 218.035 226.404C222.239 226.404 226.501 226.112 230.264 225.853C233.411 225.636 236.384 225.432 238.832 225.432C241.379 225.432 243.119 225.651 244.307 226.121C245.742 226.689 245.483 229.536 245.359 230.904C245.337 231.146 245.317 231.356 245.317 231.461C245.317 232.238 244.572 232.928 243.037 233.572C241.659 234.15 239.693 234.668 237.193 235.111C232.075 236.021 225.272 236.521 218.036 236.521ZM196.543 225.695C194.437 225.695 192.933 225.897 191.943 226.312C190.948 226.729 191.155 229.896 191.223 230.937C191.239 231.179 191.251 231.354 191.251 231.463C191.251 231.877 191.807 233.326 198.962 234.595C204.055 235.499 210.83 235.996 218.037 235.996C225.245 235.996 232.019 235.498 237.113 234.595C244.268 233.326 244.824 231.877 244.824 231.463C244.824 231.333 244.842 231.133 244.867 230.855C244.971 229.713 245.214 227.041 244.136 226.613C243.005 226.166 241.321 225.957 238.834 225.957C236.402 225.957 233.437 226.16 230.298 226.377C226.529 226.636 222.257 226.929 218.037 226.929C213.507 226.929 209.008 226.549 205.037 226.212C201.887 225.947 198.911 225.695 196.543 225.695Z" fill="#FFEFA4"/>
<path d="M218.036 231.762C232.967 231.762 245.071 229.615 245.071 226.967C245.071 224.318 232.967 222.171 218.036 222.171C203.105 222.171 191.001 224.318 191.001 226.967C191.001 229.615 203.105 231.762 218.036 231.762Z" fill="#FFAD5B"/>
<path d="M218.036 232.025C210.802 232.025 203.999 231.525 198.879 230.617C196.378 230.173 194.413 229.656 193.034 229.077C191.499 228.434 190.754 227.744 190.754 226.967C190.754 226.19 191.499 225.5 193.034 224.856C194.413 224.278 196.378 223.76 198.879 223.317C203.998 222.409 210.801 221.908 218.036 221.908C225.271 221.908 232.074 222.409 237.194 223.317C239.694 223.76 241.66 224.278 243.038 224.856C244.573 225.5 245.318 226.19 245.318 226.967C245.318 227.744 244.573 228.434 243.038 229.077C241.66 229.656 239.694 230.173 237.194 230.617C232.075 231.525 225.271 232.025 218.036 232.025ZM218.036 222.433C210.829 222.433 204.054 222.931 198.961 223.835C191.806 225.104 191.25 226.553 191.25 226.967C191.25 227.38 191.806 228.83 198.961 230.098C204.054 231.002 210.829 231.5 218.036 231.5C225.244 231.5 232.018 231.002 237.111 230.098C244.267 228.829 244.822 227.38 244.822 226.967C244.822 226.553 244.267 225.103 237.111 223.835C232.019 222.931 225.245 222.433 218.036 222.433Z" fill="#FFEFA4"/>
<path d="M252.148 222.771C252.148 225.419 240.045 227.566 225.113 227.566C210.182 227.566 198.08 225.419 198.08 222.771C198.08 221.974 197.415 217.738 199.353 217.077C203.858 215.54 214.675 217.976 225.113 217.976C235.72 217.976 247.013 215.499 251.44 217.077C253.245 217.72 252.148 222.004 252.148 222.771Z" fill="#FFAD5B"/>
<path d="M225.114 227.828C217.879 227.828 211.076 227.328 205.956 226.42C203.456 225.976 201.49 225.459 200.112 224.881C198.577 224.237 197.831 223.547 197.831 222.77C197.831 222.663 197.817 222.473 197.799 222.234C197.682 220.682 197.439 217.453 199.278 216.826C200.306 216.476 201.716 216.306 203.591 216.306C206.063 216.306 209.138 216.599 212.395 216.911C216.326 217.287 220.783 217.713 225.115 217.713C229.501 217.713 234.068 217.283 238.098 216.902C241.45 216.586 244.614 216.288 247.138 216.288C249.069 216.288 250.501 216.464 251.52 216.826C253.168 217.414 252.728 220.401 252.49 222.005C252.44 222.345 252.396 222.639 252.396 222.769C252.396 223.545 251.65 224.236 250.115 224.88C248.737 225.458 246.771 225.975 244.271 226.419C239.151 227.329 232.348 227.828 225.114 227.828ZM203.59 216.831C201.768 216.831 200.407 216.993 199.429 217.327C197.964 217.827 198.195 220.886 198.293 222.193C198.312 222.444 198.327 222.642 198.327 222.771C198.327 223.186 198.883 224.635 206.038 225.903C211.132 226.806 217.906 227.304 225.114 227.304C232.321 227.304 239.095 226.806 244.189 225.903C251.344 224.633 251.9 223.184 251.9 222.771C251.9 222.601 251.941 222.317 251.999 221.926C252.198 220.578 252.612 217.772 251.36 217.325C250.394 216.981 249.011 216.814 247.136 216.814C244.635 216.814 241.481 217.111 238.141 217.426C234.1 217.807 229.521 218.238 225.114 218.238C220.759 218.238 216.291 217.811 212.349 217.434C209.104 217.123 206.039 216.831 203.59 216.831Z" fill="#FFEFA4"/>
<path d="M225.396 222.771C240.327 222.771 252.431 220.624 252.431 217.976C252.431 215.328 240.327 213.181 225.396 213.181C210.465 213.181 198.362 215.328 198.362 217.976C198.362 220.624 210.465 222.771 225.396 222.771Z" fill="#FFAD5B"/>
<path d="M225.396 223.033C218.162 223.033 211.359 222.533 206.239 221.625C203.739 221.181 201.773 220.664 200.395 220.085C198.86 219.442 198.114 218.752 198.114 217.975C198.114 217.198 198.86 216.508 200.395 215.864C201.773 215.286 203.739 214.769 206.239 214.325C211.358 213.417 218.161 212.916 225.396 212.916C232.63 212.916 239.434 213.417 244.554 214.325C247.054 214.769 249.02 215.286 250.398 215.864C251.933 216.508 252.679 217.198 252.679 217.975C252.679 218.752 251.933 219.442 250.398 220.085C249.02 220.664 247.054 221.181 244.554 221.625C239.435 222.533 232.632 223.033 225.396 223.033ZM225.396 213.443C218.189 213.443 211.414 213.941 206.321 214.844C199.166 216.114 198.61 217.563 198.61 217.976C198.61 218.39 199.166 219.839 206.321 221.108C211.414 222.011 218.189 222.509 225.396 222.509C232.604 222.509 239.378 222.011 244.472 221.108C251.627 219.838 252.183 218.389 252.183 217.976C252.183 217.561 251.627 216.112 244.472 214.844C239.379 213.94 232.605 213.443 225.396 213.443Z" fill="#FFEFA4"/>
<path d="M224.795 220.898C238.064 220.898 248.822 219.438 248.822 217.638C248.822 215.838 238.064 214.379 224.795 214.379C211.525 214.379 200.768 215.838 200.768 217.638C200.768 219.438 211.525 220.898 224.795 220.898Z" fill="#FFAD5B"/>
<path d="M224.795 221.161C218.367 221.161 212.322 220.821 207.774 220.204C205.554 219.903 203.808 219.551 202.584 219.159C201.176 218.708 200.521 218.224 200.521 217.639C200.521 217.054 201.176 216.571 202.584 216.119C203.808 215.727 205.554 215.375 207.774 215.075C212.322 214.458 218.367 214.118 224.795 214.118C231.223 214.118 237.267 214.458 241.816 215.075C244.035 215.376 245.781 215.727 247.005 216.119C248.413 216.571 249.069 217.054 249.069 217.639C249.069 218.224 248.413 218.708 247.005 219.159C245.781 219.551 244.035 219.904 241.816 220.204C237.268 220.821 231.224 221.161 224.795 221.161ZM224.795 214.641C218.387 214.641 212.365 214.98 207.837 215.593C201.207 216.492 201.015 217.523 201.015 217.637C201.015 217.751 201.206 218.782 207.837 219.681C212.365 220.296 218.387 220.633 224.795 220.633C231.202 220.633 237.225 220.294 241.753 219.681C248.382 218.782 248.574 217.751 248.574 217.637C248.574 217.523 248.383 216.492 241.753 215.593C237.225 214.98 231.202 214.641 224.795 214.641Z" fill="#FFEFA4"/>
<path d="M238.525 222.771V226.218C238.525 226.46 238.879 226.46 238.879 226.218V222.771C238.878 222.529 238.525 222.529 238.525 222.771Z" fill="#FFEFA4"/>
<path d="M242.526 221.947C242.516 223.196 242.506 224.444 242.496 225.693C242.494 225.983 242.919 225.983 242.921 225.693C242.93 224.444 242.941 223.196 242.95 221.947C242.953 221.658 242.528 221.658 242.526 221.947Z" fill="#FFEFA4"/>
<path d="M245.071 221.647V225.544C245.071 225.834 245.496 225.834 245.496 225.544V221.647C245.496 221.357 245.071 221.357 245.071 221.647Z" fill="#FFEFA4"/>
<path d="M203.244 220.973C203.198 222.072 203.153 223.171 203.107 224.27C203.095 224.56 203.52 224.559 203.532 224.27C203.578 223.171 203.622 222.072 203.668 220.973C203.68 220.683 203.255 220.684 203.244 220.973Z" fill="#FFEFA4"/>
<path d="M204.603 221.348C204.554 222.397 204.504 223.445 204.454 224.494C204.441 224.785 204.865 224.782 204.879 224.494C204.928 223.445 204.978 222.396 205.027 221.348C205.041 221.058 204.617 221.06 204.603 221.348Z" fill="#FFEFA4"/>
<path d="M216.621 232.287V235.134C216.621 235.424 217.045 235.424 217.045 235.134V232.287C217.045 231.997 216.621 231.997 216.621 232.287Z" fill="#FFEFA4"/>
<path d="M219.417 232.285C219.401 231.997 218.976 231.994 218.992 232.285C219.042 233.209 219.052 234.133 219.021 235.06C219.011 235.35 219.436 235.349 219.445 235.06C219.475 234.133 219.466 233.21 219.417 232.285Z" fill="#FFEFA4"/>
<path d="M234.384 231.238V234.385C234.384 234.676 234.809 234.676 234.809 234.385V231.238C234.809 230.949 234.384 230.949 234.384 231.238Z" fill="#FFEFA4"/>
<path d="M236.698 230.789C236.691 230.5 236.267 230.499 236.273 230.789C236.296 231.789 236.32 232.787 236.343 233.787C236.35 234.076 236.774 234.077 236.768 233.787C236.745 232.787 236.721 231.788 236.698 230.789Z" fill="#FFEFA4"/>
</svg>
