<svg width="256" height="245" viewBox="0 0 256 245" fill="none" xmlns="http://www.w3.org/2000/svg">
<path d="M142.776 191.438C141.996 191.215 178.325 181.847 207.628 174.36L205.27 171.697C155.516 180.015 74.3568 193.101 66.8063 191.263C58.964 189.353 148.586 171.658 203.34 160.955L238.067 123.134L224.375 88.8568L169.874 118.343L217.387 71.3635L213.131 60.7072L148.53 100.113L204.005 37.8596L193.721 12.1121L124.731 35.6703V61.9594L93.1681 21.4264L0 89.939L32.9193 163.777L18.6067 210.88L238.067 208.735L220.735 189.162C186.611 190.289 143.561 191.662 142.776 191.438Z" fill="#C8FFF8"/>
<path d="M22.3748 140.125L32.9193 163.777L28.5108 178.284L36.1008 186.364L20.4163 210.863L238.067 208.735L230.122 199.763C195.316 200.303 157.346 200.866 156.575 200.762C155.755 200.65 192.262 196.174 223.578 192.373L222.118 190.724C167.356 195.06 81.3936 201.61 73.2625 200.671C67.5064 200.005 109.629 195.66 156.121 191.188C148.153 191.408 143.043 191.514 142.776 191.438C141.996 191.215 178.325 181.847 207.628 174.36L205.27 171.697C155.516 180.015 74.3568 193.101 66.8063 191.263C58.964 189.353 148.586 171.658 203.34 160.955L206.482 157.533L186.291 162.717L213.403 149.994L227.648 134.48L162.885 153.23L223.721 120.829L212.443 107.428L180.473 112.609L169.874 118.343L174.732 113.539L136.785 119.689V133.372L102.173 112.275L22.3748 140.125Z" fill="#40C4B3"/>
<path d="M24.603 70.8614L17.4892 80.9813L15.9988 92.4495L42.085 92.0676L51.1046 86.7175L39.6594 73.3961L24.603 70.8614Z" fill="#40C4B3"/>
<path d="M78.414 83.0621C80.3654 84.859 82.0433 87.1193 83.3575 89.9367C85.7375 95.0363 86.0678 100.618 87.158 106.068C89.2513 116.526 91.3436 126.984 93.4369 137.442C97.28 156.644 101.122 175.847 104.965 195.048C105.617 198.307 106.269 201.566 106.922 204.824C107.468 207.552 105.763 210.219 103.114 210.781L29.5568 226.394C26.9082 226.956 24.3184 225.2 23.7733 222.473C21.3173 210.202 18.8623 197.932 16.4073 185.662C12.1092 164.182 7.81013 142.703 3.51208 121.223C1.78151 112.575 -1.38682 103.731 3.70459 95.6009C8.02494 88.7033 16.1874 85.674 23.3924 83.1957C34.3391 79.4307 45.1542 77.3687 56.643 76.8689C64.6971 76.5183 72.7167 77.8133 78.414 83.0621Z" fill="black"/>
<path d="M76.5973 95.4287L10.5793 109.442C9.69374 109.63 9.12229 110.524 9.30467 111.436L12.7972 128.89C12.9796 129.801 13.8479 130.39 14.7335 130.203L80.7515 116.189C81.637 116.001 82.2085 115.107 82.0271 114.195L78.5346 96.7415C78.3512 95.8294 77.4829 95.2409 76.5973 95.4287Z" fill="#CCCFD1"/>
<path d="M10.1374 109.606C9.51321 109.949 9.15453 110.687 9.30449 111.436L12.797 128.89C12.8295 129.054 12.8852 129.207 12.9581 129.347C13.2925 129.988 14.0068 130.356 14.7333 130.202L80.7513 116.188C80.9094 116.155 81.0573 116.099 81.1931 116.024C81.8172 115.681 82.1759 114.943 82.027 114.195L78.5344 96.7415C78.502 96.5777 78.4463 96.4243 78.3733 96.2834C78.0389 95.6427 77.3236 95.2743 76.5982 95.4287L10.5791 109.442C10.4211 109.475 10.2731 109.532 10.1374 109.606Z" fill="#A1A3A5"/>
<path d="M76.346 94.1713L10.3279 108.185C8.7686 108.515 7.76248 110.091 8.08367 111.696L11.5762 129.15C11.8974 130.755 13.4274 131.792 14.9857 131.461L81.0037 117.448C82.5631 117.117 83.5692 115.541 83.248 113.936L79.7554 96.4826C79.4343 94.8767 77.9043 93.8394 76.346 94.1713ZM82.0271 114.195C82.2094 115.106 81.638 116.001 80.7524 116.189L14.7344 130.203C13.8489 130.39 12.9805 129.802 12.7982 128.89L9.3056 111.436C9.12323 110.524 9.69468 109.63 10.5802 109.442L76.5983 95.4287C77.4838 95.2409 78.3521 95.8294 78.5345 96.7414L82.0271 114.195Z" fill="#CCCFD1"/>
<path d="M25.5393 147.967L17.4204 149.69C16.5014 149.885 15.6027 149.276 15.4132 148.329L14.4487 143.51C14.2592 142.564 14.8509 141.638 15.7699 141.443L23.8888 139.72C24.8078 139.525 25.7065 140.135 25.896 141.081L26.8605 145.9C27.05 146.847 26.4583 147.772 25.5393 147.967Z" fill="#264653"/>
<path d="M28.8323 164.422L20.7134 166.145C19.7945 166.34 18.8714 165.61 18.6526 164.514L17.536 158.935C17.3172 157.839 17.8835 156.792 18.8025 156.597L26.9214 154.874C27.8404 154.679 28.7634 155.41 28.9823 156.505L30.0989 162.085C30.3187 163.181 29.7513 164.227 28.8323 164.422Z" fill="#CCCFD1"/>
<path d="M32.956 182.357L23.8117 184.298C23.1754 184.433 22.5371 183.928 22.3861 183.169L21.0244 176.366C20.8724 175.608 21.2655 174.885 21.9008 174.749L31.045 172.808C31.6813 172.673 32.3197 173.178 32.4706 173.936L33.8314 180.739C33.9834 181.497 33.5913 182.221 32.956 182.357Z" fill="#CCCFD1"/>
<path d="M36.5661 200.399L27.4218 202.34C26.7865 202.475 26.1482 201.97 25.9962 201.212L24.6345 194.41C24.4825 193.651 24.8756 192.928 25.5109 192.792L34.6552 190.851C35.2904 190.717 35.9298 191.222 36.0807 191.979L37.4415 198.782C37.5945 199.541 37.2024 200.265 36.5661 200.399Z" fill="#CCCFD1"/>
<path d="M43.8886 161.226L35.7697 162.949C34.8507 163.144 33.9277 162.414 33.7088 161.318L32.5922 155.738C32.3724 154.643 32.9398 153.596 33.8588 153.401L41.9766 151.678C42.8956 151.483 43.8187 152.213 44.0375 153.309L45.1541 158.889C45.375 159.984 44.8076 161.031 43.8886 161.226Z" fill="#CCCFD1"/>
<path d="M48.0124 179.161L38.8681 181.102C38.2328 181.236 37.5945 180.731 37.4425 179.974L36.0818 173.171C35.9298 172.412 36.3219 171.689 36.9582 171.554L46.1025 169.613C46.7388 169.478 47.3771 169.983 47.5281 170.741L48.8898 177.543C49.0408 178.302 48.6477 179.026 48.0124 179.161Z" fill="#CCCFD1"/>
<path d="M51.6225 197.204L42.4783 199.145C41.842 199.28 41.2036 198.775 41.0527 198.017L39.6909 191.214C39.5389 190.456 39.931 189.733 40.5673 189.597L49.7116 187.656C50.3479 187.521 50.9862 188.027 51.1372 188.784L52.499 195.587C52.6509 196.345 52.2588 197.068 51.6225 197.204Z" fill="#CCCFD1"/>
<path d="M58.9451 158.031L50.8262 159.754C49.9073 159.949 48.9842 159.218 48.7654 158.123L47.6488 152.543C47.4299 151.447 47.9963 150.401 48.9153 150.206L57.0342 148.483C57.9532 148.288 58.8762 149.018 59.0951 150.114L60.2116 155.693C60.4315 156.789 59.8641 157.836 58.9451 158.031Z" fill="#CCCFD1"/>
<path d="M63.0688 175.965L53.9245 177.906C53.2892 178.04 52.6499 177.535 52.4989 176.776L51.1371 169.974C50.9852 169.215 51.3783 168.492 52.0136 168.356L61.1578 166.415C61.7931 166.281 62.4325 166.786 62.5834 167.543L63.9452 174.346C64.0972 175.106 63.704 175.83 63.0688 175.965Z" fill="#CCCFD1"/>
<path d="M66.6798 194.008L57.5355 195.949C56.9003 196.083 56.2619 195.578 56.11 194.821L54.7492 188.018C54.5972 187.26 54.9904 186.536 55.6256 186.401L64.7699 184.46C65.4052 184.325 66.0445 184.83 66.1955 185.588L67.5573 192.39C67.7072 193.149 67.3151 193.873 66.6798 194.008Z" fill="#CCCFD1"/>
<path d="M73.741 153.532L65.6221 155.255C64.7031 155.45 63.8044 154.841 63.6149 153.894L62.6503 149.075C62.4608 148.129 63.0526 147.203 63.9715 147.008L72.0904 145.285C73.0094 145.09 73.9081 145.7 74.0976 146.646L75.0622 151.465C75.2517 152.412 74.6599 153.337 73.741 153.532Z" fill="#40C4B3"/>
<path d="M77.3724 169.006L68.2281 170.947C67.5928 171.082 66.9707 170.66 66.84 170.006L65.6647 164.131C65.534 163.477 65.9433 162.836 66.5786 162.702L75.7229 160.761C76.3582 160.626 76.9803 161.048 77.111 161.702L78.2863 167.577C78.417 168.231 78.0087 168.872 77.3724 169.006Z" fill="#40C4B3"/>
<path d="M88.7974 150.337L80.6785 152.06C79.7595 152.255 78.8608 151.646 78.6713 150.699L77.7067 145.88C77.5172 144.934 78.109 144.008 79.0279 143.813L87.1468 142.09C88.0658 141.895 88.9645 142.504 89.154 143.451L90.1186 148.27C90.3081 149.216 89.7163 150.142 88.7974 150.337Z" fill="#40C4B3"/>
<path d="M92.4288 165.81L83.2846 167.751C82.6493 167.886 82.0272 167.465 81.8965 166.81L80.7211 160.935C80.5904 160.281 80.9988 159.64 81.6351 159.505L90.7793 157.564C91.4156 157.43 92.0367 157.85 92.1674 158.506L93.3427 164.381C93.4735 165.035 93.0651 165.676 92.4288 165.81Z" fill="#40C4B3"/>
<path d="M95.5475 181.393L86.4032 183.334C85.7669 183.468 85.1458 183.048 85.0151 182.393L83.8398 176.518C83.7091 175.862 84.1174 175.223 84.7537 175.088L93.898 173.147C94.5332 173.012 95.1554 173.433 95.2861 174.088L96.4614 179.963C96.5921 180.618 96.1828 181.258 95.5475 181.393Z" fill="#40C4B3"/>
<path d="M98.1523 197.084L90.0334 198.807C89.1145 199.002 88.2157 198.393 88.0263 197.446L87.0617 192.627C86.8722 191.681 87.4639 190.755 88.3829 190.56L96.5018 188.837C97.4208 188.642 98.3195 189.252 98.509 190.198L99.4736 195.017C99.663 195.964 99.0713 196.89 98.1523 197.084Z" fill="#40C4B3"/>
<path d="M41.1468 144.852L32.0026 146.793C31.3663 146.928 30.7452 146.506 30.6145 145.852L29.4392 139.977C29.3084 139.322 29.7168 138.682 30.3531 138.548L39.4973 136.607C40.1336 136.472 40.7547 136.893 40.8865 137.548L42.0618 143.423C42.1915 144.077 41.7821 144.717 41.1468 144.852Z" fill="#264653"/>
<path d="M83.2896 135.313L51.0096 142.164C48.7653 142.641 46.8392 142.496 46.7085 141.841L45.5331 135.966C45.4024 135.311 47.1148 134.394 49.36 133.917L81.6411 127.066C83.8853 126.59 85.8115 126.734 85.9422 127.389L87.1175 133.264C87.2472 133.92 85.5338 134.837 83.2896 135.313Z" fill="#40C4B3"/>
<path d="M81.1637 201.15L77.0855 202.015C75.051 202.447 73.061 201.097 72.6416 199.002L69.3243 182.427C68.9048 180.332 70.2149 178.282 72.2494 177.851L76.3276 176.985C78.3622 176.553 80.3521 177.902 80.7706 179.998L84.0878 196.573C84.5083 198.669 83.1982 200.718 81.1637 201.15Z" fill="#40C4B3"/>
<path d="M24.603 70.8615L42.4853 82.674L66.2624 230.058L136.706 217.531L116.983 90.8009L93.8593 59.8817L24.603 70.8615Z" fill="white"/>
<path d="M106.957 211.468L108.379 211.213L104.981 187.808L103.631 188.05L106.957 211.468Z" fill="black"/>
<path d="M113.514 186.28L110.162 186.88L113.631 210.272L116.983 209.672L113.514 186.28Z" fill="black"/>
<path d="M109.502 186.999L105.925 187.639L109.322 211.044L112.97 210.391L109.502 186.999Z" fill="black"/>
<path d="M126.919 207.892L131.163 207.131L127.225 183.823L123.521 184.487L126.919 207.892Z" fill="black"/>
<path d="M115.518 185.921L114.174 186.162L117.643 209.554L118.987 209.313L115.518 185.921Z" fill="black"/>
<path d="M117.807 185.511L116.178 185.803L119.647 209.195L121.205 208.915L117.807 185.511Z" fill="black"/>
<path d="M102.686 188.219L100.27 188.653L104.207 211.961L106.014 211.637L102.686 188.219Z" fill="black"/>
<path d="M122.578 184.656L118.751 185.341L122.148 208.746L125.976 208.061L122.578 184.656Z" fill="black"/>
<path d="M65.9876 230.463L65.9318 230.115L50.8086 136.377L51.4702 136.264L66.5367 229.653L96.8541 223.733L96.9788 224.41L65.9876 230.463Z" fill="#2A9D8F"/>
<path d="M128.633 218.043L111.528 220.862L111.634 221.543L128.739 218.724L128.633 218.043Z" fill="#2A9D8F"/>
<path d="M91.3292 139.034C93.6971 144.199 92.2371 148.044 89.1619 149.54C86.1963 150.982 82.5102 149.778 80.2092 144.857C77.9619 139.955 79.2993 135.939 82.4474 134.408C85.7788 132.788 89.1853 134.359 91.3292 139.034ZM82.7199 143.497C84.0817 146.662 86.3057 148.485 88.319 147.506C90.4426 146.473 90.3221 143.673 88.8357 140.431C87.4699 137.453 85.487 135.374 83.2539 136.459C81.2406 137.438 81.3024 140.406 82.7199 143.497ZM93.6606 159.939L96.0285 127.804L98.0782 126.807L95.7104 158.943L93.6606 159.939ZM111.464 141.646C113.832 146.811 112.372 150.656 109.333 152.134C106.367 153.576 102.681 152.372 100.399 147.488C98.134 142.549 99.4714 138.533 102.619 137.002C105.95 135.382 109.32 136.971 111.464 141.646ZM102.855 146.109C104.253 149.256 106.513 151.061 108.49 150.1C110.614 149.068 110.493 146.267 109.007 143.025C107.641 140.047 105.658 137.968 103.425 139.054C101.412 140.032 101.437 143.017 102.855 146.109Z" fill="black"/>
<path d="M69.2468 107.715L69.2722 105.833C69.2722 105.607 69.3735 105.493 69.5771 105.493H73.3321C73.6533 105.493 73.8144 105.668 73.8144 106.016V106.12C73.7972 106.243 73.785 106.503 73.7759 106.904C73.7668 107.305 73.7465 107.557 73.7121 107.662C73.6614 107.94 73.4669 108.08 73.1285 108.08C72.8579 108.063 71.6826 108.054 69.6015 108.054C69.5001 108.054 69.415 108.024 69.3481 107.962C69.2803 107.903 69.2468 107.819 69.2468 107.715Z" fill="black"/>
<path d="M78.0014 104.684L78.509 104.004C78.6103 103.865 78.8474 103.551 79.2193 103.063C79.5911 102.576 79.9042 102.201 80.1585 101.939C80.2092 101.887 80.2345 101.821 80.2345 101.743C80.2345 101.665 80.1332 101.625 79.9296 101.625L77.9254 101.677L77.3418 101.703C77.1219 101.687 76.97 101.633 76.8848 101.547C76.7997 101.46 76.7582 101.32 76.7582 101.128C76.7582 100.327 76.7744 99.7352 76.8089 99.3512C76.8089 99.3167 76.8342 99.2468 76.8848 99.1425C77.5272 99.1258 79.6671 99.1164 83.3046 99.1164C83.643 99.1341 83.8669 99.1686 83.9773 99.2207C84.0868 99.2729 84.1334 99.4294 84.1172 99.6914V100.423C84.1506 100.615 84.1172 100.763 84.0158 100.867C83.5082 101.547 82.9246 102.288 82.265 103.089L81.6561 103.873C81.6216 103.925 81.5801 103.986 81.5294 104.055C81.4788 104.125 81.4109 104.212 81.3268 104.316C81.5973 104.386 81.9823 104.574 82.4808 104.878C82.9793 105.182 83.4576 105.649 83.9145 106.276C84.3715 106.903 84.5995 107.696 84.5995 108.654C84.5995 110.536 84.2904 111.968 83.6734 112.952C83.0553 113.936 82.4089 114.569 81.7321 114.847C81.0552 115.126 80.497 115.266 80.0572 115.266C79.2791 115.266 78.581 115.105 77.9639 114.783C77.3459 114.46 76.8555 114.064 76.4927 113.594C76.129 113.123 75.8959 112.653 75.7946 112.183C75.7784 112.097 75.7815 112.005 75.8078 111.909C75.8331 111.813 75.8716 111.739 75.9223 111.686C76.21 111.372 76.6751 110.921 77.3175 110.328C77.4016 110.241 77.4776 110.197 77.5455 110.197C77.6468 110.197 77.7319 110.276 77.7988 110.432C78.3398 111.756 79.0075 112.418 79.8029 112.418C80.3774 112.418 80.8729 112.183 81.2873 111.713C81.7017 111.242 81.9094 110.589 81.9094 109.753C81.9094 108.586 81.6814 107.733 81.2244 107.192C80.7675 106.653 80.2183 106.382 79.5749 106.382L78.0014 106.408C77.9842 106.408 77.9629 106.312 77.9376 106.121C77.9122 105.929 77.8991 105.721 77.8991 105.494C77.9001 105.024 77.9335 104.753 78.0014 104.684Z" fill="black"/>
<path d="M94.1631 111.113C94.1631 112.367 93.8369 113.408 93.1864 114.236C92.5349 115.063 91.6929 115.478 90.6615 115.478C89.5621 115.478 88.6614 115.121 87.9592 114.406C87.2571 113.692 86.9065 112.664 86.9065 111.322L86.9318 102.49C86.9318 101.898 87.0372 101.275 87.249 100.621C87.4607 99.9678 87.8539 99.397 88.4283 98.9097C89.0028 98.4224 89.7901 98.1782 90.7881 98.1782C92.0567 98.1782 92.9068 98.6092 93.3384 99.4722C93.77 100.334 94.0446 101.262 94.1631 102.255C94.1966 102.482 94.2138 103.666 94.2138 105.809C94.2148 108.856 94.1976 110.624 94.1631 111.113ZM89.4446 110.406C89.4608 110.825 89.4861 111.159 89.5206 111.412C89.554 111.665 89.6553 111.931 89.8256 112.209C89.9948 112.488 90.2572 112.628 90.6118 112.628C90.9675 112.628 91.2289 112.449 91.3981 112.092C91.5673 111.735 91.6514 111.331 91.6514 110.878C91.6514 110.425 91.6514 110.164 91.6514 110.094C91.702 108.265 91.7274 106.67 91.7274 105.312C91.7274 104.302 91.7101 103.604 91.6767 103.221C91.6423 102.508 91.5663 101.875 91.4487 101.326C91.3302 100.778 91.0597 100.503 90.6372 100.503C90.2146 100.503 89.9178 100.79 89.7496 101.365C89.5804 101.94 89.4791 102.489 89.4446 103.012C89.4102 104.162 89.3939 105.634 89.3939 107.428C89.3929 108.891 89.4102 109.884 89.4446 110.406Z" fill="black"/>
<path d="M96.3963 113.595L104.947 101.966C104.98 101.914 105.036 101.844 105.112 101.758C105.188 101.671 105.268 101.587 105.353 101.509C105.437 101.431 105.513 101.391 105.581 101.391C105.665 101.391 105.776 101.443 105.911 101.548C106.046 101.652 106.131 101.714 106.165 101.73C106.47 101.975 106.875 102.279 107.383 102.645C107.517 102.732 107.585 102.837 107.585 102.959C107.585 103.063 107.551 103.159 107.484 103.246C107.078 103.838 105.729 105.68 103.437 108.772C101.145 111.865 99.5251 114.038 98.5777 115.292C98.4764 115.396 98.3751 115.448 98.2727 115.448C98.1542 115.448 98.0701 115.431 98.0194 115.396C97.7996 115.274 97.4612 114.987 97.0042 114.534C96.5483 114.082 96.3456 113.769 96.3963 113.595ZM98.7814 101.784C99.1026 101.784 99.2637 101.95 99.2637 102.28V103.979C99.2464 104.276 99.1786 104.472 99.061 104.567C98.9425 104.663 98.7307 104.711 98.4268 104.711C97.9526 104.711 97.5979 104.694 97.3608 104.659C97.0224 104.659 96.8238 104.611 96.7651 104.515C96.7053 104.419 96.6759 104.232 96.6759 103.953L96.6253 102.072C96.6253 101.88 96.7266 101.785 96.9302 101.785C97.065 101.802 97.3781 101.807 97.8695 101.798C98.3579 101.788 98.6628 101.784 98.7814 101.784ZM106.165 112.315C106.334 112.315 106.456 112.35 106.532 112.419C106.608 112.489 106.647 112.611 106.647 112.785C106.663 112.977 106.672 113.256 106.672 113.621C106.672 113.987 106.663 114.274 106.647 114.483C106.647 114.779 106.587 114.976 106.47 115.071C106.351 115.167 106.131 115.215 105.81 115.215C105.336 115.215 104.981 115.206 104.744 115.189C104.524 115.189 104.359 115.158 104.25 115.097C104.139 115.036 104.08 114.922 104.072 114.757C104.063 114.592 104.059 114.491 104.059 114.456C104.042 114.038 104.034 113.41 104.034 112.575C104.034 112.4 104.102 112.314 104.237 112.314H104.313C104.431 112.314 104.735 112.31 105.226 112.3C105.717 112.293 106.029 112.297 106.165 112.315Z" fill="black"/>
<path d="M67.4729 173.903L67.4982 172.021C67.4982 171.795 67.5996 171.681 67.8032 171.681H71.5582C71.8794 171.681 72.0405 171.855 72.0405 172.204V172.308C72.0232 172.43 72.0111 172.691 72.002 173.092C71.9929 173.493 71.9726 173.745 71.9381 173.849C71.8875 174.128 71.6929 174.268 71.3545 174.268C71.084 174.251 69.9087 174.242 67.8275 174.242C67.7262 174.242 67.6411 174.211 67.5742 174.15C67.5073 174.09 67.4729 174.007 67.4729 173.903Z" fill="black"/>
<path d="M75.365 172.414C75.2798 172.414 75.1491 172.205 74.9718 171.786C74.7945 171.368 74.7135 171.107 74.7307 171.003L74.756 167.057C74.756 166.274 74.7469 165.821 74.7307 165.699C74.68 165.385 74.7986 165.211 75.0863 165.176C75.3234 165.141 76.211 165.124 77.7501 165.124C79.661 165.124 80.6762 165.133 80.7948 165.15C81.0319 165.185 81.1504 165.332 81.1504 165.594L81.0491 167.109C81.0146 167.528 80.7613 167.746 80.2882 167.763C79.967 167.78 79.5019 167.772 78.893 167.737L77.8524 167.711C77.666 167.711 77.5515 167.741 77.5099 167.802C77.4674 167.864 77.4461 167.999 77.4461 168.207C77.4461 168.381 77.4461 168.604 77.4461 168.874C77.4461 169.144 77.4593 169.336 77.4846 169.449C77.5099 169.563 77.5991 169.619 77.7511 169.619C77.8017 169.619 77.9628 169.602 78.2334 169.567C78.3175 169.55 78.4279 169.541 78.5637 169.541C79.1382 169.541 79.6762 169.719 80.1747 170.076C80.6732 170.433 81.0582 170.821 81.3287 171.239C81.8698 172.022 82.1403 173.364 82.1403 175.263C82.1403 175.943 82.0897 176.91 81.9883 178.164C81.887 179.402 81.4635 180.277 80.7198 180.791C79.9751 181.305 79.1716 181.562 78.3094 181.562C77.1928 181.562 76.2454 181.231 75.4673 180.569C74.7398 179.941 74.2575 179.21 74.0214 178.373C74.0052 178.321 74.0083 178.255 74.0346 178.177C74.0599 178.099 74.0984 178.033 74.1491 177.981L74.7834 177.536L75.7986 176.831C75.8665 176.779 75.9334 176.753 76.0012 176.753C76.1026 176.753 76.213 176.831 76.3316 176.987C76.7034 177.614 77.0084 178.067 77.2455 178.346C77.364 178.486 77.5413 178.607 77.7784 178.712C78.0155 178.817 78.2182 178.869 78.3874 178.869C78.7086 178.869 78.9538 178.721 79.123 178.424C79.2922 178.128 79.3763 177.614 79.3763 176.882C79.3763 175.157 79.3671 174.155 79.3509 173.877C79.3337 173.476 79.2577 173.115 79.123 172.792C78.9872 172.47 78.7258 172.231 78.3367 172.073C78.049 171.951 77.744 171.891 77.4228 171.891C76.9324 171.891 76.4835 171.973 76.0783 172.139C75.6689 172.305 75.4318 172.396 75.365 172.414Z" fill="black"/>
<path d="M84.2954 179.783L92.8459 168.154C92.8794 168.102 92.9351 168.032 93.0111 167.945C93.0871 167.859 93.1671 167.775 93.2522 167.697C93.3363 167.619 93.4123 167.579 93.4802 167.579C93.5643 167.579 93.6747 167.631 93.8105 167.736C93.9453 167.84 94.0304 167.901 94.0638 167.918C94.3688 168.162 94.7741 168.467 95.2817 168.832C95.4165 168.92 95.4843 169.024 95.4843 169.146C95.4843 169.251 95.4499 169.347 95.383 169.433C94.9767 170.026 93.6281 171.868 91.3362 174.961C89.0443 178.054 87.4242 180.226 86.4769 181.481C86.3755 181.585 86.2742 181.637 86.1719 181.637C86.0533 181.637 85.9692 181.619 85.9186 181.585C85.6987 181.463 85.3603 181.176 84.9033 180.723C84.4484 180.27 84.2448 179.957 84.2954 179.783ZM86.6805 167.971C87.0017 167.971 87.1628 168.137 87.1628 168.468V170.167C87.1456 170.463 87.0777 170.659 86.9602 170.755C86.8416 170.851 86.6299 170.899 86.3259 170.899C85.8517 170.899 85.4971 170.883 85.26 170.847C84.9216 170.847 84.723 170.799 84.6632 170.703C84.6034 170.607 84.574 170.42 84.574 170.142L84.5234 168.26C84.5234 168.068 84.6247 167.973 84.8284 167.973C84.9631 167.991 85.2762 167.995 85.7676 167.987C86.258 167.976 86.562 167.971 86.6805 167.971ZM94.0648 178.502C94.234 178.502 94.3566 178.538 94.4326 178.607C94.5086 178.677 94.5471 178.799 94.5471 178.973C94.5633 179.165 94.5724 179.444 94.5724 179.809C94.5724 180.175 94.5633 180.462 94.5471 180.671C94.5471 180.967 94.4873 181.163 94.3698 181.259C94.2513 181.355 94.0314 181.403 93.7102 181.403C93.236 181.403 92.8814 181.395 92.6443 181.377C92.4244 181.377 92.2593 181.347 92.1498 181.285C92.0394 181.225 91.9806 181.111 91.9725 180.945C91.9634 180.78 91.9594 180.68 91.9594 180.645C91.9421 180.226 91.934 179.599 91.934 178.763C91.934 178.589 92.0019 178.502 92.1367 178.502H92.2127C92.3312 178.502 92.6352 178.498 93.1266 178.49C93.616 178.481 93.9291 178.485 94.0648 178.502Z" fill="black"/>
<path d="M49.7033 129.52L42.1782 82.8816L33.3713 77.063L33.7331 76.4828L42.7912 82.4663L42.8155 82.6176L50.364 129.407L49.7033 129.52Z" fill="#2A9D8F"/>
<path d="M119.317 104.524L118.656 104.635L129.81 175.419L130.471 175.308L119.317 104.524Z" fill="#2A9D8F"/>
<path d="M133.177 192.622L132.515 192.731L136.384 217.581L137.045 217.471L133.177 192.622Z" fill="#2A9D8F"/>
<path d="M160.45 227.915L160.988 232.503L160.869 235.602L164.045 237.939L168.581 239.384L177.964 244.808L187.854 245L188.003 241.118L181.261 233.327L175.467 230.101L171.307 224.152L160.45 227.915Z" fill="#2A9D8F"/>
<path d="M175.467 230.101L171.307 224.152L160.45 227.914L160.733 230.336C160.834 230.374 160.933 230.414 161.032 230.455C162.485 231.062 164.065 231.4 165.49 232.066C166.718 232.64 167.847 233.489 169.068 234.126C171.742 235.52 174.691 236.574 177.73 236.344C178.218 236.308 178.748 236.215 179.074 235.838C179.551 235.287 179.361 234.421 179.072 233.746C178.239 231.808 177.207 231.07 175.467 230.101Z" fill="#FFA386"/>
<path d="M120.405 243.45L135.621 243.088L140.386 241.644L146.425 241.26L146.595 236.802L142.286 229.625L131.632 229.903L128.54 233.431L118.56 237.759L115.969 242.052L120.405 243.45Z" fill="#2A9D8F"/>
<path d="M135.114 236.668C138.586 237.229 141.876 235.726 144.973 234.099L142.286 229.625L131.631 229.903L128.54 233.431L125.956 234.551C128.96 235.46 132.022 236.168 135.114 236.668Z" fill="#FFA386"/>
<path d="M97.2029 6.64923C96.3183 4.89405 94.5554 3.87454 92.8167 3.20878C90.8673 2.46163 88.7962 1.51099 86.6736 1.53604C86.4233 1.53917 86.1659 1.58717 85.9532 1.72283C85.6441 1.92005 85.4658 2.27067 85.3057 2.60668C84.559 4.17298 83.8963 5.78207 83.3229 7.42455C82.8071 8.90007 82.0128 10.4309 81.9054 12.0149C81.8881 12.2612 81.8932 12.5242 82.0209 12.7329C82.1222 12.8978 82.2863 13.0084 82.4474 13.1127C83.9885 14.1103 85.864 15.493 87.6371 15.9834C88.9421 16.3445 90.2826 16.0064 91.5167 16.8412C92.6525 17.6092 93.2057 19.0085 94.1247 20.0395C94.2625 20.194 94.4216 20.3474 94.6222 20.3849C94.8391 20.4256 95.0549 20.3213 95.2524 20.22C96.7763 19.4385 98.2931 18.6444 99.8028 17.8346C103.632 15.7831 98.8413 11.5662 97.9739 8.85103C97.7358 8.10909 97.5514 7.34212 97.2029 6.64923Z" fill="#FFA386"/>
<path d="M228.418 9.54909C228.895 10.2378 229.389 11.0663 229.148 11.8751C229.003 12.3613 228.618 12.7245 228.246 13.0584C226.583 14.5496 224.85 15.9562 223.052 17.271C222.384 17.7605 221.674 18.2499 220.862 18.3667C220.001 18.4899 219.144 18.1768 218.286 18.0307C218.053 17.9911 217.812 17.9639 217.584 18.0245C217.304 18.0986 217.074 18.2968 216.85 18.4836C215.778 19.3821 214.627 20.1814 213.417 20.867C213.235 20.9692 213.037 21.0736 212.832 21.0423C212.582 21.0047 212.402 20.7793 212.252 20.5696C211.709 19.8099 211.206 19.0179 210.685 18.2551C210.126 17.4349 209.395 16.7785 208.911 15.8811C208.788 15.6547 208.674 15.4053 208.699 15.1475C208.72 14.9315 208.839 14.7395 208.96 14.56C210.621 12.09 213.02 10.1554 215.147 8.14349C217.466 5.94899 219.954 3.94337 222.579 2.15271C222.665 2.09427 222.759 2.03375 222.862 2.04418C222.984 2.0567 223.073 2.16418 223.149 2.26436C224.959 4.66234 226.744 7.05093 228.418 9.54909Z" fill="#FFA386"/>
<path d="M202.529 28.2749L214.432 73.9763L218.798 70.1811L223.566 75.4258L207.73 27.6185L202.529 28.2749Z" fill="#40C4B3"/>
<path d="M126.67 55.2433L125.885 75.7514L127.323 117.484L140.36 118.014L168.589 111.987L167.34 97.3812L176.588 67.9877L174.811 50.9472L156.621 50.2084L128.682 50.2637L126.67 55.2433Z" fill="#2A9D8F"/>
<path d="M107.941 50.1489L131.655 68.9873L137.691 62.2024L138.095 51.6609L119.855 41.1966L100.744 12.2988L92.5737 17.4234L107.941 50.1489Z" fill="#2A9D8F"/>
<path d="M130.504 112.747L127.222 171.022L129.271 179.217L128.314 229.204L136.759 232.941L145.133 231.239L146.798 187.771L142.668 172.19L150.993 133.049L150.127 100.835L130.504 112.747Z" fill="#264653"/>
<path d="M143.094 105.105L152.399 171.774L156.242 181.125L159.628 229.199L166.077 231.315L172.542 228.567L175.204 227.593L173.606 183.385L169.517 170.938L167.172 128.839L169.044 121.073L162.631 96.97L143.094 105.105Z" fill="#264653"/>
<path d="M137.845 60.0946C133.459 69.5425 129.499 80.2896 129.812 90.3949C129.859 91.885 130.264 112.736 130.504 112.747L141.776 113.205L166.198 107.681L165.142 94.4155L173.189 67.7007L171.681 52.2265L155.952 51.5879C151.894 51.6046 147.764 51.6672 143.743 52.2443C143.087 52.3382 142.414 52.4644 141.859 52.837C141.16 53.3065 140.744 54.1017 140.364 54.8676C139.526 56.5539 138.678 58.3008 137.845 60.0946Z" fill="white"/>
<path d="M165.291 54.5191L163.736 67.7059L167.431 74.0744L170.514 75.8223L190.72 55.5511L216.517 19.5532L209.97 12.257L197.296 20.9359L183.907 41.4836L165.291 54.5191Z" fill="#2A9D8F"/>
<path d="M205.117 29.2474L223.566 75.4258L256 58.0848L232.599 12.113L205.117 29.2474Z" fill="#106A5F"/>
<path d="M198.949 19.7181L197.426 59.4914L228.068 60.7363L229.649 19.428L198.949 19.7181Z" fill="#40C4B3"/>
<path d="M197.426 59.4914L189.728 54.0412L198.698 17.2001L202.858 19.6816L197.426 59.4914Z" fill="#188779"/>
<path d="M161.073 22.379C160.78 22.4531 160.504 22.5846 160.213 22.6691C159.48 22.882 158.665 22.7766 158.006 22.3822C157.638 22.162 157.308 21.8531 156.894 21.755C156.388 21.635 155.831 21.8813 155.534 22.3195C155.237 22.7578 155.199 23.3568 155.403 23.8483C155.523 24.1373 155.718 24.3919 155.81 24.6925C155.903 24.992 155.852 25.3791 155.584 25.5315C155.469 25.5972 155.334 25.6076 155.204 25.6254C154.465 25.7276 153.688 26.2306 153.621 26.9945C153.544 27.8741 153.782 28.3406 153.402 28.9876C153.345 29.0846 153.274 29.1858 153.186 29.2923C152.523 30.101 152.19 30.9076 151.971 31.948C151.703 33.2211 151.44 34.2458 150.7 35.3331C150.461 35.6837 150.192 36.0145 149.998 36.3933C149.678 37.0132 149.576 37.728 149.563 38.4292C149.548 39.2807 149.676 40.1802 150.191 40.846C150.774 41.6015 151.693 41.7184 152.247 42.5479C152.777 43.341 153.036 44.2927 153.587 45.0743C154.125 45.836 154.927 46.3557 155.795 46.6249C156.649 46.89 157.635 46.5289 158.404 46.9025C159.129 47.2542 158.99 48.2643 159.482 48.8706C160.006 49.5154 160.911 49.8535 161.703 49.5947C162.1 49.4643 162.449 49.2139 162.783 48.9572C165.002 47.2562 166.929 45.1588 169.25 43.6071C170.431 42.8172 171.785 42.0742 172.671 40.9159C173.197 40.2293 173.537 39.3527 173.437 38.4845C173.41 38.2435 173.349 37.9982 173.403 37.7624C173.461 37.5068 173.64 37.3033 173.766 37.0758C174.102 36.4674 174.017 35.641 173.564 35.1192C173.302 34.8166 172.899 34.514 172.989 34.1195C173.041 33.8941 173.242 33.746 173.407 33.5873C173.84 33.1699 174.077 32.548 174.037 31.9386C173.997 31.3302 173.679 30.7469 173.196 30.3932C172.844 30.1354 172.367 29.9351 172.288 29.4968C172.237 29.2056 172.391 28.9229 172.446 28.6328C172.77 26.9256 170.616 27.224 169.842 26.5906C169.574 26.3704 169.466 26.0083 169.302 25.6963C168.808 24.7488 167.661 24.2166 166.644 24.4629C166.327 24.5401 166.004 24.6841 165.686 24.6111C164.981 24.4493 164.586 23.4371 163.962 23.0583C163.153 22.57 162.018 22.1411 161.073 22.379Z" fill="black"/>
<path d="M157.922 40.2555C156.042 39.4666 154.074 38.8405 152.069 39.022C151.75 39.0513 151.422 39.1045 151.153 39.2819C150.758 39.5417 150.557 40.0176 150.384 40.4663C149.123 43.7304 147.967 47.0414 146.739 50.3191C146.321 51.4367 145.653 52.093 144.701 52.7557C144.345 53.003 143.979 53.2378 143.607 53.4569C144.772 54.3355 145.799 55.2173 147.154 55.7808C148.415 56.3057 149.751 56.625 151.09 56.8504C153.659 57.2824 156.34 57.3899 158.822 56.5812C158.911 55.8653 158.292 55.2444 158.241 54.5244C158.223 54.2625 158.282 54.0026 158.34 53.748C158.995 50.8596 159.344 47.9106 160.078 45.0347C160.354 43.9547 161.087 42.4166 160.17 41.4545C159.837 41.1049 159.392 40.8993 158.957 40.7042C158.613 40.5518 158.27 40.4005 157.922 40.2555Z" fill="#FFA386"/>
<path d="M159.669 44.3283C159.015 43.1679 158.526 42.1943 157.31 41.5077C156.795 41.2166 156.24 41.0099 155.666 40.8816C154.453 40.6103 152.942 40.5498 151.785 41.0799C151.007 41.4367 150.39 42.1317 150.071 42.9467C149.485 44.4504 149.894 46.3444 150.533 47.7562C151.695 50.318 154.454 52.2308 157.25 51.8802C157.794 51.8123 158.332 51.6381 158.82 51.3741C159.211 49.263 159.54 47.1395 160.072 45.0535C159.944 44.8156 159.808 44.5767 159.669 44.3283Z" fill="black"/>
<path d="M164.152 27.7292C163.327 27.2888 162.474 26.9288 161.648 26.6711C159.786 26.0888 158.382 26.957 156.896 28.0057C155.698 28.851 154.483 29.7129 153.576 30.8806C152.452 32.329 151.676 34.3023 151.08 36.0397C150.466 37.8283 150.006 39.6889 149.892 41.588C149.84 42.4667 150.004 43.3714 150.117 44.2459C150.187 44.7822 150.271 45.3175 150.383 45.8466C150.482 46.3193 150.547 46.8264 150.85 47.2011C151.481 47.9827 152.232 48.614 153.041 49.191C153.91 49.8109 154.704 50.2575 155.758 50.1365C157.616 49.9225 159.793 49.7347 161.463 48.8435C163.321 47.8522 164.93 46.4445 166.294 44.8177C167.099 43.8587 167.83 42.8267 168.44 41.7258C170.327 38.3166 170.498 33.5217 167.794 30.5018C166.821 29.4166 165.525 28.4618 164.152 27.7292Z" fill="#FFA386"/>
<path d="M158.621 42.0305C158.552 42.0065 158.473 41.9804 158.387 41.9522C157.763 41.7466 156.908 41.4659 156.665 40.8503C156.559 40.5831 156.584 40.2962 156.738 39.9988C156.869 39.7442 157.076 39.5605 157.258 39.3988L157.279 39.38C158.552 38.2478 159.661 36.9361 160.572 35.4804L161.049 35.7976C160.107 37.3003 158.964 38.6547 157.649 39.8235L157.628 39.8422C157.469 39.9831 157.319 40.1167 157.237 40.2743C157.141 40.459 157.164 40.5664 157.189 40.6301C157.332 40.9922 158.099 41.2447 158.558 41.395C158.648 41.4242 158.732 41.4524 158.804 41.4774L158.621 42.0305Z" fill="black"/>
<path d="M158.483 44.0204C158.375 44.01 158.261 44.0121 158.153 44.0037C157.556 43.962 157.034 43.5905 156.548 43.2316C156.341 43.0792 156.135 42.9268 155.942 42.7557C155.321 42.2006 154.995 40.5341 154.094 41.2458C153.619 41.6214 153.195 42.6399 153.175 43.2524C153.148 44.0778 153.362 44.9012 153.8 45.6003C154.242 46.3057 155.22 46.721 156.012 46.7523C157.003 46.792 158.076 46.2504 158.705 45.4761C158.913 45.2205 159.056 44.8918 159.025 44.5599C159.011 44.4055 158.954 44.2479 158.839 44.1488C158.738 44.0632 158.614 44.033 158.483 44.0204Z" fill="black"/>
<path d="M156.547 45.5576C156.416 45.4198 156.271 45.3061 156.155 45.2466C155.926 45.1297 155.667 45.0786 155.449 44.944C155.145 44.7572 154.95 44.4337 154.72 44.1582C154.489 43.8817 153.734 43.2942 153.481 43.8243C153.304 44.1947 153.578 44.7833 153.792 45.0786C154.31 45.7944 155.112 46.2525 155.94 46.4748C156.133 46.527 156.333 46.5677 156.53 46.5322C157.129 46.4226 156.885 45.9124 156.547 45.5576Z" fill="#106A5F"/>
<path d="M151.218 30.1794C150.957 30.2733 150.714 30.409 150.506 30.5864C150.091 30.9411 149.835 31.4535 149.61 31.9586C149.442 32.3374 149.284 32.7245 149.192 33.1304C149.074 33.6511 149.067 34.1906 149.061 34.7259C149.05 35.6985 149.467 37.0999 150.557 37.3086C151.127 37.4172 151.701 37.1104 152.132 36.7117C152.861 36.0387 153.674 35.2529 154.1 34.3378C154.463 33.5562 154.597 32.664 154.483 31.8062C154.277 30.2691 152.517 29.7129 151.218 30.1794Z" fill="#FFA386"/>
<path d="M164.197 47.7531C164.218 47.7781 164.24 47.8021 164.263 47.8261C165.784 49.4425 168.38 47.1666 169.189 45.8372C169.759 44.898 170.135 43.6761 169.628 42.6994C168.777 41.0652 166.741 41.6861 165.57 42.5689C164.231 43.579 162.846 46.192 164.197 47.7531Z" fill="#FFA386"/>
<path d="M152.502 34.2449C152.478 34.2438 152.453 34.2397 152.429 34.2324C152.279 34.1844 152.195 34.0205 152.242 33.8671C152.342 33.5322 152.429 33.024 152.275 32.5106C152.143 32.0713 151.847 31.7144 151.482 31.5547C151.337 31.4921 151.27 31.3199 151.331 31.1718C151.392 31.0225 151.559 30.9537 151.703 31.0163C152.22 31.2417 152.637 31.7363 152.817 32.3384C152.973 32.8581 152.961 33.4466 152.784 34.0404C152.745 34.1687 152.628 34.2501 152.502 34.2449Z" fill="black"/>
<path d="M165.758 44.896C165.717 44.8939 165.676 44.8834 165.637 44.8626C165.499 44.7874 165.445 44.61 165.519 44.4671C166.08 43.3693 167.173 42.6128 168.372 42.4917C168.528 42.4761 168.667 42.594 168.682 42.7547C168.697 42.9154 168.583 43.0583 168.427 43.074C167.431 43.1742 166.486 43.8285 166.02 44.7394C165.968 44.8427 165.863 44.9001 165.758 44.896Z" fill="black"/>
<path d="M151.029 33.9339C150.925 33.9297 150.826 33.8661 150.781 33.7607C150.717 33.6135 150.782 33.4403 150.925 33.3746L152.355 32.7182C152.498 32.6524 152.666 32.7192 152.73 32.8664C152.794 33.0135 152.729 33.1867 152.586 33.2525L151.156 33.9088C151.115 33.9276 151.071 33.936 151.029 33.9339Z" fill="black"/>
<path d="M167.626 45.6139C167.51 45.6087 167.403 45.5294 167.366 45.4083C167.169 44.7551 167.034 44.0799 166.964 43.3996C166.948 43.2389 167.06 43.0949 167.216 43.0782C167.372 43.0615 167.512 43.1773 167.528 43.338C167.594 43.9798 167.722 44.6184 167.908 45.2341C167.955 45.3885 167.871 45.5523 167.722 45.6003C167.689 45.6108 167.658 45.6149 167.626 45.6139Z" fill="black"/>
<path d="M155.577 31.5286C155.627 31.7519 155.897 31.8176 156.117 31.8552C157.01 32.0055 157.851 32.377 158.704 32.6848C158.971 32.7808 159.247 32.8716 159.529 32.8507C159.81 32.8298 160.099 32.6691 160.198 32.3968C160.27 32.1943 160.227 31.9637 160.137 31.7686C159.923 31.3115 159.478 31.0204 159.036 30.7981C158.479 30.5185 157.872 30.3077 157.252 30.3296C156.632 30.3515 155.998 30.6406 155.667 31.1811C155.604 31.2855 155.551 31.4086 155.577 31.5286Z" fill="black"/>
<path d="M166.943 38.0349C167.089 37.1333 166.796 36.2505 166.273 35.5294C166.141 35.3479 165.993 35.1726 165.804 35.0557C165.556 34.9044 165.247 34.8658 164.973 34.9534C164.457 35.1172 164.184 35.6359 164.428 36.1524C164.517 36.3402 164.653 36.4999 164.783 36.6596C165.228 37.2043 165.633 37.8001 166.198 38.2112C166.395 38.3553 166.698 38.4627 166.855 38.2718C166.909 38.206 166.929 38.1184 166.943 38.0349Z" fill="black"/>
<path d="M165.012 36.6136C164.948 36.6105 164.885 36.5865 164.833 36.5385C164.716 36.43 164.708 36.2453 164.814 36.1253C165.038 35.8717 165.221 35.5847 165.359 35.2738C165.424 35.1266 165.593 35.063 165.736 35.1298C165.879 35.1965 165.941 35.3708 165.875 35.5179C165.712 35.8842 165.497 36.2213 165.234 36.5187C165.175 36.5844 165.093 36.6168 165.012 36.6136Z" fill="#106A5F"/>
<path d="M165.848 37.4839C165.813 37.4829 165.776 37.4735 165.742 37.4579C165.599 37.3911 165.536 37.2168 165.601 37.0707L166.136 35.8634C166.201 35.7162 166.37 35.6515 166.512 35.7183C166.655 35.7851 166.718 35.9594 166.653 36.1055L166.118 37.3128C166.068 37.4245 165.96 37.4881 165.848 37.4839Z" fill="#106A5F"/>
<path d="M157.1 32.065C157.01 32.0608 156.923 32.0139 156.871 31.9293C156.787 31.7926 156.827 31.6121 156.959 31.5255C157.271 31.322 157.541 31.0455 157.739 30.7251C157.824 30.5895 158 30.5488 158.132 30.6364C158.263 30.7231 158.303 30.9046 158.218 31.0403C157.974 31.4326 157.644 31.7707 157.262 32.0201C157.213 32.0525 157.156 32.0671 157.1 32.065Z" fill="#106A5F"/>
<path d="M157.937 32.3509C157.833 32.3467 157.736 32.2841 157.69 32.1798C157.625 32.0326 157.689 31.8594 157.832 31.7926C158.202 31.6204 158.543 31.3679 158.822 31.0643C158.929 30.9463 159.109 30.9411 159.223 31.0517C159.337 31.1623 159.342 31.3481 159.235 31.465C158.907 31.8239 158.503 32.1213 158.066 32.3248C158.023 32.3436 157.98 32.3519 157.937 32.3509Z" fill="#106A5F"/>
<path d="M156.847 46.2056C156.604 46.1743 156.36 46.143 156.127 46.0637C155.841 45.9656 155.581 45.7986 155.335 45.6181C154.464 44.9774 153.725 44.1467 153.178 43.1982C153.177 43.2159 153.175 43.2337 153.174 43.2514C153.147 44.0768 153.361 44.9001 153.799 45.5993C154.241 46.3047 155.219 46.72 156.011 46.7513C156.578 46.7732 157.172 46.6052 157.694 46.313C157.412 46.2776 157.13 46.2421 156.847 46.2056Z" fill="white"/>
<path d="M159.024 44.5599C159.01 44.4055 158.953 44.2479 158.838 44.1488C158.738 44.0632 158.614 44.033 158.483 44.0204C158.375 44.01 158.261 44.0121 158.153 44.0037C157.556 43.962 157.034 43.5905 156.548 43.2316C156.341 43.0792 156.134 42.9268 155.942 42.7557C155.321 42.2006 154.995 40.5341 154.094 41.2458C153.692 41.564 154.054 42.09 154.192 42.451C154.205 42.4865 154.219 42.523 154.234 42.5585C154.33 42.8016 154.438 43.0354 154.565 43.2587C154.752 43.0907 154.949 42.9342 155.157 42.7933C154.965 42.9822 154.803 43.2023 154.672 43.4403C154.736 43.5425 154.805 43.6437 154.879 43.7418C155.352 44.37 155.946 44.8521 156.612 45.1297C156.802 44.8605 156.958 44.5652 157.074 44.2542C157.035 44.5829 156.937 44.9001 156.832 45.2132C157.46 45.4281 158.145 45.4636 158.848 45.2706C158.972 45.0546 159.047 44.8083 159.024 44.5599Z" fill="white"/>
<path d="M160.486 24.4182C160.259 24.3576 160.026 24.3201 159.787 24.3117C159.038 24.2856 158.314 24.5611 157.613 24.8314C157.079 25.038 156.534 25.2498 156.089 25.6182C155.644 25.9865 155.309 26.5459 155.346 27.1323C155.359 27.3421 155.419 27.5529 155.387 27.7605C155.324 28.1612 154.952 28.4169 154.633 28.6548C154.108 29.0461 153.609 29.595 153.598 30.2618C153.594 30.5175 153.665 30.7679 153.702 31.0215C153.83 31.9053 153.555 32.7923 153.281 33.6407C153.957 33.0814 154.467 32.3133 154.726 31.4618C154.877 30.9672 154.958 30.4215 155.3 30.0395C156.322 28.8958 157.949 30.6218 158.983 28.9804C159.329 30.3067 161.106 30.7345 162.138 30.0093C162.361 29.8527 162.61 29.6409 162.865 29.7296C162.979 29.7693 163.065 29.8632 163.157 29.9425C163.702 30.4131 164.601 30.3609 165.091 29.8298C164.573 30.3766 164.328 31.1853 164.454 31.9387C164.58 32.6921 165.073 33.3704 165.74 33.7064C165.892 33.7836 166.061 33.8504 166.16 33.9913C166.372 34.2918 166.158 34.7437 166.322 35.0734C166.484 35.399 166.916 35.4449 167.2 35.6661C168.192 36.4394 167.764 38.6913 167.312 39.5908C166.874 40.4642 166.69 41.4722 166.791 42.45C167.075 41.9804 167.68 41.8051 168.212 41.8854C168.744 41.9658 169.222 42.2517 169.685 42.5314C170.084 41.4993 170.1 40.3609 170.178 39.2527C170.377 36.4415 171.02 33.6188 170.595 30.8336C170.506 30.2503 170.366 29.6618 170.057 29.164C169.26 27.8784 167.624 27.5445 166.205 27.1083C165.058 26.7567 163.95 26.2672 162.912 25.6537C162.124 25.1883 161.357 24.7218 160.512 24.3691L160.486 24.4182Z" fill="black"/>
<path d="M157.353 28.6225C156.876 28.6026 156.453 28.3136 156.305 27.8951C156.204 27.6103 156.24 27.3118 156.284 27.0833C156.373 26.6106 156.539 26.1608 156.778 25.7476C156.845 25.6318 156.99 25.5932 157.102 25.662C157.215 25.7309 157.252 25.8801 157.185 25.996C156.975 26.3622 156.828 26.7588 156.749 27.1772C156.717 27.3431 156.689 27.556 156.75 27.7282C156.835 27.9692 157.127 28.1445 157.426 28.1362C157.776 28.1258 158.094 27.9118 158.3 27.7344C158.4 27.6478 158.549 27.6614 158.633 27.7647C158.717 27.868 158.704 28.0214 158.604 28.108C158.227 28.4336 157.824 28.612 157.44 28.6235C157.41 28.6235 157.381 28.6235 157.353 28.6225Z" fill="white"/>
<path d="M160.384 26.0669C160.317 26.0638 160.251 26.0325 160.207 25.973C159.899 25.566 159.826 24.989 160.026 24.535C160.238 24.055 160.752 23.7409 161.248 23.79C161.773 23.8411 162.22 24.295 162.266 24.823C162.277 24.9566 162.181 25.0756 162.051 25.0871C161.92 25.0996 161.806 25.0004 161.794 24.8658C161.769 24.5695 161.504 24.3044 161.204 24.2752C160.907 24.247 160.587 24.4453 160.458 24.7375C160.328 25.0297 160.378 25.4064 160.581 25.6735C160.661 25.7799 160.642 25.9323 160.54 26.0158C160.493 26.0523 160.438 26.069 160.384 26.0669Z" fill="white"/>
<path d="M165.7 29.3978C165.4 29.3852 165.139 29.2851 164.945 29.0972C164.663 28.8238 164.541 28.3835 164.619 27.9181C164.683 27.5341 164.865 27.1907 165.025 26.8881C165.088 26.7702 165.232 26.7264 165.347 26.7911C165.461 26.8558 165.504 27.004 165.441 27.1219C165.291 27.4047 165.136 27.6968 165.085 28.0016C165.046 28.2363 165.074 28.5536 165.27 28.7424C165.604 29.0649 166.204 28.8468 166.38 28.7717C166.501 28.7205 166.639 28.78 166.689 28.9042C166.739 29.0284 166.681 29.1713 166.56 29.2225C166.256 29.3508 165.964 29.4082 165.7 29.3978Z" fill="white"/>
<path d="M169.841 32.2424C169.825 32.2413 169.809 32.2392 169.793 32.2351C169.666 32.2027 169.589 32.0702 169.62 31.9398C169.721 31.5234 169.771 31.1822 169.688 30.8702C169.615 30.5936 169.372 30.3129 169.098 30.3223C168.772 30.3328 168.517 30.7042 168.31 31.0674C168.245 31.1832 168.1 31.2218 167.986 31.154C167.874 31.0862 167.836 30.9369 167.902 30.8201C168.174 30.3432 168.527 29.8527 169.082 29.835C169.616 29.8173 170.022 30.2774 170.145 30.7418C170.262 31.1801 170.183 31.633 170.079 32.0577C170.053 32.1725 169.952 32.2476 169.841 32.2424Z" fill="white"/>
<path d="M161.116 116.113C166.33 115.331 171.544 114.549 176.759 113.766C174.783 107.303 172.807 100.839 170.831 94.3759C170.505 93.3094 170.176 92.221 170.184 91.1024C170.192 89.9608 170.551 88.8568 170.905 87.7757C173.013 81.3487 175.12 74.9228 177.228 68.4958C178.72 63.943 180.077 58.4625 177.159 54.7132C175.111 52.0804 171.6 51.2644 168.349 50.8637C166.414 50.6247 161.669 49.4977 160.304 50.9273C159.003 52.2902 159.033 58.3352 158.778 60.2542C157.954 66.4422 157.493 72.6814 157.392 78.9257C157.341 82.0729 159.097 116.417 161.116 116.113Z" fill="#2A9D8F"/>
<path d="M156.814 35.9342C156.144 35.6055 155.547 35.1129 155.09 34.5088L155.411 34.251C155.829 34.803 156.375 35.2538 156.989 35.5554L156.814 35.9342Z" fill="black"/>
<path d="M163.612 41.5211C162.962 41.182 162.371 40.7427 161.854 40.2147L162.141 39.9173C162.627 40.414 163.184 40.8282 163.795 41.1476L163.612 41.5211Z" fill="black"/>
<path d="M160.914 116.137L157.143 82.5435L157.145 82.5226L159.508 52.0825L159.914 52.1159L157.552 82.5362L161.318 116.089L160.914 116.137Z" fill="black"/>
<path d="M152.316 59.745C149.002 59.745 145.693 58.6639 143.024 56.6061L143.269 56.2701C147.134 59.2493 152.381 60.1269 156.964 58.5616L157.092 58.9592C155.549 59.4872 153.932 59.745 152.316 59.745Z" fill="black"/>
<path d="M168.919 63.3983C167.967 60.1352 167.754 56.6353 168.304 53.2762L168.706 53.3462C168.165 56.6426 168.374 60.0768 169.309 63.2783L168.919 63.3983Z" fill="black"/>
<path d="M171.202 67.1874L170.935 67.5044L175.09 71.2137L175.357 70.8968L171.202 67.1874Z" fill="black"/>
<path d="M185.729 49.2045C185.405 48.1808 185.247 47.0987 185.095 46.052L184.469 42.933L184.862 42.8255C185.186 43.8492 185.344 44.9313 185.496 45.9779L186.123 49.097L185.729 49.2045Z" fill="black"/>
<path d="M186.008 41.3057L185.629 41.4577L187.579 46.6264L187.959 46.4744L186.008 41.3057Z" fill="black"/>
<path d="M169.388 99.5877L161.632 100.158L161.661 100.576L169.417 100.006L169.388 99.5877Z" fill="black"/>
<path d="M138.445 118.898C135.989 118.898 133.524 118.709 131.069 118.331L131.128 117.916C140.253 119.323 149.522 118.056 157.933 114.253L158.096 114.637C153.844 116.56 149.378 117.849 144.823 118.468C142.713 118.755 140.583 118.898 138.445 118.898Z" fill="black"/>
<path d="M145.635 137.286C144.349 129.373 143.304 121.312 142.53 113.328L142.935 113.286C143.709 121.261 144.752 129.313 146.037 137.216L145.635 137.286Z" fill="black"/>
<path d="M144.058 131.573L141.298 128.482C140.995 128.143 140.682 127.792 140.475 127.357C140.26 126.903 140.186 126.414 140.114 125.94L138.261 113.709L138.664 113.644L140.516 125.875C140.583 126.318 140.653 126.776 140.841 127.172C141.022 127.553 141.314 127.881 141.598 128.198L144.358 131.289L144.058 131.573Z" fill="black"/>
<path d="M162.257 126.404C159.834 121.607 157.939 116.52 156.627 111.285L157.021 111.181C158.325 116.386 160.209 121.442 162.618 126.211L162.257 126.404Z" fill="black"/>
<path d="M144.363 139.282L139.26 171.235L139.662 171.303L144.765 139.35L144.363 139.282Z" fill="black"/>
<path d="M143.543 230.394L143.136 230.389L143.656 188.845L140.147 177.006L140.536 176.883L144.064 188.784V188.817L143.543 230.394Z" fill="black"/>
<path d="M137.152 231.418L129.188 227.575L129.361 227.197L137.196 230.976L145.162 229.046L145.256 229.454L137.152 231.418Z" fill="black"/>
<path d="M138.79 176.115L138.523 175.8L141.365 173.238L137.584 173.085L137.601 172.666L142.401 172.86L138.79 176.115Z" fill="black"/>
<path d="M164.17 175.388L162.525 179.08L162.895 179.255L164.54 175.563L164.17 175.388Z" fill="black"/>
<path d="M172.899 227.403L171.366 183.344L166.883 171.389L166.882 171.353L165.383 123.562L164.23 117.284L164.63 117.206L165.788 123.516L165.789 123.531L167.287 171.304L171.77 183.26L171.771 183.294L173.305 227.389L172.899 227.403Z" fill="black"/>
<path d="M165.589 229.97L160.133 227.508L160.297 227.124L165.611 229.523L174.459 226.59L174.584 226.99L165.589 229.97Z" fill="black"/>
<path d="M170.159 38.7987C169.912 38.7987 169.685 38.6985 169.511 38.5096C169.292 38.2727 169.187 37.9148 169.204 37.4755C169.209 37.3378 169.225 37.2021 169.239 37.0706C169.26 36.8901 169.279 36.719 169.274 36.551L169.68 36.5363C169.687 36.7367 169.665 36.9308 169.644 37.1197C169.63 37.2491 169.615 37.3711 169.61 37.4932C169.601 37.7197 169.629 38.0296 169.806 38.2226C169.947 38.376 170.112 38.3917 170.225 38.3771C170.435 38.351 170.642 38.207 170.752 38.0087C170.897 37.7499 170.999 37.2104 170.664 36.1127L171.052 35.9875C171.361 36.9986 171.378 37.7291 171.105 38.2185C170.929 38.5315 170.611 38.7517 170.273 38.7934C170.236 38.7955 170.198 38.7987 170.159 38.7987Z" fill="white"/>
<path d="M171.581 34.8197L171.337 34.4848C171.584 34.2938 171.714 33.9432 171.654 33.6312C171.625 33.4851 171.53 33.3307 171.42 33.3254C171.35 33.3223 171.255 33.3766 171.179 33.4204L170.26 33.9515L170.06 33.5863L170.979 33.0552C171.094 32.9884 171.252 32.8976 171.438 32.907C171.778 32.9226 171.995 33.2513 172.053 33.5498C172.143 34.0204 171.954 34.5317 171.581 34.8197Z" fill="white"/>
<path d="M213.175 6.74104C214.149 4.61958 214.883 2.35935 215.443 0.086586C215.46 0.0166709 216.25 0.516511 216.312 0.56973C216.588 0.80765 216.862 1.13427 216.989 1.48593C217.544 3.02406 216.861 4.62689 216.931 6.18589C216.998 7.66767 218.076 8.87814 218.522 10.2879C219.064 11.9993 218.574 14.0112 217.311 15.2561C217.082 15.4815 216.815 15.6912 216.501 15.7371C216.046 15.8039 215.617 15.5169 215.262 15.2164C214.048 14.1917 213.01 12.8789 212.707 11.2855C212.428 9.81312 212.548 8.10803 213.175 6.74104Z" fill="#FFA386"/>
<path d="M198.698 17.2001L202.858 19.6816L229.649 19.428L225.469 17.5508L198.698 17.2001Z" fill="#188779"/>
<path d="M224.958 22.6462L224.559 22.5637C224.901 20.7971 225.082 18.9887 225.095 17.1876C225.107 15.5493 224.983 13.4571 223.903 11.8156C222.708 9.99574 220.401 8.96579 218.025 9.19224C211.215 9.8413 207.685 17.7824 206.185 22.4594L205.799 22.3279C207.329 17.5539 210.946 9.44581 217.987 8.77483C220.508 8.53483 222.963 9.63573 224.241 11.5808C225.383 13.3183 225.514 15.4919 225.502 17.1907C225.488 19.0189 225.306 20.8545 224.958 22.6462Z" fill="black"/>
<path d="M222.106 19.5782L221.718 19.4509C222.315 17.5257 222.513 15.447 222.291 13.4393C222.161 12.2539 221.621 9.39569 219.436 8.45862C218.191 7.92435 216.634 8.12366 214.676 9.06803C210.512 11.0768 207.088 14.5162 205.035 18.7539L204.672 18.5671C206.765 14.2449 210.256 10.7376 214.504 8.68924C216.572 7.69165 218.237 7.49025 219.593 8.07253C221.976 9.09516 222.557 12.1339 222.696 13.3923C222.925 15.4585 222.721 17.5977 222.106 19.5782Z" fill="black"/>
<path d="M220.267 8.07256C220.194 8.54214 220.155 9.01798 220.162 9.50112C220.164 9.70878 220.176 9.92061 220.253 10.1126C220.407 10.4977 220.769 10.7022 221.083 10.9328C221.472 11.2198 221.672 11.4723 221.897 11.9012C222.101 12.2883 222.42 12.6108 222.801 12.8111C223.406 13.1304 223.432 14.0393 223.937 14.5527C224.289 14.9117 224.813 15.134 225.289 14.9931C225.395 15.4178 225.586 15.8206 225.848 16.166C225.941 16.2891 226.057 16.4133 226.208 16.4342C226.31 16.4478 226.411 16.4112 226.505 16.3684C227.204 16.0502 227.687 15.3834 228.106 14.726C228.708 13.7847 229.255 12.7913 229.554 11.7071C229.687 11.226 229.77 10.7158 229.666 10.2264C229.563 9.738 229.244 9.27364 228.782 9.12129C228.71 9.09728 228.632 9.0785 228.581 9.0232C228.519 8.95432 228.513 8.84893 228.507 8.75501C228.444 7.69794 227.738 6.70974 226.778 6.33199C226.701 6.30173 226.619 6.27251 226.569 6.20468C226.513 6.13059 226.511 6.03042 226.503 5.93754C226.438 5.21439 225.779 4.60185 225.074 4.60916C225.055 4.0154 224.927 3.42582 224.699 2.88111C224.472 2.33953 224.056 1.78751 223.484 1.76769C222.912 1.74786 222.399 2.20178 222.175 2.70058C221.404 4.40985 220.559 6.18903 220.267 8.07256Z" fill="#FFA386"/>
<path d="M221.699 11.2281L221.45 10.8963C222.089 10.3892 222.622 9.65036 223.034 8.69868C223.407 7.83883 223.644 6.90593 223.873 6.0033L224.267 6.10973C224.034 7.02906 223.792 7.97866 223.406 8.86981C222.964 9.88515 222.391 10.6782 221.699 11.2281Z" fill="black"/>
<path d="M223.31 13.216L223.062 12.8842C223.765 12.3269 224.355 11.5506 224.818 10.577C225.188 9.79956 225.471 8.92093 225.737 7.73029L226.134 7.8242C225.86 9.04719 225.567 9.95296 225.183 10.7606C224.693 11.7927 224.063 12.6181 223.31 13.216Z" fill="black"/>
<path d="M224.974 15.0766L224.694 14.7729C226.084 13.4143 227.118 11.6153 227.608 9.70773L228.001 9.81521C227.486 11.8261 226.439 13.6449 224.974 15.0766Z" fill="black"/>
<path d="M220.323 15.5691L219.916 15.5493C220.009 13.5666 219.235 11.4598 217.615 9.28826L217.551 9.20374C217.31 8.8813 217.06 8.54842 216.919 8.14771C216.734 7.61865 216.767 7.0635 216.799 6.52714C216.814 6.27148 216.828 6.03043 216.82 5.7946C216.803 5.29163 216.852 4.79492 216.9 4.31491C216.976 3.5521 217.048 2.83104 216.868 2.1058C216.807 1.86057 216.737 1.65605 216.653 1.48074C216.424 0.99968 216.018 0.600017 215.542 0.384011L215.705 0C216.269 0.254616 216.747 0.727325 217.018 1.29604C217.115 1.49743 217.194 1.72909 217.262 2.00145C217.459 2.79869 217.38 3.59071 217.304 4.35665C217.258 4.82309 217.21 5.30519 217.226 5.77895C217.235 6.03461 217.219 6.29757 217.204 6.55219C217.174 7.06977 217.144 7.55813 217.301 8.00579C217.42 8.34493 217.64 8.63816 217.873 8.94808L217.936 9.03365C219.617 11.2845 220.42 13.4842 220.323 15.5691Z" fill="black"/>
<path d="M81.8586 62.3288L92.8632 69.8065L94.8318 66.3713L101.648 66.6478L105.336 32.0503L98.3264 28.4721L81.8586 62.3288Z" fill="#40C4B3"/>
<path d="M71.7376 18.1111L51.5149 45.6827L76.1674 66.965L84.032 67.2844L102.977 31.9543L94.7022 28.6433L96.0781 33.8368L72.3132 16.7827L71.7376 18.1111Z" fill="#106A5F"/>
<path d="M72.3133 16.7828L78.0187 18.6371L79.495 14.3702L102.977 31.9544L94.7023 28.6433L97.7946 37.0164L71.7378 18.1112L72.3133 16.7828Z" fill="#40C4B3"/>
<path d="M89.9817 34.5276L89.6108 34.3544C90.9533 31.3021 92.1195 28.5347 92.8014 25.5712C93.5857 22.161 93.5634 19.0628 92.7335 16.3643C92.2219 14.6999 91.4518 13.406 90.4437 12.5159C89.2623 11.4724 87.711 11.0393 86.3969 11.3857C85.0331 11.7447 83.8051 12.9541 83.028 14.7051C82.5761 15.7236 82.2883 16.8339 82.0097 17.9077C81.8658 18.4628 81.7169 19.0357 81.5466 19.594C80.6874 22.4083 79.2071 25.0411 77.2628 27.2084L76.9639 26.9236C78.8667 24.8021 80.3176 22.2236 81.1576 19.4677C81.3247 18.9188 81.4727 18.3491 81.6155 17.7991C81.8982 16.7087 82.191 15.5806 82.6571 14.5298C83.4859 12.664 84.8122 11.369 86.2956 10.9788C87.7364 10.6 89.4264 11.0664 90.7081 12.1965C91.775 13.1378 92.5866 14.4975 93.1216 16.237C93.9737 19.0096 93.9991 22.1819 93.1976 25.6672C92.5066 28.6683 91.3323 31.4555 89.9817 34.5276Z" fill="black"/>
<path d="M91.311 27.1395L90.9199 27.0247C91.7265 24.1081 92.5593 21.0913 92.7184 18.0171C92.842 15.6223 92.5776 12.1724 90.6129 9.33306C90.0526 8.5233 89.4842 7.99215 88.8753 7.71041C87.088 6.88395 84.8913 8.23425 83.9622 10.0134C83.0655 11.73 83.1628 13.144 83.2864 14.9357C83.3066 15.2362 83.3279 15.5482 83.3462 15.8717C83.4779 18.3312 83.4495 20.821 83.2621 23.2733L82.8568 23.2399C83.0432 20.8064 83.0716 18.3354 82.9409 15.8946C82.9236 15.5732 82.9024 15.2644 82.8821 14.9649C82.7595 13.1794 82.6541 11.6382 83.6055 9.81516C84.6177 7.87737 86.9846 6.37576 89.0435 7.32848C89.7203 7.64153 90.3424 8.21755 90.9463 9.08992C92.9788 12.0284 93.2544 15.5785 93.1267 18.0401C92.9636 21.1612 92.1236 24.1999 91.311 27.1395Z" fill="black"/>
<path d="M128.744 230.676L126.774 233.257L120.643 237.271L122.318 238.962L126.006 239.924L129.917 238.663L133.213 234.941L134.623 231.548C134.623 231.546 132.542 229.285 128.744 230.676Z" fill="#2A9D8F"/>
<path d="M168.572 228.98L171.844 234.1L177.929 240.39L184.851 238.165L181.077 232.802L176.847 230.021L175.173 226.681C175.173 226.681 173.129 224.541 168.572 228.98Z" fill="#2A9D8F"/>
<path d="M120.818 242.699L117.224 241.143L117.382 240.757L120.894 242.277L135.469 241.826L140.395 240.301L146.455 240.044L146.472 240.464L140.463 240.717L135.535 242.243L135.509 242.244L120.818 242.699Z" fill="black"/>
<path d="M185.912 244.389L185.879 244.388L178.426 244.086L169.179 238.318L164.587 237.317L161.421 234.838L161.668 234.504L164.76 236.926L169.33 237.924L169.36 237.942L178.547 243.671L185.862 243.968L187.852 243.374L187.966 243.776L185.912 244.389Z" fill="black"/>
<path d="M126.065 240.124L125.945 239.723L130.448 238.286L133.035 234.832L134.436 231.464L134.81 231.628L133.389 235.046L133.374 235.067L130.691 238.647L126.065 240.124Z" fill="black"/>
<path d="M177.783 240.537L171.412 233.805L168.401 229.095L168.741 228.864L171.73 233.541L178.074 240.244L177.783 240.537Z" fill="black"/>
<path d="M176.996 229.868L176.704 230.16L181.887 235.641L182.179 235.349L176.996 229.868Z" fill="black"/>
<path d="M90.2603 7.22941C90.4133 7.67812 90.5339 8.13935 90.6119 8.61519C90.6454 8.81972 90.6707 9.03051 90.6291 9.23399C90.545 9.64096 90.2229 9.90914 89.9554 10.194C89.623 10.5478 89.468 10.8337 89.3211 11.296C89.1884 11.7144 88.93 12.0901 88.5896 12.3583C88.0495 12.784 88.1812 13.6825 87.7739 14.2804C87.4892 14.6988 87.013 15.0129 86.5195 14.9618C86.4902 15.399 86.3716 15.83 86.173 16.2182C86.1021 16.357 86.0099 16.501 85.865 16.5479C85.7677 16.5803 85.6614 16.5625 85.5621 16.5385C84.8194 16.3538 84.2287 15.7872 83.7018 15.2175C82.947 14.4025 82.2357 13.5249 81.7534 12.5137C81.5396 12.065 81.3694 11.5777 81.3856 11.0779C81.4018 10.578 81.6359 10.0636 82.0644 9.82775C82.1303 9.79122 82.2043 9.75887 82.2448 9.69418C82.2955 9.61487 82.2813 9.51052 82.2701 9.4166C82.1496 8.36475 82.6714 7.2628 83.5508 6.71392C83.6207 6.67009 83.6967 6.62522 83.7342 6.55009C83.7758 6.46661 83.7606 6.36747 83.7525 6.2746C83.6907 5.55145 84.2337 4.82726 84.9288 4.70517C84.8437 4.11767 84.868 3.51452 84.9977 2.93642C85.1274 2.36145 85.4395 1.74265 85.9998 1.61743C86.5591 1.49221 87.1427 1.84491 87.4497 2.29466C88.5065 3.83488 89.6463 5.42936 90.2603 7.22941Z" fill="#FFA386"/>
<path d="M89.4001 10.598L89.5876 10.2254C88.8722 9.84455 88.2187 9.21427 87.6483 8.35442C87.1326 7.57701 86.7374 6.70255 86.3544 5.85626L85.9856 6.03261C86.3747 6.89351 86.7769 7.78466 87.3119 8.59025C87.9208 9.50958 88.624 10.1847 89.4001 10.598Z" fill="black"/>
<path d="M88.159 12.8498L88.3455 12.4773C87.5572 12.0588 86.8408 11.4035 86.2167 10.5301C85.7182 9.83304 85.2866 9.02119 84.8185 7.89838L84.4446 8.06429C84.9259 9.21737 85.3717 10.0543 85.8894 10.7785C86.5511 11.7041 87.315 12.4011 88.159 12.8498Z" fill="black"/>
<path d="M86.8439 14.988L87.0668 14.6373C85.4639 13.5563 84.1336 11.9774 83.321 10.1899L82.9521 10.3673C83.8083 12.2508 85.1539 13.8484 86.8439 14.988Z" fill="black"/>
<path d="M86.6574 2.61081C84.6665 3.7524 82.5265 4.65608 80.3613 5.38445C80.2955 5.40636 80.8314 6.18586 80.8872 6.24534C81.1354 6.51353 81.4708 6.77232 81.8193 6.8798C83.3462 7.34833 84.8539 6.53961 86.3687 6.50727C87.8084 6.477 89.0537 7.50486 90.4489 7.87009C92.143 8.31358 94.059 7.67599 95.1816 6.29543C95.3853 6.04499 95.5697 5.75594 95.594 5.43036C95.6284 4.9587 95.3224 4.53712 95.0073 4.19172C93.9333 3.01256 92.5928 2.03375 91.0284 1.82818C89.5846 1.63826 87.9402 1.87513 86.6574 2.61081Z" fill="#FFA386"/>
<path d="M94.15 11.4097C94.0193 11.4097 93.914 11.3221 93.8653 11.2814C92.2776 9.95821 90.9817 8.24998 90.1174 6.34454C90.0293 6.15045 89.93 5.93131 89.7628 5.85409C89.6037 5.78104 89.394 5.83948 89.1924 5.90522C88.9006 6.00018 88.6098 6.09931 88.319 6.1974C87.2511 6.55846 86.1467 6.93203 85.0169 7.15326C83.0715 7.53414 81.7493 7.19917 80.5932 6.03462C80.4564 5.89687 80.3237 5.74139 80.2771 5.53686L80.5851 5.46173C80.6135 5.58486 80.7118 5.69756 80.8151 5.80087C81.8881 6.88195 83.1273 7.19082 84.9582 6.8329C86.0666 6.61585 87.1619 6.24541 88.2197 5.88748C88.5115 5.78835 88.8033 5.69026 89.0961 5.59426C89.3565 5.50869 89.6321 5.43564 89.8925 5.55669C90.1681 5.684 90.2998 5.97409 90.4052 6.2068C91.2492 8.06841 92.5147 9.73594 94.0659 11.0288C94.1237 11.0768 94.146 11.0842 94.1521 11.0852C94.146 11.0862 94.0994 11.0988 94.1004 11.1363C94.1014 11.1728 94.1328 11.2177 94.1825 11.2261L94.2382 10.9047C94.3415 10.9235 94.4135 11.0132 94.4175 11.1259C94.4216 11.2542 94.3375 11.3732 94.223 11.4024C94.1966 11.4066 94.1733 11.4097 94.15 11.4097Z" fill="black"/>
<path d="M228.056 61.0452L197.082 59.7878L202.56 19.6378L203.156 19.7244L197.771 59.1951L228.079 60.4264L228.056 61.0452Z" fill="#084941"/>
<path d="M98.9735 43.9625L92.5718 69.7286L93.1548 69.8823L99.5566 44.1162L98.9735 43.9625Z" fill="#084941"/>
<path d="M130.477 118.187L129.439 77.5327L129.455 77.493L139.004 51.5921L146.366 49.5573L146.474 49.9705L139.317 51.949L129.858 77.6057L130.892 118.175L130.477 118.187Z" fill="black"/>
<path d="M127.031 64.4701L127.235 57.8323L127.65 57.8459L127.501 62.6836L130.069 57.8281L130.434 58.0327L127.031 64.4701Z" fill="black"/>
<path d="M118.325 41.0724L114.473 45.0164L114.766 45.3205L118.619 41.3766L118.325 41.0724Z" fill="black"/>
<path d="M119.803 41.8505L117.232 46.9661L117.602 47.1632L120.173 42.0476L119.803 41.8505Z" fill="black"/>
</svg>
