<svg width="16" height="18" viewBox="0 0 16 18" fill="none" xmlns="http://www.w3.org/2000/svg">
<path d="M14.6667 17.3332H1.33333C1.11232 17.3332 0.900358 17.2454 0.744078 17.0891C0.587797 16.9328 0.5 16.7209 0.5 16.4998V1.49984C0.5 1.27882 0.587797 1.06686 0.744078 0.910582C0.900358 0.754301 1.11232 0.666504 1.33333 0.666504H14.6667C14.8877 0.666504 15.0996 0.754301 15.2559 0.910582C15.4122 1.06686 15.5 1.27882 15.5 1.49984V16.4998C15.5 16.7209 15.4122 16.9328 15.2559 17.0891C15.0996 17.2454 14.8877 17.3332 14.6667 17.3332ZM4.66667 4.83317V6.49984H11.3333V4.83317H4.66667ZM4.66667 8.1665V9.83317H11.3333V8.1665H4.66667ZM4.66667 11.4998V13.1665H11.3333V11.4998H4.66667Z" fill="#2A9D8F"/>
</svg>
