<svg width="38" height="32" viewBox="0 0 38 32" fill="none" xmlns="http://www.w3.org/2000/svg">
<path d="M10.6666 31.9688C8.38997 31.794 6.22683 30.9043 4.48598 29.4269C2.74514 27.9494 1.51562 25.9597 0.972985 23.7418C0.430347 21.524 0.602338 19.1913 1.4644 17.0771C2.32646 14.9628 3.83451 13.1749 5.77322 11.9688C6.18574 8.75224 7.75622 5.79626 10.1908 3.65402C12.6253 1.51177 15.757 0.330078 18.9999 0.330078C22.2428 0.330078 25.3745 1.51177 27.809 3.65402C30.2436 5.79626 31.814 8.75224 32.2266 11.9688C34.1653 13.1749 35.6733 14.9628 36.5354 17.0771C37.3974 19.1913 37.5694 21.524 37.0268 23.7418C36.4842 25.9597 35.2546 27.9494 33.5138 29.4269C31.773 30.9043 29.6098 31.794 27.3332 31.9688V32.0004H10.6666V31.9688ZM20.6666 18.6671H25.6666L18.9999 10.3338L12.3332 18.6671H17.3332V25.3338H20.6666V18.6671Z" fill="#6F6879"/>
</svg>
